# Generated from the ORV RViz COLLADA asset; units: metres
v -0.0325 -0.0172 3.9801021e-18
v -0.0325 -0.016 3.9801021e-18
v -0.0325 0.016 3.9801021e-18
v -0.0325 0.0172 3.9801021e-18
v -0.032460852 -0.0172 -0.0015946994
v -0.032460852 -0.0172 0.0015946994
v -0.032460852 -0.016 -0.0015946994
v -0.032460852 -0.016 0.0015946994
v -0.032460852 0.016 -0.0015946994
v -0.032460852 0.016 0.0015946994
v -0.032460852 0.0172 -0.0015946994
v -0.032460852 0.0172 0.0015946994
v -0.032343504 -0.0172 -0.0031855571
v -0.032343504 -0.0172 0.0031855571
v -0.032343504 -0.016 -0.0031855571
v -0.032343504 -0.016 0.0031855571
v -0.032343504 0.016 -0.0031855571
v -0.032343504 0.016 0.0031855571
v -0.032343504 0.0172 -0.0031855571
v -0.032343504 0.0172 0.0031855571
v -0.032148237 -0.0172 -0.0047687404
v -0.032148237 -0.0172 0.0047687404
v -0.032148237 -0.016 -0.0047687404
v -0.032148237 -0.016 0.0047687404
v -0.032148237 0.016 -0.0047687404
v -0.032148237 0.016 0.0047687404
v -0.032148237 0.0172 -0.0047687404
v -0.032148237 0.0172 0.0047687404
v -0.031875522 -0.0172 -0.0063404355
v -0.031875522 -0.0172 0.0063404355
v -0.031875522 -0.016 -0.0063404355
v -0.031875522 -0.016 0.0063404355
v -0.031875522 0.016 -0.0063404355
v -0.031875522 0.016 0.0063404355
v -0.031875522 0.0172 -0.0063404355
v -0.031875522 0.0172 0.0063404355
v -0.031526016 -0.0172 -0.0078968558
v -0.031526016 -0.0172 0.0078968558
v -0.031526016 -0.016 -0.0078968558
v -0.031526016 -0.016 0.0078968558
v -0.031526016 0.016 -0.0078968558
v -0.031526016 0.016 0.0078968558
v -0.031526016 0.0172 -0.0078968558
v -0.031526016 0.0172 0.0078968558
v -0.031331143 0.0125 0.0048217716
v -0.031331143 0.015 0.0048217716
v -0.031243037 0.0125 -0.0053630805
v -0.031243037 0.015 -0.0053630805
v -0.031100561 -0.0172 -0.009434252
v -0.031100561 -0.0172 0.009434252
v -0.031100561 -0.016 -0.009434252
v -0.031100561 -0.016 0.009434252
v -0.031100561 0.016 -0.009434252
v -0.031100561 0.016 0.009434252
v -0.031100561 0.0172 -0.009434252
v -0.031100561 0.0172 0.009434252
v -0.030917165 0.0125 0.0070013524
v -0.030917165 0.015 0.0070013524
v -0.030791414 0.0125 -0.0075351733
v -0.030791414 0.015 -0.0075351733
v -0.030600182 -0.0172 -0.01094892
v -0.030600182 -0.0172 0.01094892
v -0.030600182 -0.016 -0.01094892
v -0.030600182 -0.016 0.01094892
v -0.030600182 0.016 -0.01094892
v -0.030600182 0.016 0.01094892
v -0.030600182 0.0172 -0.01094892
v -0.030600182 0.0172 0.01094892
v -0.0305 -0.0172 3.7351727e-18
v -0.0305 -0.016 3.7351727e-18
v -0.0305 0.016 3.7351727e-18
v -0.0305 0.0172 3.7351727e-18
v -0.030463261 -0.0172 -0.0014965641
v -0.030463261 -0.0172 0.0014965641
v -0.030463261 -0.016 -0.0014965641
v -0.030463261 -0.016 0.0014965641
v -0.030463261 0.016 -0.0014965641
v -0.030463261 0.016 0.0014965641
v -0.030463261 0.0172 -0.0014965641
v -0.030463261 0.0172 0.0014965641
v -0.030353134 -0.0172 -0.0029895228
v -0.030353134 -0.0172 0.0029895228
v -0.030353134 -0.016 -0.0029895228
v -0.030353134 -0.016 0.0029895228
v -0.030353134 0.016 -0.0029895228
v -0.030353134 0.016 0.0029895228
v -0.030353134 0.0172 -0.0029895228
v -0.030353134 0.0172 0.0029895228
v -0.030169884 -0.0172 -0.0044752795
v -0.030169884 -0.0172 0.0044752795
v -0.030169884 -0.016 -0.0044752795
v -0.030169884 -0.016 0.0044752795
v -0.030169884 0.016 -0.0044752795
v -0.030169884 0.016 0.0044752795
v -0.030169884 0.0172 -0.0044752795
v -0.030169884 0.0172 0.0044752795
v -0.030026085 -0.0172 -0.012437212
v -0.030026085 -0.0172 0.012437212
v -0.030026085 -0.016 -0.012437212
v -0.030026085 -0.016 0.012437212
v -0.030026085 0.016 -0.012437212
v -0.030026085 0.016 0.012437212
v -0.030026085 0.0172 -0.012437212
v -0.030026085 0.0172 0.012437212
v -0.029913951 -0.0172 -0.0059502548
v -0.029913951 -0.0172 0.0059502548
v -0.029913951 -0.016 -0.0059502548
v -0.029913951 -0.016 0.0059502548
v -0.029913951 0.016 -0.0059502548
v -0.029913951 0.016 0.0059502548
v -0.029913951 0.0172 -0.0059502548
v -0.029913951 0.0172 0.0059502548
v -0.029585953 -0.0172 -0.0074108955
v -0.029585953 -0.0172 0.0074108955
v -0.029585953 -0.016 -0.0074108955
v -0.029585953 -0.016 0.0074108955
v -0.029585953 0.016 -0.0074108955
v -0.029585953 0.016 0.0074108955
v -0.029585953 0.0172 -0.0074108955
v -0.029585953 0.0172 0.0074108955
v -0.029379652 -0.0172 -0.013895541
v -0.029379652 -0.0172 0.013895541
v -0.029379652 -0.016 -0.013895541
v -0.029379652 -0.016 0.013895541
v -0.029379652 0.016 -0.013895541
v -0.029379652 0.016 0.013895541
v -0.029379652 0.0172 -0.013895541
v -0.029379652 0.0172 0.013895541
v -0.02918668 -0.0172 -0.0088536827
v -0.02918668 -0.0172 0.0088536827
v -0.02918668 -0.016 -0.0088536827
v -0.02918668 -0.016 0.0088536827
v -0.02918668 0.016 -0.0088536827
v -0.02918668 0.016 0.0088536827
v -0.02918668 0.0172 -0.0088536827
v -0.02918668 0.0172 0.0088536827
v -0.028717094 -0.0172 -0.010275141
v -0.028717094 -0.0172 0.010275141
v -0.028717094 -0.016 -0.010275141
v -0.028717094 -0.016 0.010275141
v -0.028717094 0.016 -0.010275141
v -0.028717094 0.016 0.010275141
v -0.028717094 0.0172 -0.010275141
v -0.028717094 0.0172 0.010275141
v -0.028662441 -0.0172 -0.015320394
v -0.028662441 -0.0172 0.015320394
v -0.028662441 -0.016 -0.015320394
v -0.028662441 -0.016 0.015320394
v -0.028662441 0.016 -0.015320394
v -0.028662441 0.016 0.015320394
v -0.028662441 0.0172 -0.015320394
v -0.028662441 0.0172 0.015320394
v -0.028178326 -0.0172 -0.011671845
v -0.028178326 -0.0172 0.011671845
v -0.028178326 -0.016 -0.011671845
v -0.028178326 -0.016 0.011671845
v -0.028178326 0.016 -0.011671845
v -0.028178326 0.016 0.011671845
v -0.028178326 0.0172 -0.011671845
v -0.028178326 0.0172 0.011671845
v -0.02787618 -0.0172 -0.016708339
v -0.02787618 -0.0172 0.016708339
v -0.02787618 -0.016 -0.016708339
v -0.02787618 -0.016 0.016708339
v -0.02787618 0.016 -0.016708339
v -0.02787618 0.016 0.016708339
v -0.02787618 0.0172 -0.016708339
v -0.02787618 0.0172 0.016708339
v -0.027571673 -0.0172 -0.01304043
v -0.027571673 -0.0172 0.01304043
v -0.027571673 -0.016 -0.01304043
v -0.027571673 -0.016 0.01304043
v -0.027571673 0.016 -0.01304043
v -0.027571673 0.016 0.01304043
v -0.027571673 0.0172 -0.01304043
v -0.027571673 0.0172 0.01304043
v -0.02710099 0.0125 0.016444645
v -0.02710099 0.015 0.016444645
v -0.027022762 -0.0172 -0.018056033
v -0.027022762 -0.0172 0.018056033
v -0.027022762 -0.016 -0.018056033
v -0.027022762 -0.016 0.018056033
v -0.027022762 0.016 -0.018056033
v -0.027022762 0.016 0.018056033
v -0.027022762 0.0172 -0.018056033
v -0.027022762 0.0172 0.018056033
v -0.026898599 -0.0172 -0.0143776
v -0.026898599 -0.0172 0.0143776
v -0.026898599 -0.016 -0.0143776
v -0.026898599 -0.016 0.0143776
v -0.026898599 0.016 -0.0143776
v -0.026898599 0.016 0.0143776
v -0.026898599 0.0172 -0.0143776
v -0.026898599 0.0172 0.0143776
v -0.02681244 0.0125 -0.016911033
v -0.02681244 0.015 -0.016911033
v -0.026160723 -0.0172 -0.015680134
v -0.026160723 -0.0172 0.015680134
v -0.026160723 -0.016 -0.015680134
v -0.026160723 -0.016 0.015680134
v -0.026160723 0.016 -0.015680134
v -0.026160723 0.016 0.015680134
v -0.026160723 0.0172 -0.015680134
v -0.026160723 0.0172 0.015680134
v -0.026104245 -0.0172 -0.019360227
v -0.026104245 -0.0172 0.019360227
v -0.026104245 -0.016 -0.019360227
v -0.026104245 -0.016 0.019360227
v -0.026104245 0.016 -0.019360227
v -0.026104245 0.016 0.019360227
v -0.026104245 0.0172 -0.019360227
v -0.026104245 0.0172 0.019360227
v -0.025884434 0.0125 0.018299893
v -0.025884434 0.015 0.018299893
v -0.025563971 0.0125 -0.018744956
v -0.025563971 0.015 -0.018744956
v -0.025359823 -0.0172 -0.016944892
v -0.025359823 -0.0172 0.016944892
v -0.025359823 -0.016 -0.016944892
v -0.025359823 -0.016 0.016944892
v -0.025359823 0.016 -0.016944892
v -0.025359823 0.016 0.016944892
v -0.025359823 0.0172 -0.016944892
v -0.025359823 0.0172 0.016944892
v -0.02512284 -0.0172 -0.020617782
v -0.02512284 -0.0172 0.020617782
v -0.02512284 -0.016 -0.020617782
v -0.02512284 -0.016 0.020617782
v -0.02512284 0.016 -0.020617782
v -0.02512284 0.016 0.020617782
v -0.02512284 0.0172 -0.020617782
v -0.02512284 0.0172 0.020617782
v -0.02449783 -0.0172 -0.018168829
v -0.02449783 -0.0172 0.018168829
v -0.02449783 -0.016 -0.018168829
v -0.02449783 -0.016 0.018168829
v -0.02449783 0.016 -0.018168829
v -0.02449783 0.016 0.018168829
v -0.02449783 0.0172 -0.018168829
v -0.02449783 0.0172 0.018168829
v -0.024080912 -0.0172 -0.021825666
v -0.024080912 -0.0172 0.021825666
v -0.024080912 -0.016 -0.021825666
v -0.024080912 -0.016 0.021825666
v -0.024080912 0.016 -0.021825666
v -0.024080912 0.016 0.021825666
v -0.024080912 0.0172 -0.021825666
v -0.024080912 0.0172 0.021825666
v -0.023576819 -0.0172 -0.019348995
v -0.023576819 -0.0172 0.019348995
v -0.023576819 -0.016 -0.019348995
v -0.023576819 -0.016 0.019348995
v -0.023576819 0.016 -0.019348995
v -0.023576819 0.016 0.019348995
v -0.023576819 0.0172 -0.019348995
v -0.023576819 0.0172 0.019348995
v -0.02298097 -0.0172 -0.02298097
v -0.02298097 -0.0172 0.02298097
v -0.02298097 -0.016 -0.02298097
v -0.02298097 -0.016 0.02298097
v -0.02298097 0.016 -0.02298097
v -0.02298097 0.016 0.02298097
v -0.02298097 0.0172 -0.02298097
v -0.02298097 0.0172 0.02298097
v -0.022599009 -0.0172 -0.020482548
v -0.022599009 -0.0172 0.020482548
v -0.022599009 -0.016 -0.020482548
v -0.022599009 -0.016 0.020482548
v -0.022599009 0.016 -0.020482548
v -0.022599009 0.016 0.020482548
v -0.022599009 0.0172 -0.020482548
v -0.022599009 0.0172 0.020482548
v -0.021825666 -0.0172 -0.024080912
v -0.021825666 -0.0172 0.024080912
v -0.021825666 -0.016 -0.024080912
v -0.021825666 -0.016 0.024080912
v -0.021825666 0.016 -0.024080912
v -0.021825666 0.016 0.024080912
v -0.021825666 0.0172 -0.024080912
v -0.021825666 0.0172 0.024080912
v -0.021566757 -0.0172 -0.021566757
v -0.021566757 -0.0172 0.021566757
v -0.021566757 -0.016 -0.021566757
v -0.021566757 -0.016 0.021566757
v -0.021566757 0.016 -0.021566757
v -0.021566757 0.016 0.021566757
v -0.021566757 0.0172 -0.021566757
v -0.021566757 0.0172 0.021566757
v -0.020617782 -0.0172 -0.02512284
v -0.020617782 -0.0172 0.02512284
v -0.020617782 -0.016 -0.02512284
v -0.020617782 -0.016 0.02512284
v -0.020617782 0.016 -0.02512284
v -0.020617782 0.016 0.02512284
v -0.020617782 0.0172 -0.02512284
v -0.020617782 0.0172 0.02512284
v -0.020482548 -0.0172 -0.022599009
v -0.020482548 -0.0172 0.022599009
v -0.020482548 -0.016 -0.022599009
v -0.020482548 -0.016 0.022599009
v -0.020482548 0.016 -0.022599009
v -0.020482548 0.016 0.022599009
v -0.020482548 0.0172 -0.022599009
v -0.020482548 0.0172 0.022599009
v -0.019360227 -0.0172 -0.026104245
v -0.019360227 -0.0172 0.026104245
v -0.019360227 -0.016 -0.026104245
v -0.019360227 -0.016 0.026104245
v -0.019360227 0.016 -0.026104245
v -0.019360227 0.016 0.026104245
v -0.019360227 0.0172 -0.026104245
v -0.019360227 0.0172 0.026104245
v -0.019348995 -0.0172 -0.023576819
v -0.019348995 -0.0172 0.023576819
v -0.019348995 -0.016 -0.023576819
v -0.019348995 -0.016 0.023576819
v -0.019348995 0.016 -0.023576819
v -0.019348995 0.016 0.023576819
v -0.019348995 0.0172 -0.023576819
v -0.019348995 0.0172 0.023576819
v -0.018744956 0.0125 0.025563971
v -0.018744956 0.015 0.025563971
v -0.018299893 0.0125 -0.025884434
v -0.018299893 0.015 -0.025884434
v -0.018168829 -0.0172 -0.02449783
v -0.018168829 -0.0172 0.02449783
v -0.018168829 -0.016 -0.02449783
v -0.018168829 -0.016 0.02449783
v -0.018168829 0.016 -0.02449783
v -0.018168829 0.016 0.02449783
v -0.018168829 0.0172 -0.02449783
v -0.018168829 0.0172 0.02449783
v -0.018056033 -0.0172 -0.027022762
v -0.018056033 -0.0172 0.027022762
v -0.018056033 -0.016 -0.027022762
v -0.018056033 -0.016 0.027022762
v -0.018056033 0.016 -0.027022762
v -0.018056033 0.016 0.027022762
v -0.018056033 0.0172 -0.027022762
v -0.018056033 0.0172 0.027022762
v -0.016944892 -0.0172 -0.025359823
v -0.016944892 -0.0172 0.025359823
v -0.016944892 -0.016 -0.025359823
v -0.016944892 -0.016 0.025359823
v -0.016944892 0.016 -0.025359823
v -0.016944892 0.016 0.025359823
v -0.016944892 0.0172 -0.025359823
v -0.016944892 0.0172 0.025359823
v -0.016911033 0.0125 0.02681244
v -0.016911033 0.015 0.02681244
v -0.016708339 -0.0172 -0.02787618
v -0.016708339 -0.0172 0.02787618
v -0.016708339 -0.016 -0.02787618
v -0.016708339 -0.016 0.02787618
v -0.016708339 0.016 -0.02787618
v -0.016708339 0.016 0.02787618
v -0.016708339 0.0172 -0.02787618
v -0.016708339 0.0172 0.02787618
v -0.016444645 0.0125 -0.02710099
v -0.016444645 0.015 -0.02710099
v -0.015680134 -0.0172 -0.026160723
v -0.015680134 -0.0172 0.026160723
v -0.015680134 -0.016 -0.026160723
v -0.015680134 -0.016 0.026160723
v -0.015680134 0.016 -0.026160723
v -0.015680134 0.016 0.026160723
v -0.015680134 0.0172 -0.026160723
v -0.015680134 0.0172 0.026160723
v -0.015320394 -0.0172 -0.028662441
v -0.015320394 -0.0172 0.028662441
v -0.015320394 -0.016 -0.028662441
v -0.015320394 -0.016 0.028662441
v -0.015320394 0.016 -0.028662441
v -0.015320394 0.016 0.028662441
v -0.015320394 0.0172 -0.028662441
v -0.015320394 0.0172 0.028662441
v -0.0143776 -0.0172 -0.026898599
v -0.0143776 -0.0172 0.026898599
v -0.0143776 -0.016 -0.026898599
v -0.0143776 -0.016 0.026898599
v -0.0143776 0.016 -0.026898599
v -0.0143776 0.016 0.026898599
v -0.0143776 0.0172 -0.026898599
v -0.0143776 0.0172 0.026898599
v -0.013895541 -0.0172 -0.029379652
v -0.013895541 -0.0172 0.029379652
v -0.013895541 -0.016 -0.029379652
v -0.013895541 -0.016 0.029379652
v -0.013895541 0.016 -0.029379652
v -0.013895541 0.016 0.029379652
v -0.013895541 0.0172 -0.029379652
v -0.013895541 0.0172 0.029379652
v -0.01304043 -0.0172 -0.027571673
v -0.01304043 -0.0172 0.027571673
v -0.01304043 -0.016 -0.027571673
v -0.01304043 -0.016 0.027571673
v -0.01304043 0.016 -0.027571673
v -0.01304043 0.016 0.027571673
v -0.01304043 0.0172 -0.027571673
v -0.01304043 0.0172 0.027571673
v -0.012437212 -0.0172 -0.030026085
v -0.012437212 -0.0172 0.030026085
v -0.012437212 -0.016 -0.030026085
v -0.012437212 -0.016 0.030026085
v -0.012437212 0.016 -0.030026085
v -0.012437212 0.016 0.030026085
v -0.012437212 0.0172 -0.030026085
v -0.012437212 0.0172 0.030026085
v -0.011671845 -0.0172 -0.028178326
v -0.011671845 -0.0172 0.028178326
v -0.011671845 -0.016 -0.028178326
v -0.011671845 -0.016 0.028178326
v -0.011671845 0.016 -0.028178326
v -0.011671845 0.016 0.028178326
v -0.011671845 0.0172 -0.028178326
v -0.011671845 0.0172 0.028178326
v -0.01094892 -0.0172 -0.030600182
v -0.01094892 -0.0172 0.030600182
v -0.01094892 -0.016 -0.030600182
v -0.01094892 -0.016 0.030600182
v -0.01094892 0.016 -0.030600182
v -0.01094892 0.016 0.030600182
v -0.01094892 0.0172 -0.030600182
v -0.01094892 0.0172 0.030600182
v -0.010275141 -0.0172 -0.028717094
v -0.010275141 -0.0172 0.028717094
v -0.010275141 -0.016 -0.028717094
v -0.010275141 -0.016 0.028717094
v -0.010275141 0.016 -0.028717094
v -0.010275141 0.016 0.028717094
v -0.010275141 0.0172 -0.028717094
v -0.010275141 0.0172 0.028717094
v -0.009434252 -0.0172 -0.031100561
v -0.009434252 -0.0172 0.031100561
v -0.009434252 -0.016 -0.031100561
v -0.009434252 -0.016 0.031100561
v -0.009434252 0.016 -0.031100561
v -0.009434252 0.016 0.031100561
v -0.009434252 0.0172 -0.031100561
v -0.009434252 0.0172 0.031100561
v -0.0088536827 -0.0172 -0.02918668
v -0.0088536827 -0.0172 0.02918668
v -0.0088536827 -0.016 -0.02918668
v -0.0088536827 -0.016 0.02918668
v -0.0088536827 0.016 -0.02918668
v -0.0088536827 0.016 0.02918668
v -0.0088536827 0.0172 -0.02918668
v -0.0088536827 0.0172 0.02918668
v -0.0079424691 0.0050236593 -0.00095769766
v -0.0079424691 0.0050236593 0.00095769766
v -0.0079424691 0.0075236593 -0.00095769766
v -0.0079424691 0.0075236593 0.00095769766
v -0.0078968558 -0.0172 -0.031526016
v -0.0078968558 -0.0172 0.031526016
v -0.0078968558 -0.016 -0.031526016
v -0.0078968558 -0.016 0.031526016
v -0.0078968558 0.016 -0.031526016
v -0.0078968558 0.016 0.031526016
v -0.0078968558 0.0172 -0.031526016
v -0.0078968558 0.0172 0.031526016
v -0.0077043797 0.0050236593 -0.0021546541
v -0.0077043797 0.0050236593 0.0021546541
v -0.0077043797 0.0075236593 -0.0021546541
v -0.0077043797 0.0075236593 0.0021546541
v -0.0075351733 0.0125 0.030791414
v -0.0075351733 0.015 0.030791414
v -0.0074108955 -0.0172 -0.029585953
v -0.0074108955 -0.0172 0.029585953
v -0.0074108955 -0.016 -0.029585953
v -0.0074108955 -0.016 0.029585953
v -0.0074108955 0.016 -0.029585953
v -0.0074108955 0.016 0.029585953
v -0.0074108955 0.0172 -0.029585953
v -0.0074108955 0.0172 0.029585953
v -0.0070013524 0.0125 -0.030917165
v -0.0070013524 0.015 -0.030917165
v -0.0069713896 0.0050236593 -0.0039242486
v -0.0069713896 0.0050236593 0.0039242486
v -0.0069713896 0.0075236593 -0.0039242486
v -0.0069713896 0.0075236593 0.0039242486
v -0.0063404355 -0.0172 -0.031875522
v -0.0063404355 -0.0172 0.031875522
v -0.0063404355 -0.016 -0.031875522
v -0.0063404355 -0.016 0.031875522
v -0.0063404355 0.016 -0.031875522
v -0.0063404355 0.016 0.031875522
v -0.0063404355 0.0172 -0.031875522
v -0.0063404355 0.0172 0.031875522
v -0.0062933683 0.0050236593 -0.0049389792
v -0.0062933683 0.0050236593 0.0049389792
v -0.0062933683 0.0075236593 -0.0049389792
v -0.0062933683 0.0075236593 0.0049389792
v -0.0059502548 -0.0172 -0.029913951
v -0.0059502548 -0.0172 0.029913951
v -0.0059502548 -0.016 -0.029913951
v -0.0059502548 -0.016 0.029913951
v -0.0059502548 0.016 -0.029913951
v -0.0059502548 0.016 0.029913951
v -0.0059502548 0.0172 -0.029913951
v -0.0059502548 0.0172 0.029913951
v -0.0053630805 0.0125 0.031243037
v -0.0053630805 0.015 0.031243037
v -0.0049389792 0.0050236593 -0.0062933683
v -0.0049389792 0.0050236593 0.0062933683
v -0.0049389792 0.0075236593 -0.0062933683
v -0.0049389792 0.0075236593 0.0062933683
v -0.0048217716 0.0125 -0.031331143
v -0.0048217716 0.015 -0.031331143
v -0.0047687404 -0.0172 -0.032148237
v -0.0047687404 -0.0172 0.032148237
v -0.0047687404 -0.016 -0.032148237
v -0.0047687404 -0.016 0.032148237
v -0.0047687404 0.016 -0.032148237
v -0.0047687404 0.016 0.032148237
v -0.0047687404 0.0172 -0.032148237
v -0.0047687404 0.0172 0.032148237
v -0.0044752795 -0.0172 -0.030169884
v -0.0044752795 -0.0172 0.030169884
v -0.0044752795 -0.016 -0.030169884
v -0.0044752795 -0.016 0.030169884
v -0.0044752795 0.016 -0.030169884
v -0.0044752795 0.016 0.030169884
v -0.0044752795 0.0172 -0.030169884
v -0.0044752795 0.0172 0.030169884
v -0.0039242486 0.0050236593 -0.0069713896
v -0.0039242486 0.0050236593 0.0069713896
v -0.0039242486 0.0075236593 -0.0069713896
v -0.0039242486 0.0075236593 0.0069713896
v -0.0031855571 -0.0172 -0.032343504
v -0.0031855571 -0.0172 0.032343504
v -0.0031855571 -0.016 -0.032343504
v -0.0031855571 -0.016 0.032343504
v -0.0031855571 0.016 -0.032343504
v -0.0031855571 0.016 0.032343504
v -0.0031855571 0.0172 -0.032343504
v -0.0031855571 0.0172 0.032343504
v -0.0029895228 -0.0172 -0.030353134
v -0.0029895228 -0.0172 0.030353134
v -0.0029895228 -0.016 -0.030353134
v -0.0029895228 -0.016 0.030353134
v -0.0029895228 0.016 -0.030353134
v -0.0029895228 0.016 0.030353134
v -0.0029895228 0.0172 -0.030353134
v -0.0029895228 0.0172 0.030353134
v -0.0021546541 0.0050236593 -0.0077043797
v -0.0021546541 0.0050236593 0.0077043797
v -0.0021546541 0.0075236593 -0.0077043797
v -0.0021546541 0.0075236593 0.0077043797
v -0.0015946994 -0.0172 -0.032460852
v -0.0015946994 -0.0172 0.032460852
v -0.0015946994 -0.016 -0.032460852
v -0.0015946994 -0.016 0.032460852
v -0.0015946994 0.016 -0.032460852
v -0.0015946994 0.016 0.032460852
v -0.0015946994 0.0172 -0.032460852
v -0.0015946994 0.0172 0.032460852
v -0.0014965641 -0.0172 -0.030463261
v -0.0014965641 -0.0172 0.030463261
v -0.0014965641 -0.016 -0.030463261
v -0.0014965641 -0.016 0.030463261
v -0.0014965641 0.016 -0.030463261
v -0.0014965641 0.016 0.030463261
v -0.0014965641 0.0172 -0.030463261
v -0.0014965641 0.0172 0.030463261
v -0.00095769766 0.0050236593 -0.0079424691
v -0.00095769766 0.0050236593 0.0079424691
v -0.00095769766 0.0075236593 -0.0079424691
v -0.00095769766 0.0075236593 0.0079424691
v -5.9701531e-18 -0.0172 -0.0325
v -5.9701531e-18 -0.016 -0.0325
v -5.9701531e-18 0.016 -0.0325
v -5.9701531e-18 0.0172 -0.0325
v -5.6027591e-18 -0.0172 -0.0305
v -5.6027591e-18 -0.016 -0.0305
v -5.6027591e-18 0.016 -0.0305
v -5.6027591e-18 0.0172 -0.0305
v 1.8675864e-18 -0.0172 0.0305
v 1.8675864e-18 -0.016 0.0305
v 1.8675864e-18 0.016 0.0305
v 1.8675864e-18 0.0172 0.0305
v 1.990051e-18 -0.0172 0.0325
v 1.990051e-18 -0.016 0.0325
v 1.990051e-18 0.016 0.0325
v 1.990051e-18 0.0172 0.0325
v 0.00095769766 0.0050236593 -0.0079424691
v 0.00095769766 0.0050236593 0.0079424691
v 0.00095769766 0.0075236593 -0.0079424691
v 0.00095769766 0.0075236593 0.0079424691
v 0.0014965641 -0.0172 -0.030463261
v 0.0014965641 -0.0172 0.030463261
v 0.0014965641 -0.016 -0.030463261
v 0.0014965641 -0.016 0.030463261
v 0.0014965641 0.016 -0.030463261
v 0.0014965641 0.016 0.030463261
v 0.0014965641 0.0172 -0.030463261
v 0.0014965641 0.0172 0.030463261
v 0.0015946994 -0.0172 -0.032460852
v 0.0015946994 -0.0172 0.032460852
v 0.0015946994 -0.016 -0.032460852
v 0.0015946994 -0.016 0.032460852
v 0.0015946994 0.016 -0.032460852
v 0.0015946994 0.016 0.032460852
v 0.0015946994 0.0172 -0.032460852
v 0.0015946994 0.0172 0.032460852
v 0.0021546541 0.0050236593 -0.0077043797
v 0.0021546541 0.0050236593 0.0077043797
v 0.0021546541 0.0075236593 -0.0077043797
v 0.0021546541 0.0075236593 0.0077043797
v 0.0029895228 -0.0172 -0.030353134
v 0.0029895228 -0.0172 0.030353134
v 0.0029895228 -0.016 -0.030353134
v 0.0029895228 -0.016 0.030353134
v 0.0029895228 0.016 -0.030353134
v 0.0029895228 0.016 0.030353134
v 0.0029895228 0.0172 -0.030353134
v 0.0029895228 0.0172 0.030353134
v 0.0031855571 -0.0172 -0.032343504
v 0.0031855571 -0.0172 0.032343504
v 0.0031855571 -0.016 -0.032343504
v 0.0031855571 -0.016 0.032343504
v 0.0031855571 0.016 -0.032343504
v 0.0031855571 0.016 0.032343504
v 0.0031855571 0.0172 -0.032343504
v 0.0031855571 0.0172 0.032343504
v 0.0039242486 0.0050236593 -0.0069713896
v 0.0039242486 0.0050236593 0.0069713896
v 0.0039242486 0.0075236593 -0.0069713896
v 0.0039242486 0.0075236593 0.0069713896
v 0.0044752795 -0.0172 -0.030169884
v 0.0044752795 -0.0172 0.030169884
v 0.0044752795 -0.016 -0.030169884
v 0.0044752795 -0.016 0.030169884
v 0.0044752795 0.016 -0.030169884
v 0.0044752795 0.016 0.030169884
v 0.0044752795 0.0172 -0.030169884
v 0.0044752795 0.0172 0.030169884
v 0.0047687404 -0.0172 -0.032148237
v 0.0047687404 -0.0172 0.032148237
v 0.0047687404 -0.016 -0.032148237
v 0.0047687404 -0.016 0.032148237
v 0.0047687404 0.016 -0.032148237
v 0.0047687404 0.016 0.032148237
v 0.0047687404 0.0172 -0.032148237
v 0.0047687404 0.0172 0.032148237
v 0.0048217716 0.0125 0.031331143
v 0.0048217716 0.015 0.031331143
v 0.0049389792 0.0050236593 -0.0062933683
v 0.0049389792 0.0050236593 0.0062933683
v 0.0049389792 0.0075236593 -0.0062933683
v 0.0049389792 0.0075236593 0.0062933683
v 0.0053630805 0.0125 -0.031243037
v 0.0053630805 0.015 -0.031243037
v 0.0059502548 -0.0172 -0.029913951
v 0.0059502548 -0.0172 0.029913951
v 0.0059502548 -0.016 -0.029913951
v 0.0059502548 -0.016 0.029913951
v 0.0059502548 0.016 -0.029913951
v 0.0059502548 0.016 0.029913951
v 0.0059502548 0.0172 -0.029913951
v 0.0059502548 0.0172 0.029913951
v 0.0062933683 0.0050236593 -0.0049389792
v 0.0062933683 0.0050236593 0.0049389792
v 0.0062933683 0.0075236593 -0.0049389792
v 0.0062933683 0.0075236593 0.0049389792
v 0.0063404355 -0.0172 -0.031875522
v 0.0063404355 -0.0172 0.031875522
v 0.0063404355 -0.016 -0.031875522
v 0.0063404355 -0.016 0.031875522
v 0.0063404355 0.016 -0.031875522
v 0.0063404355 0.016 0.031875522
v 0.0063404355 0.0172 -0.031875522
v 0.0063404355 0.0172 0.031875522
v 0.0069713896 0.0050236593 -0.0039242486
v 0.0069713896 0.0050236593 0.0039242486
v 0.0069713896 0.0075236593 -0.0039242486
v 0.0069713896 0.0075236593 0.0039242486
v 0.0070013524 0.0125 0.030917165
v 0.0070013524 0.015 0.030917165
v 0.0074108955 -0.0172 -0.029585953
v 0.0074108955 -0.0172 0.029585953
v 0.0074108955 -0.016 -0.029585953
v 0.0074108955 -0.016 0.029585953
v 0.0074108955 0.016 -0.029585953
v 0.0074108955 0.016 0.029585953
v 0.0074108955 0.0172 -0.029585953
v 0.0074108955 0.0172 0.029585953
v 0.0075351733 0.0125 -0.030791414
v 0.0075351733 0.015 -0.030791414
v 0.0077043797 0.0050236593 -0.0021546541
v 0.0077043797 0.0050236593 0.0021546541
v 0.0077043797 0.0075236593 -0.0021546541
v 0.0077043797 0.0075236593 0.0021546541
v 0.0078968558 -0.0172 -0.031526016
v 0.0078968558 -0.0172 0.031526016
v 0.0078968558 -0.016 -0.031526016
v 0.0078968558 -0.016 0.031526016
v 0.0078968558 0.016 -0.031526016
v 0.0078968558 0.016 0.031526016
v 0.0078968558 0.0172 -0.031526016
v 0.0078968558 0.0172 0.031526016
v 0.0079424691 0.0050236593 -0.00095769766
v 0.0079424691 0.0050236593 0.00095769766
v 0.0079424691 0.0075236593 -0.00095769766
v 0.0079424691 0.0075236593 0.00095769766
v 0.0088536827 -0.0172 -0.02918668
v 0.0088536827 -0.0172 0.02918668
v 0.0088536827 -0.016 -0.02918668
v 0.0088536827 -0.016 0.02918668
v 0.0088536827 0.016 -0.02918668
v 0.0088536827 0.016 0.02918668
v 0.0088536827 0.0172 -0.02918668
v 0.0088536827 0.0172 0.02918668
v 0.009434252 -0.0172 -0.031100561
v 0.009434252 -0.0172 0.031100561
v 0.009434252 -0.016 -0.031100561
v 0.009434252 -0.016 0.031100561
v 0.009434252 0.016 -0.031100561
v 0.009434252 0.016 0.031100561
v 0.009434252 0.0172 -0.031100561
v 0.009434252 0.0172 0.031100561
v 0.010275141 -0.0172 -0.028717094
v 0.010275141 -0.0172 0.028717094
v 0.010275141 -0.016 -0.028717094
v 0.010275141 -0.016 0.028717094
v 0.010275141 0.016 -0.028717094
v 0.010275141 0.016 0.028717094
v 0.010275141 0.0172 -0.028717094
v 0.010275141 0.0172 0.028717094
v 0.01094892 -0.0172 -0.030600182
v 0.01094892 -0.0172 0.030600182
v 0.01094892 -0.016 -0.030600182
v 0.01094892 -0.016 0.030600182
v 0.01094892 0.016 -0.030600182
v 0.01094892 0.016 0.030600182
v 0.01094892 0.0172 -0.030600182
v 0.01094892 0.0172 0.030600182
v 0.011671845 -0.0172 -0.028178326
v 0.011671845 -0.0172 0.028178326
v 0.011671845 -0.016 -0.028178326
v 0.011671845 -0.016 0.028178326
v 0.011671845 0.016 -0.028178326
v 0.011671845 0.016 0.028178326
v 0.011671845 0.0172 -0.028178326
v 0.011671845 0.0172 0.028178326
v 0.012437212 -0.0172 -0.030026085
v 0.012437212 -0.0172 0.030026085
v 0.012437212 -0.016 -0.030026085
v 0.012437212 -0.016 0.030026085
v 0.012437212 0.016 -0.030026085
v 0.012437212 0.016 0.030026085
v 0.012437212 0.0172 -0.030026085
v 0.012437212 0.0172 0.030026085
v 0.01304043 -0.0172 -0.027571673
v 0.01304043 -0.0172 0.027571673
v 0.01304043 -0.016 -0.027571673
v 0.01304043 -0.016 0.027571673
v 0.01304043 0.016 -0.027571673
v 0.01304043 0.016 0.027571673
v 0.01304043 0.0172 -0.027571673
v 0.01304043 0.0172 0.027571673
v 0.013895541 -0.0172 -0.029379652
v 0.013895541 -0.0172 0.029379652
v 0.013895541 -0.016 -0.029379652
v 0.013895541 -0.016 0.029379652
v 0.013895541 0.016 -0.029379652
v 0.013895541 0.016 0.029379652
v 0.013895541 0.0172 -0.029379652
v 0.013895541 0.0172 0.029379652
v 0.0143776 -0.0172 -0.026898599
v 0.0143776 -0.0172 0.026898599
v 0.0143776 -0.016 -0.026898599
v 0.0143776 -0.016 0.026898599
v 0.0143776 0.016 -0.026898599
v 0.0143776 0.016 0.026898599
v 0.0143776 0.0172 -0.026898599
v 0.0143776 0.0172 0.026898599
v 0.015320394 -0.0172 -0.028662441
v 0.015320394 -0.0172 0.028662441
v 0.015320394 -0.016 -0.028662441
v 0.015320394 -0.016 0.028662441
v 0.015320394 0.016 -0.028662441
v 0.015320394 0.016 0.028662441
v 0.015320394 0.0172 -0.028662441
v 0.015320394 0.0172 0.028662441
v 0.015680134 -0.0172 -0.026160723
v 0.015680134 -0.0172 0.026160723
v 0.015680134 -0.016 -0.026160723
v 0.015680134 -0.016 0.026160723
v 0.015680134 0.016 -0.026160723
v 0.015680134 0.016 0.026160723
v 0.015680134 0.0172 -0.026160723
v 0.015680134 0.0172 0.026160723
v 0.016444645 0.0125 0.02710099
v 0.016444645 0.015 0.02710099
v 0.016708339 -0.0172 -0.02787618
v 0.016708339 -0.0172 0.02787618
v 0.016708339 -0.016 -0.02787618
v 0.016708339 -0.016 0.02787618
v 0.016708339 0.016 -0.02787618
v 0.016708339 0.016 0.02787618
v 0.016708339 0.0172 -0.02787618
v 0.016708339 0.0172 0.02787618
v 0.016911033 0.0125 -0.02681244
v 0.016911033 0.015 -0.02681244
v 0.016944892 -0.0172 -0.025359823
v 0.016944892 -0.0172 0.025359823
v 0.016944892 -0.016 -0.025359823
v 0.016944892 -0.016 0.025359823
v 0.016944892 0.016 -0.025359823
v 0.016944892 0.016 0.025359823
v 0.016944892 0.0172 -0.025359823
v 0.016944892 0.0172 0.025359823
v 0.018056033 -0.0172 -0.027022762
v 0.018056033 -0.0172 0.027022762
v 0.018056033 -0.016 -0.027022762
v 0.018056033 -0.016 0.027022762
v 0.018056033 0.016 -0.027022762
v 0.018056033 0.016 0.027022762
v 0.018056033 0.0172 -0.027022762
v 0.018056033 0.0172 0.027022762
v 0.018168829 -0.0172 -0.02449783
v 0.018168829 -0.0172 0.02449783
v 0.018168829 -0.016 -0.02449783
v 0.018168829 -0.016 0.02449783
v 0.018168829 0.016 -0.02449783
v 0.018168829 0.016 0.02449783
v 0.018168829 0.0172 -0.02449783
v 0.018168829 0.0172 0.02449783
v 0.018299893 0.0125 0.025884434
v 0.018299893 0.015 0.025884434
v 0.018744956 0.0125 -0.025563971
v 0.018744956 0.015 -0.025563971
v 0.019348995 -0.0172 -0.023576819
v 0.019348995 -0.0172 0.023576819
v 0.019348995 -0.016 -0.023576819
v 0.019348995 -0.016 0.023576819
v 0.019348995 0.016 -0.023576819
v 0.019348995 0.016 0.023576819
v 0.019348995 0.0172 -0.023576819
v 0.019348995 0.0172 0.023576819
v 0.019360227 -0.0172 -0.026104245
v 0.019360227 -0.0172 0.026104245
v 0.019360227 -0.016 -0.026104245
v 0.019360227 -0.016 0.026104245
v 0.019360227 0.016 -0.026104245
v 0.019360227 0.016 0.026104245
v 0.019360227 0.0172 -0.026104245
v 0.019360227 0.0172 0.026104245
v 0.020482548 -0.0172 -0.022599009
v 0.020482548 -0.0172 0.022599009
v 0.020482548 -0.016 -0.022599009
v 0.020482548 -0.016 0.022599009
v 0.020482548 0.016 -0.022599009
v 0.020482548 0.016 0.022599009
v 0.020482548 0.0172 -0.022599009
v 0.020482548 0.0172 0.022599009
v 0.020617782 -0.0172 -0.02512284
v 0.020617782 -0.0172 0.02512284
v 0.020617782 -0.016 -0.02512284
v 0.020617782 -0.016 0.02512284
v 0.020617782 0.016 -0.02512284
v 0.020617782 0.016 0.02512284
v 0.020617782 0.0172 -0.02512284
v 0.020617782 0.0172 0.02512284
v 0.021566757 -0.0172 -0.021566757
v 0.021566757 -0.0172 0.021566757
v 0.021566757 -0.016 -0.021566757
v 0.021566757 -0.016 0.021566757
v 0.021566757 0.016 -0.021566757
v 0.021566757 0.016 0.021566757
v 0.021566757 0.0172 -0.021566757
v 0.021566757 0.0172 0.021566757
v 0.021825666 -0.0172 -0.024080912
v 0.021825666 -0.0172 0.024080912
v 0.021825666 -0.016 -0.024080912
v 0.021825666 -0.016 0.024080912
v 0.021825666 0.016 -0.024080912
v 0.021825666 0.016 0.024080912
v 0.021825666 0.0172 -0.024080912
v 0.021825666 0.0172 0.024080912
v 0.022599009 -0.0172 -0.020482548
v 0.022599009 -0.0172 0.020482548
v 0.022599009 -0.016 -0.020482548
v 0.022599009 -0.016 0.020482548
v 0.022599009 0.016 -0.020482548
v 0.022599009 0.016 0.020482548
v 0.022599009 0.0172 -0.020482548
v 0.022599009 0.0172 0.020482548
v 0.02298097 -0.0172 -0.02298097
v 0.02298097 -0.0172 0.02298097
v 0.02298097 -0.016 -0.02298097
v 0.02298097 -0.016 0.02298097
v 0.02298097 0.016 -0.02298097
v 0.02298097 0.016 0.02298097
v 0.02298097 0.0172 -0.02298097
v 0.02298097 0.0172 0.02298097
v 0.023576819 -0.0172 -0.019348995
v 0.023576819 -0.0172 0.019348995
v 0.023576819 -0.016 -0.019348995
v 0.023576819 -0.016 0.019348995
v 0.023576819 0.016 -0.019348995
v 0.023576819 0.016 0.019348995
v 0.023576819 0.0172 -0.019348995
v 0.023576819 0.0172 0.019348995
v 0.024080912 -0.0172 -0.021825666
v 0.024080912 -0.0172 0.021825666
v 0.024080912 -0.016 -0.021825666
v 0.024080912 -0.016 0.021825666
v 0.024080912 0.016 -0.021825666
v 0.024080912 0.016 0.021825666
v 0.024080912 0.0172 -0.021825666
v 0.024080912 0.0172 0.021825666
v 0.02449783 -0.0172 -0.018168829
v 0.02449783 -0.0172 0.018168829
v 0.02449783 -0.016 -0.018168829
v 0.02449783 -0.016 0.018168829
v 0.02449783 0.016 -0.018168829
v 0.02449783 0.016 0.018168829
v 0.02449783 0.0172 -0.018168829
v 0.02449783 0.0172 0.018168829
v 0.02512284 -0.0172 -0.020617782
v 0.02512284 -0.0172 0.020617782
v 0.02512284 -0.016 -0.020617782
v 0.02512284 -0.016 0.020617782
v 0.02512284 0.016 -0.020617782
v 0.02512284 0.016 0.020617782
v 0.02512284 0.0172 -0.020617782
v 0.02512284 0.0172 0.020617782
v 0.025359823 -0.0172 -0.016944892
v 0.025359823 -0.0172 0.016944892
v 0.025359823 -0.016 -0.016944892
v 0.025359823 -0.016 0.016944892
v 0.025359823 0.016 -0.016944892
v 0.025359823 0.016 0.016944892
v 0.025359823 0.0172 -0.016944892
v 0.025359823 0.0172 0.016944892
v 0.025563971 0.0125 0.018744956
v 0.025563971 0.015 0.018744956
v 0.025884434 0.0125 -0.018299893
v 0.025884434 0.015 -0.018299893
v 0.026104245 -0.0172 -0.019360227
v 0.026104245 -0.0172 0.019360227
v 0.026104245 -0.016 -0.019360227
v 0.026104245 -0.016 0.019360227
v 0.026104245 0.016 -0.019360227
v 0.026104245 0.016 0.019360227
v 0.026104245 0.0172 -0.019360227
v 0.026104245 0.0172 0.019360227
v 0.026160723 -0.0172 -0.015680134
v 0.026160723 -0.0172 0.015680134
v 0.026160723 -0.016 -0.015680134
v 0.026160723 -0.016 0.015680134
v 0.026160723 0.016 -0.015680134
v 0.026160723 0.016 0.015680134
v 0.026160723 0.0172 -0.015680134
v 0.026160723 0.0172 0.015680134
v 0.02681244 0.0125 0.016911033
v 0.02681244 0.015 0.016911033
v 0.026898599 -0.0172 -0.0143776
v 0.026898599 -0.0172 0.0143776
v 0.026898599 -0.016 -0.0143776
v 0.026898599 -0.016 0.0143776
v 0.026898599 0.016 -0.0143776
v 0.026898599 0.016 0.0143776
v 0.026898599 0.0172 -0.0143776
v 0.026898599 0.0172 0.0143776
v 0.027022762 -0.0172 -0.018056033
v 0.027022762 -0.0172 0.018056033
v 0.027022762 -0.016 -0.018056033
v 0.027022762 -0.016 0.018056033
v 0.027022762 0.016 -0.018056033
v 0.027022762 0.016 0.018056033
v 0.027022762 0.0172 -0.018056033
v 0.027022762 0.0172 0.018056033
v 0.02710099 0.0125 -0.016444645
v 0.02710099 0.015 -0.016444645
v 0.027571673 -0.0172 -0.01304043
v 0.027571673 -0.0172 0.01304043
v 0.027571673 -0.016 -0.01304043
v 0.027571673 -0.016 0.01304043
v 0.027571673 0.016 -0.01304043
v 0.027571673 0.016 0.01304043
v 0.027571673 0.0172 -0.01304043
v 0.027571673 0.0172 0.01304043
v 0.02787618 -0.0172 -0.016708339
v 0.02787618 -0.0172 0.016708339
v 0.02787618 -0.016 -0.016708339
v 0.02787618 -0.016 0.016708339
v 0.02787618 0.016 -0.016708339
v 0.02787618 0.016 0.016708339
v 0.02787618 0.0172 -0.016708339
v 0.02787618 0.0172 0.016708339
v 0.028178326 -0.0172 -0.011671845
v 0.028178326 -0.0172 0.011671845
v 0.028178326 -0.016 -0.011671845
v 0.028178326 -0.016 0.011671845
v 0.028178326 0.016 -0.011671845
v 0.028178326 0.016 0.011671845
v 0.028178326 0.0172 -0.011671845
v 0.028178326 0.0172 0.011671845
v 0.028662441 -0.0172 -0.015320394
v 0.028662441 -0.0172 0.015320394
v 0.028662441 -0.016 -0.015320394
v 0.028662441 -0.016 0.015320394
v 0.028662441 0.016 -0.015320394
v 0.028662441 0.016 0.015320394
v 0.028662441 0.0172 -0.015320394
v 0.028662441 0.0172 0.015320394
v 0.028717094 -0.0172 -0.010275141
v 0.028717094 -0.0172 0.010275141
v 0.028717094 -0.016 -0.010275141
v 0.028717094 -0.016 0.010275141
v 0.028717094 0.016 -0.010275141
v 0.028717094 0.016 0.010275141
v 0.028717094 0.0172 -0.010275141
v 0.028717094 0.0172 0.010275141
v 0.02918668 -0.0172 -0.0088536827
v 0.02918668 -0.0172 0.0088536827
v 0.02918668 -0.016 -0.0088536827
v 0.02918668 -0.016 0.0088536827
v 0.02918668 0.016 -0.0088536827
v 0.02918668 0.016 0.0088536827
v 0.02918668 0.0172 -0.0088536827
v 0.02918668 0.0172 0.0088536827
v 0.029379652 -0.0172 -0.013895541
v 0.029379652 -0.0172 0.013895541
v 0.029379652 -0.016 -0.013895541
v 0.029379652 -0.016 0.013895541
v 0.029379652 0.016 -0.013895541
v 0.029379652 0.016 0.013895541
v 0.029379652 0.0172 -0.013895541
v 0.029379652 0.0172 0.013895541
v 0.029585953 -0.0172 -0.0074108955
v 0.029585953 -0.0172 0.0074108955
v 0.029585953 -0.016 -0.0074108955
v 0.029585953 -0.016 0.0074108955
v 0.029585953 0.016 -0.0074108955
v 0.029585953 0.016 0.0074108955
v 0.029585953 0.0172 -0.0074108955
v 0.029585953 0.0172 0.0074108955
v 0.029913951 -0.0172 -0.0059502548
v 0.029913951 -0.0172 0.0059502548
v 0.029913951 -0.016 -0.0059502548
v 0.029913951 -0.016 0.0059502548
v 0.029913951 0.016 -0.0059502548
v 0.029913951 0.016 0.0059502548
v 0.029913951 0.0172 -0.0059502548
v 0.029913951 0.0172 0.0059502548
v 0.030026085 -0.0172 -0.012437212
v 0.030026085 -0.0172 0.012437212
v 0.030026085 -0.016 -0.012437212
v 0.030026085 -0.016 0.012437212
v 0.030026085 0.016 -0.012437212
v 0.030026085 0.016 0.012437212
v 0.030026085 0.0172 -0.012437212
v 0.030026085 0.0172 0.012437212
v 0.030169884 -0.0172 -0.0044752795
v 0.030169884 -0.0172 0.0044752795
v 0.030169884 -0.016 -0.0044752795
v 0.030169884 -0.016 0.0044752795
v 0.030169884 0.016 -0.0044752795
v 0.030169884 0.016 0.0044752795
v 0.030169884 0.0172 -0.0044752795
v 0.030169884 0.0172 0.0044752795
v 0.030353134 -0.0172 -0.0029895228
v 0.030353134 -0.0172 0.0029895228
v 0.030353134 -0.016 -0.0029895228
v 0.030353134 -0.016 0.0029895228
v 0.030353134 0.016 -0.0029895228
v 0.030353134 0.016 0.0029895228
v 0.030353134 0.0172 -0.0029895228
v 0.030353134 0.0172 0.0029895228
v 0.030463261 -0.0172 -0.0014965641
v 0.030463261 -0.0172 0.0014965641
v 0.030463261 -0.016 -0.0014965641
v 0.030463261 -0.016 0.0014965641
v 0.030463261 0.016 -0.0014965641
v 0.030463261 0.016 0.0014965641
v 0.030463261 0.0172 -0.0014965641
v 0.030463261 0.0172 0.0014965641
v 0.0305 -0.0172 -7.4703455e-18
v 0.0305 -0.0172 0
v 0.0305 -0.016 -7.4703455e-18
v 0.0305 -0.016 0
v 0.0305 0.016 -7.4703455e-18
v 0.0305 0.016 0
v 0.0305 0.0172 -7.4703455e-18
v 0.0305 0.0172 0
v 0.030600182 -0.0172 -0.01094892
v 0.030600182 -0.0172 0.01094892
v 0.030600182 -0.016 -0.01094892
v 0.030600182 -0.016 0.01094892
v 0.030600182 0.016 -0.01094892
v 0.030600182 0.016 0.01094892
v 0.030600182 0.0172 -0.01094892
v 0.030600182 0.0172 0.01094892
v 0.030791414 0.0125 0.0075351733
v 0.030791414 0.015 0.0075351733
v 0.030917165 0.0125 -0.0070013524
v 0.030917165 0.015 -0.0070013524
v 0.031100561 -0.0172 -0.009434252
v 0.031100561 -0.0172 0.009434252
v 0.031100561 -0.016 -0.009434252
v 0.031100561 -0.016 0.009434252
v 0.031100561 0.016 -0.009434252
v 0.031100561 0.016 0.009434252
v 0.031100561 0.0172 -0.009434252
v 0.031100561 0.0172 0.009434252
v 0.031243037 0.0125 0.0053630805
v 0.031243037 0.015 0.0053630805
v 0.031331143 0.0125 -0.0048217716
v 0.031331143 0.015 -0.0048217716
v 0.031526016 -0.0172 -0.0078968558
v 0.031526016 -0.0172 0.0078968558
v 0.031526016 -0.016 -0.0078968558
v 0.031526016 -0.016 0.0078968558
v 0.031526016 0.016 -0.0078968558
v 0.031526016 0.016 0.0078968558
v 0.031526016 0.0172 -0.0078968558
v 0.031526016 0.0172 0.0078968558
v 0.031875522 -0.0172 -0.0063404355
v 0.031875522 -0.0172 0.0063404355
v 0.031875522 -0.016 -0.0063404355
v 0.031875522 -0.016 0.0063404355
v 0.031875522 0.016 -0.0063404355
v 0.031875522 0.016 0.0063404355
v 0.031875522 0.0172 -0.0063404355
v 0.031875522 0.0172 0.0063404355
v 0.032148237 -0.0172 -0.0047687404
v 0.032148237 -0.0172 0.0047687404
v 0.032148237 -0.016 -0.0047687404
v 0.032148237 -0.016 0.0047687404
v 0.032148237 0.016 -0.0047687404
v 0.032148237 0.016 0.0047687404
v 0.032148237 0.0172 -0.0047687404
v 0.032148237 0.0172 0.0047687404
v 0.032343504 -0.0172 -0.0031855571
v 0.032343504 -0.0172 0.0031855571
v 0.032343504 -0.016 -0.0031855571
v 0.032343504 -0.016 0.0031855571
v 0.032343504 0.016 -0.0031855571
v 0.032343504 0.016 0.0031855571
v 0.032343504 0.0172 -0.0031855571
v 0.032343504 0.0172 0.0031855571
v 0.032460852 -0.0172 -0.0015946994
v 0.032460852 -0.0172 0.0015946994
v 0.032460852 -0.016 -0.0015946994
v 0.032460852 -0.016 0.0015946994
v 0.032460852 0.016 -0.0015946994
v 0.032460852 0.016 0.0015946994
v 0.032460852 0.0172 -0.0015946994
v 0.032460852 0.0172 0.0015946994
v 0.0325 -0.0172 -7.9602042e-18
v 0.0325 -0.0172 0
v 0.0325 -0.016 -7.9602042e-18
v 0.0325 -0.016 0
v 0.0325 0.016 -7.9602042e-18
v 0.0325 0.016 0
v 0.0325 0.0172 -7.9602042e-18
v 0.0325 0.0172 0
f 1082 1154 1146
f 1082 1146 1074
f 1154 1156 1148
f 1154 1148 1146
f 1156 1084 1076
f 1156 1076 1148
f 1084 1082 1074
f 1084 1074 1076
f 1074 1146 1138
f 1074 1138 1066
f 1146 1148 1140
f 1146 1140 1138
f 1148 1076 1068
f 1148 1068 1140
f 1076 1074 1066
f 1076 1066 1068
f 1066 1138 1130
f 1066 1130 1058
f 1138 1140 1132
f 1138 1132 1130
f 1140 1068 1060
f 1140 1060 1132
f 1068 1066 1058
f 1068 1058 1060
f 1058 1130 1122
f 1058 1122 1042
f 1130 1132 1124
f 1130 1124 1122
f 1132 1060 1044
f 1132 1044 1124
f 1060 1058 1042
f 1060 1042 1044
f 1042 1122 1114
f 1042 1114 1034
f 1122 1124 1116
f 1122 1116 1114
f 1124 1044 1036
f 1124 1036 1116
f 1044 1042 1034
f 1044 1034 1036
f 1034 1114 1102
f 1034 1102 1018
f 1114 1116 1104
f 1114 1104 1102
f 1116 1036 1020
f 1116 1020 1104
f 1036 1034 1018
f 1036 1018 1020
f 1018 1102 1090
f 1018 1090 1010
f 1102 1104 1092
f 1102 1092 1090
f 1104 1020 1012
f 1104 1012 1092
f 1020 1018 1010
f 1020 1010 1012
f 1010 1090 1050
f 1010 1050 994
f 1090 1092 1052
f 1090 1052 1050
f 1092 1012 996
f 1092 996 1052
f 1012 1010 994
f 1012 994 996
f 994 1050 1026
f 994 1026 978
f 1050 1052 1028
f 1050 1028 1026
f 1052 996 980
f 1052 980 1028
f 996 994 978
f 996 978 980
f 978 1026 1002
f 978 1002 960
f 1026 1028 1004
f 1026 1004 1002
f 1028 980 962
f 1028 962 1004
f 980 978 960
f 980 960 962
f 960 1002 986
f 960 986 950
f 1002 1004 988
f 1002 988 986
f 1004 962 952
f 1004 952 988
f 962 960 950
f 962 950 952
f 950 986 968
f 950 968 930
f 986 988 970
f 986 970 968
f 988 952 932
f 988 932 970
f 952 950 930
f 952 930 932
f 930 968 942
f 930 942 914
f 968 970 944
f 968 944 942
f 970 932 916
f 970 916 944
f 932 930 914
f 932 914 916
f 914 942 922
f 914 922 898
f 942 944 924
f 942 924 922
f 944 916 900
f 944 900 924
f 916 914 898
f 916 898 900
f 898 922 906
f 898 906 882
f 922 924 908
f 922 908 906
f 924 900 884
f 924 884 908
f 900 898 882
f 900 882 884
f 882 906 890
f 882 890 866
f 906 908 892
f 906 892 890
f 908 884 868
f 908 868 892
f 884 882 866
f 884 866 868
f 866 890 874
f 866 874 850
f 890 892 876
f 890 876 874
f 892 868 852
f 892 852 876
f 868 866 850
f 868 850 852
f 850 874 858
f 850 858 834
f 874 876 860
f 874 860 858
f 876 852 836
f 876 836 860
f 852 850 834
f 852 834 836
f 834 858 842
f 834 842 822
f 858 860 844
f 858 844 842
f 860 836 824
f 860 824 844
f 836 834 822
f 836 822 824
f 822 842 814
f 822 814 806
f 842 844 816
f 842 816 814
f 844 824 808
f 844 808 816
f 824 822 806
f 824 806 808
f 806 814 796
f 806 796 786
f 814 816 798
f 814 798 796
f 816 808 788
f 816 788 798
f 808 806 786
f 808 786 788
f 786 796 778
f 786 778 770
f 796 798 780
f 796 780 778
f 798 788 772
f 798 772 780
f 788 786 770
f 788 770 772
f 770 778 762
f 770 762 754
f 778 780 764
f 778 764 762
f 780 772 756
f 780 756 764
f 772 770 754
f 772 754 756
f 754 762 746
f 754 746 738
f 762 764 748
f 762 748 746
f 764 756 740
f 764 740 748
f 756 754 738
f 756 738 740
f 738 746 730
f 738 730 722
f 746 748 732
f 746 732 730
f 748 740 724
f 748 724 732
f 740 738 722
f 740 722 724
f 722 730 714
f 722 714 706
f 730 732 716
f 730 716 714
f 732 724 708
f 732 708 716
f 724 722 706
f 724 706 708
f 706 714 694
f 706 694 680
f 714 716 696
f 714 696 694
f 716 708 682
f 716 682 696
f 708 706 680
f 708 680 682
f 680 694 666
f 680 666 654
f 694 696 668
f 694 668 666
f 696 682 656
f 696 656 668
f 682 680 654
f 682 654 656
f 654 666 638
f 654 638 630
f 666 668 640
f 666 640 638
f 668 656 632
f 668 632 640
f 656 654 630
f 656 630 632
f 630 638 618
f 630 618 610
f 638 640 620
f 638 620 618
f 640 632 612
f 640 612 620
f 632 630 610
f 632 610 612
f 610 618 598
f 610 598 590
f 618 620 600
f 618 600 598
f 620 612 592
f 620 592 600
f 612 610 590
f 612 590 592
f 590 598 581
f 590 581 577
f 598 600 582
f 598 582 581
f 600 592 578
f 600 578 582
f 592 590 577
f 592 577 578
f 577 581 550
f 577 550 558
f 581 582 552
f 581 552 550
f 582 578 560
f 582 560 552
f 578 577 558
f 578 558 560
f 558 550 530
f 558 530 538
f 550 552 532
f 550 532 530
f 552 560 540
f 552 540 532
f 560 558 538
f 560 538 540
f 538 530 510
f 538 510 518
f 530 532 512
f 530 512 510
f 532 540 520
f 532 520 512
f 540 538 518
f 540 518 520
f 518 510 482
f 518 482 494
f 510 512 484
f 510 484 482
f 512 520 496
f 512 496 484
f 520 518 494
f 520 494 496
f 494 482 454
f 494 454 468
f 482 484 456
f 482 456 454
f 484 496 470
f 484 470 456
f 496 494 468
f 496 468 470
f 468 454 434
f 468 434 442
f 454 456 436
f 454 436 434
f 456 470 444
f 456 444 436
f 470 468 442
f 470 442 444
f 442 434 418
f 442 418 426
f 434 436 420
f 434 420 418
f 436 444 428
f 436 428 420
f 444 442 426
f 444 426 428
f 426 418 402
f 426 402 410
f 418 420 404
f 418 404 402
f 420 428 412
f 420 412 404
f 428 426 410
f 428 410 412
f 410 402 386
f 410 386 394
f 402 404 388
f 402 388 386
f 404 412 396
f 404 396 388
f 412 410 394
f 412 394 396
f 394 386 370
f 394 370 378
f 386 388 372
f 386 372 370
f 388 396 380
f 388 380 372
f 396 394 378
f 396 378 380
f 378 370 352
f 378 352 362
f 370 372 354
f 370 354 352
f 372 380 364
f 372 364 354
f 380 378 362
f 380 362 364
f 362 352 334
f 362 334 342
f 352 354 336
f 352 336 334
f 354 364 344
f 354 344 336
f 364 362 342
f 364 342 344
f 342 334 306
f 342 306 326
f 334 336 308
f 334 308 306
f 336 344 328
f 336 328 308
f 344 342 326
f 344 326 328
f 326 306 290
f 326 290 314
f 306 308 292
f 306 292 290
f 308 328 316
f 308 316 292
f 328 326 314
f 328 314 316
f 314 290 274
f 314 274 298
f 290 292 276
f 290 276 274
f 292 316 300
f 292 300 276
f 316 314 298
f 316 298 300
f 298 274 258
f 298 258 282
f 274 276 260
f 274 260 258
f 276 300 284
f 276 284 260
f 300 298 282
f 300 282 284
f 282 258 242
f 282 242 266
f 258 260 244
f 258 244 242
f 260 284 268
f 260 268 244
f 284 282 266
f 284 266 268
f 266 242 226
f 266 226 250
f 242 244 228
f 242 228 226
f 244 268 252
f 244 252 228
f 268 266 250
f 268 250 252
f 250 226 206
f 250 206 234
f 226 228 208
f 226 208 206
f 228 252 236
f 228 236 208
f 252 250 234
f 252 234 236
f 234 206 180
f 234 180 218
f 206 208 182
f 206 182 180
f 208 236 220
f 208 220 182
f 236 234 218
f 236 218 220
f 218 180 162
f 218 162 198
f 180 182 164
f 180 164 162
f 182 220 200
f 182 200 164
f 220 218 198
f 220 198 200
f 198 162 146
f 198 146 188
f 162 164 148
f 162 148 146
f 164 200 190
f 164 190 148
f 200 198 188
f 200 188 190
f 188 146 122
f 188 122 170
f 146 148 124
f 146 124 122
f 148 190 172
f 148 172 124
f 190 188 170
f 190 170 172
f 170 122 98
f 170 98 154
f 122 124 100
f 122 100 98
f 124 172 156
f 124 156 100
f 172 170 154
f 172 154 156
f 154 98 62
f 154 62 138
f 98 100 64
f 98 64 62
f 100 156 140
f 100 140 64
f 156 154 138
f 156 138 140
f 138 62 50
f 138 50 130
f 62 64 52
f 62 52 50
f 64 140 132
f 64 132 52
f 140 138 130
f 140 130 132
f 130 50 38
f 130 38 114
f 50 52 40
f 50 40 38
f 52 132 116
f 52 116 40
f 132 130 114
f 132 114 116
f 114 38 30
f 114 30 106
f 38 40 32
f 38 32 30
f 40 116 108
f 40 108 32
f 116 114 106
f 116 106 108
f 106 30 22
f 106 22 90
f 30 32 24
f 30 24 22
f 32 108 92
f 32 92 24
f 108 106 90
f 108 90 92
f 90 22 14
f 90 14 82
f 22 24 16
f 22 16 14
f 24 92 84
f 24 84 16
f 92 90 82
f 92 82 84
f 82 14 6
f 82 6 74
f 14 16 8
f 14 8 6
f 16 84 76
f 16 76 8
f 84 82 74
f 84 74 76
f 74 6 1
f 74 1 69
f 6 8 2
f 6 2 1
f 8 76 70
f 8 70 2
f 76 74 69
f 76 69 70
f 69 1 5
f 69 5 73
f 1 2 7
f 1 7 5
f 2 70 75
f 2 75 7
f 70 69 73
f 70 73 75
f 73 5 13
f 73 13 81
f 5 7 15
f 5 15 13
f 7 75 83
f 7 83 15
f 75 73 81
f 75 81 83
f 81 13 21
f 81 21 89
f 13 15 23
f 13 23 21
f 15 83 91
f 15 91 23
f 83 81 89
f 83 89 91
f 89 21 29
f 89 29 105
f 21 23 31
f 21 31 29
f 23 91 107
f 23 107 31
f 91 89 105
f 91 105 107
f 105 29 37
f 105 37 113
f 29 31 39
f 29 39 37
f 31 107 115
f 31 115 39
f 107 105 113
f 107 113 115
f 113 37 49
f 113 49 129
f 37 39 51
f 37 51 49
f 39 115 131
f 39 131 51
f 115 113 129
f 115 129 131
f 129 49 61
f 129 61 137
f 49 51 63
f 49 63 61
f 51 131 139
f 51 139 63
f 131 129 137
f 131 137 139
f 137 61 97
f 137 97 153
f 61 63 99
f 61 99 97
f 63 139 155
f 63 155 99
f 139 137 153
f 139 153 155
f 153 97 121
f 153 121 169
f 97 99 123
f 97 123 121
f 99 155 171
f 99 171 123
f 155 153 169
f 155 169 171
f 169 121 145
f 169 145 187
f 121 123 147
f 121 147 145
f 123 171 189
f 123 189 147
f 171 169 187
f 171 187 189
f 187 145 161
f 187 161 197
f 145 147 163
f 145 163 161
f 147 189 199
f 147 199 163
f 189 187 197
f 189 197 199
f 197 161 179
f 197 179 217
f 161 163 181
f 161 181 179
f 163 199 219
f 163 219 181
f 199 197 217
f 199 217 219
f 217 179 205
f 217 205 233
f 179 181 207
f 179 207 205
f 181 219 235
f 181 235 207
f 219 217 233
f 219 233 235
f 233 205 225
f 233 225 249
f 205 207 227
f 205 227 225
f 207 235 251
f 207 251 227
f 235 233 249
f 235 249 251
f 249 225 241
f 249 241 265
f 225 227 243
f 225 243 241
f 227 251 267
f 227 267 243
f 251 249 265
f 251 265 267
f 265 241 257
f 265 257 281
f 241 243 259
f 241 259 257
f 243 267 283
f 243 283 259
f 267 265 281
f 267 281 283
f 281 257 273
f 281 273 297
f 257 259 275
f 257 275 273
f 259 283 299
f 259 299 275
f 283 281 297
f 283 297 299
f 297 273 289
f 297 289 313
f 273 275 291
f 273 291 289
f 275 299 315
f 275 315 291
f 299 297 313
f 299 313 315
f 313 289 305
f 313 305 325
f 289 291 307
f 289 307 305
f 291 315 327
f 291 327 307
f 315 313 325
f 315 325 327
f 325 305 333
f 325 333 341
f 305 307 335
f 305 335 333
f 307 327 343
f 307 343 335
f 327 325 341
f 327 341 343
f 341 333 351
f 341 351 361
f 333 335 353
f 333 353 351
f 335 343 363
f 335 363 353
f 343 341 361
f 343 361 363
f 361 351 369
f 361 369 377
f 351 353 371
f 351 371 369
f 353 363 379
f 353 379 371
f 363 361 377
f 363 377 379
f 377 369 385
f 377 385 393
f 369 371 387
f 369 387 385
f 371 379 395
f 371 395 387
f 379 377 393
f 379 393 395
f 393 385 401
f 393 401 409
f 385 387 403
f 385 403 401
f 387 395 411
f 387 411 403
f 395 393 409
f 395 409 411
f 409 401 417
f 409 417 425
f 401 403 419
f 401 419 417
f 403 411 427
f 403 427 419
f 411 409 425
f 411 425 427
f 425 417 433
f 425 433 441
f 417 419 435
f 417 435 433
f 419 427 443
f 419 443 435
f 427 425 441
f 427 441 443
f 441 433 453
f 441 453 467
f 433 435 455
f 433 455 453
f 435 443 469
f 435 469 455
f 443 441 467
f 443 467 469
f 467 453 481
f 467 481 493
f 453 455 483
f 453 483 481
f 455 469 495
f 455 495 483
f 469 467 493
f 469 493 495
f 493 481 509
f 493 509 517
f 481 483 511
f 481 511 509
f 483 495 519
f 483 519 511
f 495 493 517
f 495 517 519
f 517 509 529
f 517 529 537
f 509 511 531
f 509 531 529
f 511 519 539
f 511 539 531
f 519 517 537
f 519 537 539
f 537 529 549
f 537 549 557
f 529 531 551
f 529 551 549
f 531 539 559
f 531 559 551
f 539 537 557
f 539 557 559
f 557 549 569
f 557 569 573
f 549 551 570
f 549 570 569
f 551 559 574
f 551 574 570
f 559 557 573
f 559 573 574
f 573 569 597
f 573 597 589
f 569 570 599
f 569 599 597
f 570 574 591
f 570 591 599
f 574 573 589
f 574 589 591
f 589 597 617
f 589 617 609
f 597 599 619
f 597 619 617
f 599 591 611
f 599 611 619
f 591 589 609
f 591 609 611
f 609 617 637
f 609 637 629
f 617 619 639
f 617 639 637
f 619 611 631
f 619 631 639
f 611 609 629
f 611 629 631
f 629 637 665
f 629 665 653
f 637 639 667
f 637 667 665
f 639 631 655
f 639 655 667
f 631 629 653
f 631 653 655
f 653 665 693
f 653 693 679
f 665 667 695
f 665 695 693
f 667 655 681
f 667 681 695
f 655 653 679
f 655 679 681
f 679 693 713
f 679 713 705
f 693 695 715
f 693 715 713
f 695 681 707
f 695 707 715
f 681 679 705
f 681 705 707
f 705 713 729
f 705 729 721
f 713 715 731
f 713 731 729
f 715 707 723
f 715 723 731
f 707 705 721
f 707 721 723
f 721 729 745
f 721 745 737
f 729 731 747
f 729 747 745
f 731 723 739
f 731 739 747
f 723 721 737
f 723 737 739
f 737 745 761
f 737 761 753
f 745 747 763
f 745 763 761
f 747 739 755
f 747 755 763
f 739 737 753
f 739 753 755
f 753 761 777
f 753 777 769
f 761 763 779
f 761 779 777
f 763 755 771
f 763 771 779
f 755 753 769
f 755 769 771
f 769 777 795
f 769 795 785
f 777 779 797
f 777 797 795
f 779 771 787
f 779 787 797
f 771 769 785
f 771 785 787
f 785 795 813
f 785 813 805
f 795 797 815
f 795 815 813
f 797 787 807
f 797 807 815
f 787 785 805
f 787 805 807
f 805 813 841
f 805 841 821
f 813 815 843
f 813 843 841
f 815 807 823
f 815 823 843
f 807 805 821
f 807 821 823
f 821 841 857
f 821 857 833
f 841 843 859
f 841 859 857
f 843 823 835
f 843 835 859
f 823 821 833
f 823 833 835
f 833 857 873
f 833 873 849
f 857 859 875
f 857 875 873
f 859 835 851
f 859 851 875
f 835 833 849
f 835 849 851
f 849 873 889
f 849 889 865
f 873 875 891
f 873 891 889
f 875 851 867
f 875 867 891
f 851 849 865
f 851 865 867
f 865 889 905
f 865 905 881
f 889 891 907
f 889 907 905
f 891 867 883
f 891 883 907
f 867 865 881
f 867 881 883
f 881 905 921
f 881 921 897
f 905 907 923
f 905 923 921
f 907 883 899
f 907 899 923
f 883 881 897
f 883 897 899
f 897 921 941
f 897 941 913
f 921 923 943
f 921 943 941
f 923 899 915
f 923 915 943
f 899 897 913
f 899 913 915
f 913 941 967
f 913 967 929
f 941 943 969
f 941 969 967
f 943 915 931
f 943 931 969
f 915 913 929
f 915 929 931
f 929 967 985
f 929 985 949
f 967 969 987
f 967 987 985
f 969 931 951
f 969 951 987
f 931 929 949
f 931 949 951
f 949 985 1001
f 949 1001 959
f 985 987 1003
f 985 1003 1001
f 987 951 961
f 987 961 1003
f 951 949 959
f 951 959 961
f 959 1001 1025
f 959 1025 977
f 1001 1003 1027
f 1001 1027 1025
f 1003 961 979
f 1003 979 1027
f 961 959 977
f 961 977 979
f 977 1025 1049
f 977 1049 993
f 1025 1027 1051
f 1025 1051 1049
f 1027 979 995
f 1027 995 1051
f 979 977 993
f 979 993 995
f 993 1049 1089
f 993 1089 1009
f 1049 1051 1091
f 1049 1091 1089
f 1051 995 1011
f 1051 1011 1091
f 995 993 1009
f 995 1009 1011
f 1009 1089 1101
f 1009 1101 1017
f 1089 1091 1103
f 1089 1103 1101
f 1091 1011 1019
f 1091 1019 1103
f 1011 1009 1017
f 1011 1017 1019
f 1017 1101 1113
f 1017 1113 1033
f 1101 1103 1115
f 1101 1115 1113
f 1103 1019 1035
f 1103 1035 1115
f 1019 1017 1033
f 1019 1033 1035
f 1033 1113 1121
f 1033 1121 1041
f 1113 1115 1123
f 1113 1123 1121
f 1115 1035 1043
f 1115 1043 1123
f 1035 1033 1041
f 1035 1041 1043
f 1041 1121 1129
f 1041 1129 1057
f 1121 1123 1131
f 1121 1131 1129
f 1123 1043 1059
f 1123 1059 1131
f 1043 1041 1057
f 1043 1057 1059
f 1057 1129 1137
f 1057 1137 1065
f 1129 1131 1139
f 1129 1139 1137
f 1131 1059 1067
f 1131 1067 1139
f 1059 1057 1065
f 1059 1065 1067
f 1065 1137 1145
f 1065 1145 1073
f 1137 1139 1147
f 1137 1147 1145
f 1139 1067 1075
f 1139 1075 1147
f 1067 1065 1073
f 1067 1073 1075
f 1073 1145 1153
f 1073 1153 1081
f 1145 1147 1155
f 1145 1155 1153
f 1147 1075 1083
f 1147 1083 1155
f 1075 1073 1081
f 1075 1081 1083
f 1086 1158 1150
f 1086 1150 1078
f 1158 1160 1152
f 1158 1152 1150
f 1160 1088 1080
f 1160 1080 1152
f 1088 1086 1078
f 1088 1078 1080
f 1078 1150 1142
f 1078 1142 1070
f 1150 1152 1144
f 1150 1144 1142
f 1152 1080 1072
f 1152 1072 1144
f 1080 1078 1070
f 1080 1070 1072
f 1070 1142 1134
f 1070 1134 1062
f 1142 1144 1136
f 1142 1136 1134
f 1144 1072 1064
f 1144 1064 1136
f 1072 1070 1062
f 1072 1062 1064
f 1062 1134 1126
f 1062 1126 1046
f 1134 1136 1128
f 1134 1128 1126
f 1136 1064 1048
f 1136 1048 1128
f 1064 1062 1046
f 1064 1046 1048
f 1046 1126 1118
f 1046 1118 1038
f 1126 1128 1120
f 1126 1120 1118
f 1128 1048 1040
f 1128 1040 1120
f 1048 1046 1038
f 1048 1038 1040
f 1038 1118 1106
f 1038 1106 1022
f 1118 1120 1108
f 1118 1108 1106
f 1120 1040 1024
f 1120 1024 1108
f 1040 1038 1022
f 1040 1022 1024
f 1022 1106 1094
f 1022 1094 1014
f 1106 1108 1096
f 1106 1096 1094
f 1108 1024 1016
f 1108 1016 1096
f 1024 1022 1014
f 1024 1014 1016
f 1014 1094 1054
f 1014 1054 998
f 1094 1096 1056
f 1094 1056 1054
f 1096 1016 1000
f 1096 1000 1056
f 1016 1014 998
f 1016 998 1000
f 998 1054 1030
f 998 1030 982
f 1054 1056 1032
f 1054 1032 1030
f 1056 1000 984
f 1056 984 1032
f 1000 998 982
f 1000 982 984
f 982 1030 1006
f 982 1006 964
f 1030 1032 1008
f 1030 1008 1006
f 1032 984 966
f 1032 966 1008
f 984 982 964
f 984 964 966
f 964 1006 990
f 964 990 954
f 1006 1008 992
f 1006 992 990
f 1008 966 956
f 1008 956 992
f 966 964 954
f 966 954 956
f 954 990 972
f 954 972 934
f 990 992 974
f 990 974 972
f 992 956 936
f 992 936 974
f 956 954 934
f 956 934 936
f 934 972 946
f 934 946 918
f 972 974 948
f 972 948 946
f 974 936 920
f 974 920 948
f 936 934 918
f 936 918 920
f 918 946 926
f 918 926 902
f 946 948 928
f 946 928 926
f 948 920 904
f 948 904 928
f 920 918 902
f 920 902 904
f 902 926 910
f 902 910 886
f 926 928 912
f 926 912 910
f 928 904 888
f 928 888 912
f 904 902 886
f 904 886 888
f 886 910 894
f 886 894 870
f 910 912 896
f 910 896 894
f 912 888 872
f 912 872 896
f 888 886 870
f 888 870 872
f 870 894 878
f 870 878 854
f 894 896 880
f 894 880 878
f 896 872 856
f 896 856 880
f 872 870 854
f 872 854 856
f 854 878 862
f 854 862 838
f 878 880 864
f 878 864 862
f 880 856 840
f 880 840 864
f 856 854 838
f 856 838 840
f 838 862 846
f 838 846 826
f 862 864 848
f 862 848 846
f 864 840 828
f 864 828 848
f 840 838 826
f 840 826 828
f 826 846 818
f 826 818 810
f 846 848 820
f 846 820 818
f 848 828 812
f 848 812 820
f 828 826 810
f 828 810 812
f 810 818 800
f 810 800 790
f 818 820 802
f 818 802 800
f 820 812 792
f 820 792 802
f 812 810 790
f 812 790 792
f 790 800 782
f 790 782 774
f 800 802 784
f 800 784 782
f 802 792 776
f 802 776 784
f 792 790 774
f 792 774 776
f 774 782 766
f 774 766 758
f 782 784 768
f 782 768 766
f 784 776 760
f 784 760 768
f 776 774 758
f 776 758 760
f 758 766 750
f 758 750 742
f 766 768 752
f 766 752 750
f 768 760 744
f 768 744 752
f 760 758 742
f 760 742 744
f 742 750 734
f 742 734 726
f 750 752 736
f 750 736 734
f 752 744 728
f 752 728 736
f 744 742 726
f 744 726 728
f 726 734 718
f 726 718 710
f 734 736 720
f 734 720 718
f 736 728 712
f 736 712 720
f 728 726 710
f 728 710 712
f 710 718 698
f 710 698 684
f 718 720 700
f 718 700 698
f 720 712 686
f 720 686 700
f 712 710 684
f 712 684 686
f 684 698 670
f 684 670 658
f 698 700 672
f 698 672 670
f 700 686 660
f 700 660 672
f 686 684 658
f 686 658 660
f 658 670 642
f 658 642 634
f 670 672 644
f 670 644 642
f 672 660 636
f 672 636 644
f 660 658 634
f 660 634 636
f 634 642 622
f 634 622 614
f 642 644 624
f 642 624 622
f 644 636 616
f 644 616 624
f 636 634 614
f 636 614 616
f 614 622 602
f 614 602 594
f 622 624 604
f 622 604 602
f 624 616 596
f 624 596 604
f 616 614 594
f 616 594 596
f 594 602 583
f 594 583 579
f 602 604 584
f 602 584 583
f 604 596 580
f 604 580 584
f 596 594 579
f 596 579 580
f 579 583 554
f 579 554 562
f 583 584 556
f 583 556 554
f 584 580 564
f 584 564 556
f 580 579 562
f 580 562 564
f 562 554 534
f 562 534 542
f 554 556 536
f 554 536 534
f 556 564 544
f 556 544 536
f 564 562 542
f 564 542 544
f 542 534 514
f 542 514 522
f 534 536 516
f 534 516 514
f 536 544 524
f 536 524 516
f 544 542 522
f 544 522 524
f 522 514 486
f 522 486 498
f 514 516 488
f 514 488 486
f 516 524 500
f 516 500 488
f 524 522 498
f 524 498 500
f 498 486 458
f 498 458 472
f 486 488 460
f 486 460 458
f 488 500 474
f 488 474 460
f 500 498 472
f 500 472 474
f 472 458 438
f 472 438 446
f 458 460 440
f 458 440 438
f 460 474 448
f 460 448 440
f 474 472 446
f 474 446 448
f 446 438 422
f 446 422 430
f 438 440 424
f 438 424 422
f 440 448 432
f 440 432 424
f 448 446 430
f 448 430 432
f 430 422 406
f 430 406 414
f 422 424 408
f 422 408 406
f 424 432 416
f 424 416 408
f 432 430 414
f 432 414 416
f 414 406 390
f 414 390 398
f 406 408 392
f 406 392 390
f 408 416 400
f 408 400 392
f 416 414 398
f 416 398 400
f 398 390 374
f 398 374 382
f 390 392 376
f 390 376 374
f 392 400 384
f 392 384 376
f 400 398 382
f 400 382 384
f 382 374 356
f 382 356 366
f 374 376 358
f 374 358 356
f 376 384 368
f 376 368 358
f 384 382 366
f 384 366 368
f 366 356 338
f 366 338 346
f 356 358 340
f 356 340 338
f 358 368 348
f 358 348 340
f 368 366 346
f 368 346 348
f 346 338 310
f 346 310 330
f 338 340 312
f 338 312 310
f 340 348 332
f 340 332 312
f 348 346 330
f 348 330 332
f 330 310 294
f 330 294 318
f 310 312 296
f 310 296 294
f 312 332 320
f 312 320 296
f 332 330 318
f 332 318 320
f 318 294 278
f 318 278 302
f 294 296 280
f 294 280 278
f 296 320 304
f 296 304 280
f 320 318 302
f 320 302 304
f 302 278 262
f 302 262 286
f 278 280 264
f 278 264 262
f 280 304 288
f 280 288 264
f 304 302 286
f 304 286 288
f 286 262 246
f 286 246 270
f 262 264 248
f 262 248 246
f 264 288 272
f 264 272 248
f 288 286 270
f 288 270 272
f 270 246 230
f 270 230 254
f 246 248 232
f 246 232 230
f 248 272 256
f 248 256 232
f 272 270 254
f 272 254 256
f 254 230 210
f 254 210 238
f 230 232 212
f 230 212 210
f 232 256 240
f 232 240 212
f 256 254 238
f 256 238 240
f 238 210 184
f 238 184 222
f 210 212 186
f 210 186 184
f 212 240 224
f 212 224 186
f 240 238 222
f 240 222 224
f 222 184 166
f 222 166 202
f 184 186 168
f 184 168 166
f 186 224 204
f 186 204 168
f 224 222 202
f 224 202 204
f 202 166 150
f 202 150 192
f 166 168 152
f 166 152 150
f 168 204 194
f 168 194 152
f 204 202 192
f 204 192 194
f 192 150 126
f 192 126 174
f 150 152 128
f 150 128 126
f 152 194 176
f 152 176 128
f 194 192 174
f 194 174 176
f 174 126 102
f 174 102 158
f 126 128 104
f 126 104 102
f 128 176 160
f 128 160 104
f 176 174 158
f 176 158 160
f 158 102 66
f 158 66 142
f 102 104 68
f 102 68 66
f 104 160 144
f 104 144 68
f 160 158 142
f 160 142 144
f 142 66 54
f 142 54 134
f 66 68 56
f 66 56 54
f 68 144 136
f 68 136 56
f 144 142 134
f 144 134 136
f 134 54 42
f 134 42 118
f 54 56 44
f 54 44 42
f 56 136 120
f 56 120 44
f 136 134 118
f 136 118 120
f 118 42 34
f 118 34 110
f 42 44 36
f 42 36 34
f 44 120 112
f 44 112 36
f 120 118 110
f 120 110 112
f 110 34 26
f 110 26 94
f 34 36 28
f 34 28 26
f 36 112 96
f 36 96 28
f 112 110 94
f 112 94 96
f 94 26 18
f 94 18 86
f 26 28 20
f 26 20 18
f 28 96 88
f 28 88 20
f 96 94 86
f 96 86 88
f 86 18 10
f 86 10 78
f 18 20 12
f 18 12 10
f 20 88 80
f 20 80 12
f 88 86 78
f 88 78 80
f 78 10 3
f 78 3 71
f 10 12 4
f 10 4 3
f 12 80 72
f 12 72 4
f 80 78 71
f 80 71 72
f 71 3 9
f 71 9 77
f 3 4 11
f 3 11 9
f 4 72 79
f 4 79 11
f 72 71 77
f 72 77 79
f 77 9 17
f 77 17 85
f 9 11 19
f 9 19 17
f 11 79 87
f 11 87 19
f 79 77 85
f 79 85 87
f 85 17 25
f 85 25 93
f 17 19 27
f 17 27 25
f 19 87 95
f 19 95 27
f 87 85 93
f 87 93 95
f 93 25 33
f 93 33 109
f 25 27 35
f 25 35 33
f 27 95 111
f 27 111 35
f 95 93 109
f 95 109 111
f 109 33 41
f 109 41 117
f 33 35 43
f 33 43 41
f 35 111 119
f 35 119 43
f 111 109 117
f 111 117 119
f 117 41 53
f 117 53 133
f 41 43 55
f 41 55 53
f 43 119 135
f 43 135 55
f 119 117 133
f 119 133 135
f 133 53 65
f 133 65 141
f 53 55 67
f 53 67 65
f 55 135 143
f 55 143 67
f 135 133 141
f 135 141 143
f 141 65 101
f 141 101 157
f 65 67 103
f 65 103 101
f 67 143 159
f 67 159 103
f 143 141 157
f 143 157 159
f 157 101 125
f 157 125 173
f 101 103 127
f 101 127 125
f 103 159 175
f 103 175 127
f 159 157 173
f 159 173 175
f 173 125 149
f 173 149 191
f 125 127 151
f 125 151 149
f 127 175 193
f 127 193 151
f 175 173 191
f 175 191 193
f 191 149 165
f 191 165 201
f 149 151 167
f 149 167 165
f 151 193 203
f 151 203 167
f 193 191 201
f 193 201 203
f 201 165 183
f 201 183 221
f 165 167 185
f 165 185 183
f 167 203 223
f 167 223 185
f 203 201 221
f 203 221 223
f 221 183 209
f 221 209 237
f 183 185 211
f 183 211 209
f 185 223 239
f 185 239 211
f 223 221 237
f 223 237 239
f 237 209 229
f 237 229 253
f 209 211 231
f 209 231 229
f 211 239 255
f 211 255 231
f 239 237 253
f 239 253 255
f 253 229 245
f 253 245 269
f 229 231 247
f 229 247 245
f 231 255 271
f 231 271 247
f 255 253 269
f 255 269 271
f 269 245 261
f 269 261 285
f 245 247 263
f 245 263 261
f 247 271 287
f 247 287 263
f 271 269 285
f 271 285 287
f 285 261 277
f 285 277 301
f 261 263 279
f 261 279 277
f 263 287 303
f 263 303 279
f 287 285 301
f 287 301 303
f 301 277 293
f 301 293 317
f 277 279 295
f 277 295 293
f 279 303 319
f 279 319 295
f 303 301 317
f 303 317 319
f 317 293 309
f 317 309 329
f 293 295 311
f 293 311 309
f 295 319 331
f 295 331 311
f 319 317 329
f 319 329 331
f 329 309 337
f 329 337 345
f 309 311 339
f 309 339 337
f 311 331 347
f 311 347 339
f 331 329 345
f 331 345 347
f 345 337 355
f 345 355 365
f 337 339 357
f 337 357 355
f 339 347 367
f 339 367 357
f 347 345 365
f 347 365 367
f 365 355 373
f 365 373 381
f 355 357 375
f 355 375 373
f 357 367 383
f 357 383 375
f 367 365 381
f 367 381 383
f 381 373 389
f 381 389 397
f 373 375 391
f 373 391 389
f 375 383 399
f 375 399 391
f 383 381 397
f 383 397 399
f 397 389 405
f 397 405 413
f 389 391 407
f 389 407 405
f 391 399 415
f 391 415 407
f 399 397 413
f 399 413 415
f 413 405 421
f 413 421 429
f 405 407 423
f 405 423 421
f 407 415 431
f 407 431 423
f 415 413 429
f 415 429 431
f 429 421 437
f 429 437 445
f 421 423 439
f 421 439 437
f 423 431 447
f 423 447 439
f 431 429 445
f 431 445 447
f 445 437 457
f 445 457 471
f 437 439 459
f 437 459 457
f 439 447 473
f 439 473 459
f 447 445 471
f 447 471 473
f 471 457 485
f 471 485 497
f 457 459 487
f 457 487 485
f 459 473 499
f 459 499 487
f 473 471 497
f 473 497 499
f 497 485 513
f 497 513 521
f 485 487 515
f 485 515 513
f 487 499 523
f 487 523 515
f 499 497 521
f 499 521 523
f 521 513 533
f 521 533 541
f 513 515 535
f 513 535 533
f 515 523 543
f 515 543 535
f 523 521 541
f 523 541 543
f 541 533 553
f 541 553 561
f 533 535 555
f 533 555 553
f 535 543 563
f 535 563 555
f 543 541 561
f 543 561 563
f 561 553 571
f 561 571 575
f 553 555 572
f 553 572 571
f 555 563 576
f 555 576 572
f 563 561 575
f 563 575 576
f 575 571 601
f 575 601 593
f 571 572 603
f 571 603 601
f 572 576 595
f 572 595 603
f 576 575 593
f 576 593 595
f 593 601 621
f 593 621 613
f 601 603 623
f 601 623 621
f 603 595 615
f 603 615 623
f 595 593 613
f 595 613 615
f 613 621 641
f 613 641 633
f 621 623 643
f 621 643 641
f 623 615 635
f 623 635 643
f 615 613 633
f 615 633 635
f 633 641 669
f 633 669 657
f 641 643 671
f 641 671 669
f 643 635 659
f 643 659 671
f 635 633 657
f 635 657 659
f 657 669 697
f 657 697 683
f 669 671 699
f 669 699 697
f 671 659 685
f 671 685 699
f 659 657 683
f 659 683 685
f 683 697 717
f 683 717 709
f 697 699 719
f 697 719 717
f 699 685 711
f 699 711 719
f 685 683 709
f 685 709 711
f 709 717 733
f 709 733 725
f 717 719 735
f 717 735 733
f 719 711 727
f 719 727 735
f 711 709 725
f 711 725 727
f 725 733 749
f 725 749 741
f 733 735 751
f 733 751 749
f 735 727 743
f 735 743 751
f 727 725 741
f 727 741 743
f 741 749 765
f 741 765 757
f 749 751 767
f 749 767 765
f 751 743 759
f 751 759 767
f 743 741 757
f 743 757 759
f 757 765 781
f 757 781 773
f 765 767 783
f 765 783 781
f 767 759 775
f 767 775 783
f 759 757 773
f 759 773 775
f 773 781 799
f 773 799 789
f 781 783 801
f 781 801 799
f 783 775 791
f 783 791 801
f 775 773 789
f 775 789 791
f 789 799 817
f 789 817 809
f 799 801 819
f 799 819 817
f 801 791 811
f 801 811 819
f 791 789 809
f 791 809 811
f 809 817 845
f 809 845 825
f 817 819 847
f 817 847 845
f 819 811 827
f 819 827 847
f 811 809 825
f 811 825 827
f 825 845 861
f 825 861 837
f 845 847 863
f 845 863 861
f 847 827 839
f 847 839 863
f 827 825 837
f 827 837 839
f 837 861 877
f 837 877 853
f 861 863 879
f 861 879 877
f 863 839 855
f 863 855 879
f 839 837 853
f 839 853 855
f 853 877 893
f 853 893 869
f 877 879 895
f 877 895 893
f 879 855 871
f 879 871 895
f 855 853 869
f 855 869 871
f 869 893 909
f 869 909 885
f 893 895 911
f 893 911 909
f 895 871 887
f 895 887 911
f 871 869 885
f 871 885 887
f 885 909 925
f 885 925 901
f 909 911 927
f 909 927 925
f 911 887 903
f 911 903 927
f 887 885 901
f 887 901 903
f 901 925 945
f 901 945 917
f 925 927 947
f 925 947 945
f 927 903 919
f 927 919 947
f 903 901 917
f 903 917 919
f 917 945 971
f 917 971 933
f 945 947 973
f 945 973 971
f 947 919 935
f 947 935 973
f 919 917 933
f 919 933 935
f 933 971 989
f 933 989 953
f 971 973 991
f 971 991 989
f 973 935 955
f 973 955 991
f 935 933 953
f 935 953 955
f 953 989 1005
f 953 1005 963
f 989 991 1007
f 989 1007 1005
f 991 955 965
f 991 965 1007
f 955 953 963
f 955 963 965
f 963 1005 1029
f 963 1029 981
f 1005 1007 1031
f 1005 1031 1029
f 1007 965 983
f 1007 983 1031
f 965 963 981
f 965 981 983
f 981 1029 1053
f 981 1053 997
f 1029 1031 1055
f 1029 1055 1053
f 1031 983 999
f 1031 999 1055
f 983 981 997
f 983 997 999
f 997 1053 1093
f 997 1093 1013
f 1053 1055 1095
f 1053 1095 1093
f 1055 999 1015
f 1055 1015 1095
f 999 997 1013
f 999 1013 1015
f 1013 1093 1105
f 1013 1105 1021
f 1093 1095 1107
f 1093 1107 1105
f 1095 1015 1023
f 1095 1023 1107
f 1015 1013 1021
f 1015 1021 1023
f 1021 1105 1117
f 1021 1117 1037
f 1105 1107 1119
f 1105 1119 1117
f 1107 1023 1039
f 1107 1039 1119
f 1023 1021 1037
f 1023 1037 1039
f 1037 1117 1125
f 1037 1125 1045
f 1117 1119 1127
f 1117 1127 1125
f 1119 1039 1047
f 1119 1047 1127
f 1039 1037 1045
f 1039 1045 1047
f 1045 1125 1133
f 1045 1133 1061
f 1125 1127 1135
f 1125 1135 1133
f 1127 1047 1063
f 1127 1063 1135
f 1047 1045 1061
f 1047 1061 1063
f 1061 1133 1141
f 1061 1141 1069
f 1133 1135 1143
f 1133 1143 1141
f 1135 1063 1071
f 1135 1071 1143
f 1063 1061 1069
f 1063 1069 1071
f 1069 1141 1149
f 1069 1149 1077
f 1141 1143 1151
f 1141 1151 1149
f 1143 1071 1079
f 1143 1079 1151
f 1071 1069 1077
f 1071 1077 1079
f 1077 1149 1157
f 1077 1157 1085
f 1149 1151 1159
f 1149 1159 1157
f 1151 1079 1087
f 1151 1087 1159
f 1079 1077 1085
f 1079 1085 1087
f 701 1109 1097
f 703 1098 1110
f 701 1097 702
f 703 704 1098
f 1109 701 703
f 1109 703 1110
f 1097 1109 1110
f 1097 1110 1098
f 702 1097 1098
f 702 1098 704
f 701 702 704
f 701 704 703
f 690 957 937
f 692 938 958
f 690 937 674
f 692 676 938
f 957 690 692
f 957 692 958
f 937 957 958
f 937 958 938
f 674 937 938
f 674 938 676
f 690 674 676
f 690 676 692
f 662 829 793
f 664 794 830
f 662 793 648
f 664 650 794
f 829 662 664
f 829 664 830
f 793 829 830
f 793 830 794
f 648 793 794
f 648 794 650
f 662 648 650
f 662 650 664
f 626 677 645
f 628 646 678
f 626 645 606
f 628 608 646
f 677 626 628
f 677 628 678
f 645 677 678
f 645 678 646
f 606 645 646
f 606 646 608
f 626 606 608
f 626 608 628
f 586 501 465
f 588 466 502
f 586 465 566
f 588 568 466
f 501 586 588
f 501 588 502
f 465 501 502
f 465 502 466
f 566 465 466
f 566 466 568
f 586 566 568
f 586 568 588
f 546 349 321
f 548 322 350
f 546 321 526
f 548 528 322
f 349 546 548
f 349 548 350
f 321 349 350
f 321 350 322
f 526 321 322
f 526 322 528
f 546 526 528
f 546 528 548
f 504 213 177
f 506 178 214
f 504 177 490
f 506 492 178
f 213 504 506
f 213 506 214
f 177 213 214
f 177 214 178
f 490 177 178
f 490 178 492
f 504 490 492
f 504 492 506
f 478 57 45
f 480 46 58
f 478 45 462
f 480 464 46
f 57 478 480
f 57 480 58
f 45 57 58
f 45 58 46
f 462 45 46
f 462 46 464
f 478 462 464
f 478 464 480
f 450 47 59
f 452 60 48
f 450 59 449
f 452 451 60
f 47 450 452
f 47 452 48
f 59 47 48
f 59 48 60
f 449 59 60
f 449 60 451
f 450 449 451
f 450 451 452
f 461 195 215
f 463 216 196
f 461 215 477
f 463 479 216
f 195 461 463
f 195 463 196
f 215 195 196
f 215 196 216
f 477 215 216
f 477 216 479
f 461 477 479
f 461 479 463
f 489 323 359
f 491 360 324
f 489 359 503
f 491 505 360
f 323 489 491
f 323 491 324
f 359 323 324
f 359 324 360
f 503 359 360
f 503 360 505
f 489 503 505
f 489 505 491
f 525 475 507
f 527 508 476
f 525 507 545
f 527 547 508
f 475 525 527
f 475 527 476
f 507 475 476
f 507 476 508
f 545 507 508
f 545 508 547
f 525 545 547
f 525 547 527
f 565 651 687
f 567 688 652
f 565 687 585
f 567 587 688
f 651 565 567
f 651 567 652
f 687 651 652
f 687 652 688
f 585 687 688
f 585 688 587
f 565 585 587
f 565 587 567
f 605 803 831
f 607 832 804
f 605 831 625
f 607 627 832
f 803 605 607
f 803 607 804
f 831 803 804
f 831 804 832
f 625 831 832
f 625 832 627
f 605 625 627
f 605 627 607
f 647 939 975
f 649 976 940
f 647 975 661
f 649 663 976
f 939 647 649
f 939 649 940
f 975 939 940
f 975 940 976
f 661 975 976
f 661 976 663
f 647 661 663
f 647 663 649
f 673 1099 1111
f 675 1112 1100
f 673 1111 689
f 675 691 1112
f 1099 673 675
f 1099 675 1100
f 1111 1099 1100
f 1111 1100 1112
f 689 1111 1112
f 689 1112 691
f 673 689 691
f 673 691 675
