# Generated from the ORV RViz COLLADA asset; units: metres
v -0.0422 -0.0148 5.1680095e-18
v -0.0422 0.0148 5.1680095e-18
v -0.042149168 -0.0148 -0.0020706559
v -0.042149168 -0.0148 0.0020706559
v -0.042149168 0.0148 -0.0020706559
v -0.042149168 0.0148 0.0020706559
v -0.041996795 -0.0148 -0.0041363233
v -0.041996795 -0.0148 0.0041363233
v -0.041996795 0.0148 -0.0041363233
v -0.041996795 0.0148 0.0041363233
v -0.041743249 -0.0148 -0.006192026
v -0.041743249 -0.0148 0.006192026
v -0.041743249 0.0148 -0.006192026
v -0.041743249 0.0148 0.006192026
v -0.041389139 -0.0148 -0.0082328116
v -0.041389139 -0.0148 0.0082328116
v -0.041389139 0.0148 -0.0082328116
v -0.041389139 0.0148 0.0082328116
v -0.040935319 -0.0148 -0.010253764
v -0.040935319 -0.0148 0.010253764
v -0.040935319 0.0148 -0.010253764
v -0.040935319 0.0148 0.010253764
v -0.040382882 -0.0148 -0.012250013
v -0.040382882 -0.0148 0.012250013
v -0.040382882 0.0148 -0.012250013
v -0.040382882 0.0148 0.012250013
v -0.04 -0.0168 4.8985872e-18
v -0.04 0.0168 4.8985872e-18
v -0.039951818 -0.0168 -0.001962707
v -0.039951818 -0.0168 0.001962707
v -0.039951818 0.0168 -0.001962707
v -0.039951818 0.0168 0.001962707
v -0.039807389 -0.0168 -0.0039206856
v -0.039807389 -0.0168 0.0039206856
v -0.039807389 0.0168 -0.0039206856
v -0.039807389 0.0168 0.0039206856
v -0.03973316 -0.0148 -0.014216752
v -0.03973316 -0.0148 0.014216752
v -0.03973316 0.0148 -0.014216752
v -0.03973316 0.0148 0.014216752
v -0.03956706 -0.0168 -0.005869219
v -0.03956706 -0.0168 0.005869219
v -0.03956706 0.0168 -0.005869219
v -0.03956706 0.0168 0.005869219
v -0.039231411 -0.0168 -0.0078036129
v -0.039231411 -0.0168 0.0078036129
v -0.039231411 0.0168 -0.0078036129
v -0.039231411 0.0168 0.0078036129
v -0.038987716 -0.0148 -0.016149241
v -0.038987716 -0.0148 0.016149241
v -0.038987716 0.0148 -0.016149241
v -0.038987716 0.0148 0.016149241
v -0.03880125 -0.0168 -0.0097192072
v -0.03880125 -0.0168 0.0097192072
v -0.03880125 0.0168 -0.0097192072
v -0.03880125 0.0168 0.0097192072
v -0.038277613 -0.0168 -0.011611387
v -0.038277613 -0.0168 0.011611387
v -0.038277613 0.0168 -0.011611387
v -0.038277613 0.0168 0.011611387
v -0.038148348 -0.0148 -0.018042825
v -0.038148348 -0.0148 0.018042825
v -0.038148348 0.0148 -0.018042825
v -0.038148348 0.0148 0.018042825
v -0.037661763 -0.0168 -0.013475594
v -0.037661763 -0.0168 0.013475594
v -0.037661763 0.0168 -0.013475594
v -0.037661763 0.0168 0.013475594
v -0.0375 -0.0175 4.5924255e-18
v -0.0375 0.0175 4.5924255e-18
v -0.03745483 -0.0175 -0.0018400378
v -0.03745483 -0.0175 0.0018400378
v -0.03745483 0.0175 -0.0018400378
v -0.03745483 0.0175 0.0018400378
v -0.037319427 -0.0175 -0.0036756428
v -0.037319427 -0.0175 0.0036756428
v -0.037319427 0.0175 -0.0036756428
v -0.037319427 0.0175 0.0036756428
v -0.037217077 -0.0148 -0.019892942
v -0.037217077 -0.0148 0.019892942
v -0.037217077 0.0148 -0.019892942
v -0.037217077 0.0148 0.019892942
v -0.037094119 -0.0175 -0.0055023928
v -0.037094119 -0.0175 0.0055023928
v -0.037094119 0.0175 -0.0055023928
v -0.037094119 0.0175 0.0055023928
v -0.036955181 -0.0168 -0.015307337
v -0.036955181 -0.0168 0.015307337
v -0.036955181 0.0168 -0.015307337
v -0.036955181 0.0168 0.015307337
v -0.036779448 -0.0175 -0.0073158871
v -0.036779448 -0.0175 0.0073158871
v -0.036779448 0.0175 -0.0073158871
v -0.036779448 0.0175 0.0073158871
v -0.036376172 -0.0175 -0.0091117567
v -0.036376172 -0.0175 0.0091117567
v -0.036376172 0.0175 -0.0091117567
v -0.036376172 0.0175 0.0091117567
v -0.036196147 -0.0148 -0.021695136
v -0.036196147 -0.0148 0.021695136
v -0.036196147 0.0148 -0.021695136
v -0.036196147 0.0148 0.021695136
v -0.036159572 -0.0168 -0.017102204
v -0.036159572 -0.0168 0.017102204
v -0.036159572 0.0168 -0.017102204
v -0.036159572 0.0168 0.017102204
v -0.035885263 -0.0175 -0.010885675
v -0.035885263 -0.0175 0.010885675
v -0.035885263 0.0175 -0.010885675
v -0.035885263 0.0175 0.010885675
v -0.035307902 -0.0175 -0.01263337
v -0.035307902 -0.0175 0.01263337
v -0.035307902 0.0175 -0.01263337
v -0.035307902 0.0175 0.01263337
v -0.035276851 -0.0168 -0.018855869
v -0.035276851 -0.0168 0.018855869
v -0.035276851 0.0168 -0.018855869
v -0.035276851 0.0168 0.018855869
v -0.035088018 -0.0148 -0.023445064
v -0.035088018 -0.0148 0.023445064
v -0.035088018 0.0148 -0.023445064
v -0.035088018 0.0148 0.023445064
v -0.034645482 -0.0175 -0.014350629
v -0.034645482 -0.0175 0.014350629
v -0.034645482 0.0175 -0.014350629
v -0.034645482 0.0175 0.014350629
v -0.034309144 -0.0168 -0.02056411
v -0.034309144 -0.0168 0.02056411
v -0.034309144 0.0168 -0.02056411
v -0.034309144 0.0168 0.02056411
v -0.033899598 -0.0175 -0.016033316
v -0.033899598 -0.0175 0.016033316
v -0.033899598 0.0175 -0.016033316
v -0.033899598 0.0175 0.016033316
v -0.033895358 -0.0148 -0.025138511
v -0.033895358 -0.0148 0.025138511
v -0.033895358 0.0148 -0.025138511
v -0.033895358 0.0148 0.025138511
v -0.033258784 -0.0168 -0.022222809
v -0.033258784 -0.0168 0.022222809
v -0.033258784 0.0168 -0.022222809
v -0.033258784 0.0168 0.022222809
v -0.033072047 -0.0175 -0.017677378
v -0.033072047 -0.0175 0.017677378
v -0.033072047 0.0175 -0.017677378
v -0.033072047 0.0175 0.017677378
v -0.032621041 -0.0148 -0.026771397
v -0.032621041 -0.0148 0.026771397
v -0.032621041 0.0148 -0.026771397
v -0.032621041 0.0148 0.026771397
v -0.032164823 -0.0175 -0.019278853
v -0.032164823 -0.0175 0.019278853
v -0.032164823 0.0175 -0.019278853
v -0.032164823 0.0175 0.019278853
v -0.032128301 -0.0168 -0.023827972
v -0.032128301 -0.0168 0.023827972
v -0.032128301 0.0168 -0.023827972
v -0.032128301 0.0168 0.023827972
v -0.0315 -0.0175 3.8576374e-18
v -0.0315 0.0175 3.8576374e-18
v -0.031462057 -0.0175 -0.0015456317
v -0.031462057 -0.0175 0.0015456317
v -0.031462057 0.0175 -0.0015456317
v -0.031462057 0.0175 0.0015456317
v -0.031348319 -0.0175 -0.0030875399
v -0.031348319 -0.0175 0.0030875399
v -0.031348319 0.0175 -0.0030875399
v -0.031348319 0.0175 0.0030875399
v -0.031268137 -0.0148 -0.028339788
v -0.031268137 -0.0148 0.028339788
v -0.031268137 0.0148 -0.028339788
v -0.031268137 0.0148 0.028339788
v -0.03118011 -0.0175 -0.020833884
v -0.03118011 -0.0175 0.020833884
v -0.03118011 0.0175 -0.020833884
v -0.03118011 0.0175 0.020833884
v -0.03115906 -0.0175 -0.0046220099
v -0.03115906 -0.0175 0.0046220099
v -0.03115906 0.0175 -0.0046220099
v -0.03115906 0.0175 0.0046220099
v -0.030920418 -0.0168 -0.025375731
v -0.030920418 -0.0168 0.025375731
v -0.030920418 0.0168 -0.025375731
v -0.030920418 0.0168 0.025375731
v -0.030894736 -0.0175 -0.0061453451
v -0.030894736 -0.0175 0.0061453451
v -0.030894736 0.0175 -0.0061453451
v -0.030894736 0.0175 0.0061453451
v -0.030555984 -0.0175 -0.0076538757
v -0.030555984 -0.0175 0.0076538757
v -0.030555984 0.0175 -0.0076538757
v -0.030555984 0.0175 0.0076538757
v -0.030143621 -0.0175 -0.0091439673
v -0.030143621 -0.0175 0.0091439673
v -0.030143621 0.0175 -0.0091439673
v -0.030143621 0.0175 0.0091439673
v -0.030120282 -0.0175 -0.022338724
v -0.030120282 -0.0175 0.022338724
v -0.030120282 0.0175 -0.022338724
v -0.030120282 0.0175 0.022338724
v -0.029839906 -0.0148 -0.029839906
v -0.029839906 -0.0148 0.029839906
v -0.029839906 0.0148 -0.029839906
v -0.029839906 0.0148 0.029839906
v -0.029658638 -0.0175 -0.01061203
v -0.029658638 -0.0175 0.01061203
v -0.029658638 0.0175 -0.01061203
v -0.029658638 0.0175 0.01061203
v -0.029638045 -0.0168 -0.026862358
v -0.029638045 -0.0168 0.026862358
v -0.029638045 0.0168 -0.026862358
v -0.029638045 0.0168 0.026862358
v -0.029102205 -0.0175 -0.012054528
v -0.029102205 -0.0175 0.012054528
v -0.029102205 0.0175 -0.012054528
v -0.029102205 0.0175 0.012054528
v -0.028987892 -0.0175 -0.023789748
v -0.028987892 -0.0175 0.023789748
v -0.028987892 0.0175 -0.023789748
v -0.028987892 0.0175 0.023789748
v -0.028475663 -0.0175 -0.013467985
v -0.028475663 -0.0175 0.013467985
v -0.028475663 0.0175 -0.013467985
v -0.028475663 0.0175 0.013467985
v -0.028339788 -0.0148 -0.031268137
v -0.028339788 -0.0148 0.031268137
v -0.028339788 0.0148 -0.031268137
v -0.028339788 0.0148 0.031268137
v -0.028284271 -0.0168 -0.028284271
v -0.028284271 -0.0168 0.028284271
v -0.028284271 0.0168 -0.028284271
v -0.028284271 0.0168 0.028284271
v -0.027785667 -0.0175 -0.025183461
v -0.027785667 -0.0175 0.025183461
v -0.027785667 0.0175 -0.025183461
v -0.027785667 0.0175 0.025183461
v -0.02778052 -0.0175 -0.014848997
v -0.02778052 -0.0175 0.014848997
v -0.02778052 0.0175 -0.014848997
v -0.02778052 0.0175 0.014848997
v -0.027018451 -0.0175 -0.016194236
v -0.027018451 -0.0175 0.016194236
v -0.027018451 0.0175 -0.016194236
v -0.027018451 0.0175 0.016194236
v -0.026862358 -0.0168 -0.029638045
v -0.026862358 -0.0168 0.029638045
v -0.026862358 0.0168 -0.029638045
v -0.026862358 0.0168 0.029638045
v -0.026771397 -0.0148 -0.032621041
v -0.026771397 -0.0148 0.032621041
v -0.026771397 0.0148 -0.032621041
v -0.026771397 0.0148 0.032621041
v -0.026516504 -0.0175 -0.026516504
v -0.026516504 -0.0175 0.026516504
v -0.026516504 0.0175 -0.026516504
v -0.026516504 0.0175 0.026516504
v -0.026191293 -0.0175 -0.017500462
v -0.026191293 -0.0175 0.017500462
v -0.026191293 0.0175 -0.017500462
v -0.026191293 0.0175 0.017500462
v -0.025375731 -0.0168 -0.030920418
v -0.025375731 -0.0168 0.030920418
v -0.025375731 0.0168 -0.030920418
v -0.025375731 0.0168 0.030920418
v -0.025301037 -0.0175 -0.018764528
v -0.025301037 -0.0175 0.018764528
v -0.025301037 0.0175 -0.018764528
v -0.025301037 0.0175 0.018764528
v -0.025183461 -0.0175 -0.027785667
v -0.025183461 -0.0175 0.027785667
v -0.025183461 0.0175 -0.027785667
v -0.025183461 0.0175 0.027785667
v -0.025138511 -0.0148 -0.033895358
v -0.025138511 -0.0148 0.033895358
v -0.025138511 0.0148 -0.033895358
v -0.025138511 0.0148 0.033895358
v -0.024349829 -0.0175 -0.019983388
v -0.024349829 -0.0175 0.019983388
v -0.024349829 0.0175 -0.019983388
v -0.024349829 0.0175 0.019983388
v -0.023827972 -0.0168 -0.032128301
v -0.023827972 -0.0168 0.032128301
v -0.023827972 0.0168 -0.032128301
v -0.023827972 0.0168 0.032128301
v -0.023789748 -0.0175 -0.028987892
v -0.023789748 -0.0175 0.028987892
v -0.023789748 0.0175 -0.028987892
v -0.023789748 0.0175 0.028987892
v -0.023445064 -0.0148 -0.035088018
v -0.023445064 -0.0148 0.035088018
v -0.023445064 0.0148 -0.035088018
v -0.023445064 0.0148 0.035088018
v -0.02333996 -0.0175 -0.021154107
v -0.02333996 -0.0175 0.021154107
v -0.02333996 0.0175 -0.021154107
v -0.02333996 0.0175 0.021154107
v -0.022338724 -0.0175 -0.030120282
v -0.022338724 -0.0175 0.030120282
v -0.022338724 0.0175 -0.030120282
v -0.022338724 0.0175 0.030120282
v -0.022273864 -0.0175 -0.022273864
v -0.022273864 -0.0175 0.022273864
v -0.022273864 0.0175 -0.022273864
v -0.022273864 0.0175 0.022273864
v -0.022222809 -0.0168 -0.033258784
v -0.022222809 -0.0168 0.033258784
v -0.022222809 0.0168 -0.033258784
v -0.022222809 0.0168 0.033258784
v -0.021695136 -0.0148 -0.036196147
v -0.021695136 -0.0148 0.036196147
v -0.021695136 0.0148 -0.036196147
v -0.021695136 0.0148 0.036196147
v -0.021154107 -0.0175 -0.02333996
v -0.021154107 -0.0175 0.02333996
v -0.021154107 0.0175 -0.02333996
v -0.021154107 0.0175 0.02333996
v -0.020833884 -0.0175 -0.03118011
v -0.020833884 -0.0175 0.03118011
v -0.020833884 0.0175 -0.03118011
v -0.020833884 0.0175 0.03118011
v -0.02056411 -0.0168 -0.034309144
v -0.02056411 -0.0168 0.034309144
v -0.02056411 0.0168 -0.034309144
v -0.02056411 0.0168 0.034309144
v -0.019983388 -0.0175 -0.024349829
v -0.019983388 -0.0175 0.024349829
v -0.019983388 0.0175 -0.024349829
v -0.019983388 0.0175 0.024349829
v -0.019892942 -0.0148 -0.037217077
v -0.019892942 -0.0148 0.037217077
v -0.019892942 0.0148 -0.037217077
v -0.019892942 0.0148 0.037217077
v -0.019278853 -0.0175 -0.032164823
v -0.019278853 -0.0175 0.032164823
v -0.019278853 0.0175 -0.032164823
v -0.019278853 0.0175 0.032164823
v -0.018855869 -0.0168 -0.035276851
v -0.018855869 -0.0168 0.035276851
v -0.018855869 0.0168 -0.035276851
v -0.018855869 0.0168 0.035276851
v -0.018764528 -0.0175 -0.025301037
v -0.018764528 -0.0175 0.025301037
v -0.018764528 0.0175 -0.025301037
v -0.018764528 0.0175 0.025301037
v -0.018042825 -0.0148 -0.038148348
v -0.018042825 -0.0148 0.038148348
v -0.018042825 0.0148 -0.038148348
v -0.018042825 0.0148 0.038148348
v -0.017677378 -0.0175 -0.033072047
v -0.017677378 -0.0175 0.033072047
v -0.017677378 0.0175 -0.033072047
v -0.017677378 0.0175 0.033072047
v -0.017500462 -0.0175 -0.026191293
v -0.017500462 -0.0175 0.026191293
v -0.017500462 0.0175 -0.026191293
v -0.017500462 0.0175 0.026191293
v -0.017102204 -0.0168 -0.036159572
v -0.017102204 -0.0168 0.036159572
v -0.017102204 0.0168 -0.036159572
v -0.017102204 0.0168 0.036159572
v -0.016194236 -0.0175 -0.027018451
v -0.016194236 -0.0175 0.027018451
v -0.016194236 0.0175 -0.027018451
v -0.016194236 0.0175 0.027018451
v -0.016149241 -0.0148 -0.038987716
v -0.016149241 -0.0148 0.038987716
v -0.016149241 0.0148 -0.038987716
v -0.016149241 0.0148 0.038987716
v -0.016033316 -0.0175 -0.033899598
v -0.016033316 -0.0175 0.033899598
v -0.016033316 0.0175 -0.033899598
v -0.016033316 0.0175 0.033899598
v -0.015307337 -0.0168 -0.036955181
v -0.015307337 -0.0168 0.036955181
v -0.015307337 0.0168 -0.036955181
v -0.015307337 0.0168 0.036955181
v -0.014848997 -0.0175 -0.02778052
v -0.014848997 -0.0175 0.02778052
v -0.014848997 0.0175 -0.02778052
v -0.014848997 0.0175 0.02778052
v -0.014350629 -0.0175 -0.034645482
v -0.014350629 -0.0175 0.034645482
v -0.014350629 0.0175 -0.034645482
v -0.014350629 0.0175 0.034645482
v -0.014216752 -0.0148 -0.03973316
v -0.014216752 -0.0148 0.03973316
v -0.014216752 0.0148 -0.03973316
v -0.014216752 0.0148 0.03973316
v -0.013475594 -0.0168 -0.037661763
v -0.013475594 -0.0168 0.037661763
v -0.013475594 0.0168 -0.037661763
v -0.013475594 0.0168 0.037661763
v -0.013467985 -0.0175 -0.028475663
v -0.013467985 -0.0175 0.028475663
v -0.013467985 0.0175 -0.028475663
v -0.013467985 0.0175 0.028475663
v -0.01263337 -0.0175 -0.035307902
v -0.01263337 -0.0175 0.035307902
v -0.01263337 0.0175 -0.035307902
v -0.01263337 0.0175 0.035307902
v -0.012250013 -0.0148 -0.040382882
v -0.012250013 -0.0148 0.040382882
v -0.012250013 0.0148 -0.040382882
v -0.012250013 0.0148 0.040382882
v -0.012054528 -0.0175 -0.029102205
v -0.012054528 -0.0175 0.029102205
v -0.012054528 0.0175 -0.029102205
v -0.012054528 0.0175 0.029102205
v -0.011611387 -0.0168 -0.038277613
v -0.011611387 -0.0168 0.038277613
v -0.011611387 0.0168 -0.038277613
v -0.011611387 0.0168 0.038277613
v -0.010885675 -0.0175 -0.035885263
v -0.010885675 -0.0175 0.035885263
v -0.010885675 0.0175 -0.035885263
v -0.010885675 0.0175 0.035885263
v -0.01061203 -0.0175 -0.029658638
v -0.01061203 -0.0175 0.029658638
v -0.01061203 0.0175 -0.029658638
v -0.01061203 0.0175 0.029658638
v -0.010253764 -0.0148 -0.040935319
v -0.010253764 -0.0148 0.040935319
v -0.010253764 0.0148 -0.040935319
v -0.010253764 0.0148 0.040935319
v -0.0097192072 -0.0168 -0.03880125
v -0.0097192072 -0.0168 0.03880125
v -0.0097192072 0.0168 -0.03880125
v -0.0097192072 0.0168 0.03880125
v -0.0091439673 -0.0175 -0.030143621
v -0.0091439673 -0.0175 0.030143621
v -0.0091439673 0.0175 -0.030143621
v -0.0091439673 0.0175 0.030143621
v -0.0091117567 -0.0175 -0.036376172
v -0.0091117567 -0.0175 0.036376172
v -0.0091117567 0.0175 -0.036376172
v -0.0091117567 0.0175 0.036376172
v -0.0082328116 -0.0148 -0.041389139
v -0.0082328116 -0.0148 0.041389139
v -0.0082328116 0.0148 -0.041389139
v -0.0082328116 0.0148 0.041389139
v -0.0078036129 -0.0168 -0.039231411
v -0.0078036129 -0.0168 0.039231411
v -0.0078036129 0.0168 -0.039231411
v -0.0078036129 0.0168 0.039231411
v -0.0076538757 -0.0175 -0.030555984
v -0.0076538757 -0.0175 0.030555984
v -0.0076538757 0.0175 -0.030555984
v -0.0076538757 0.0175 0.030555984
v -0.0073158871 -0.0175 -0.036779448
v -0.0073158871 -0.0175 0.036779448
v -0.0073158871 0.0175 -0.036779448
v -0.0073158871 0.0175 0.036779448
v -0.006192026 -0.0148 -0.041743249
v -0.006192026 -0.0148 0.041743249
v -0.006192026 0.0148 -0.041743249
v -0.006192026 0.0148 0.041743249
v -0.0061453451 -0.0175 -0.030894736
v -0.0061453451 -0.0175 0.030894736
v -0.0061453451 0.0175 -0.030894736
v -0.0061453451 0.0175 0.030894736
v -0.005869219 -0.0168 -0.03956706
v -0.005869219 -0.0168 0.03956706
v -0.005869219 0.0168 -0.03956706
v -0.005869219 0.0168 0.03956706
v -0.0055023928 -0.0175 -0.037094119
v -0.0055023928 -0.0175 0.037094119
v -0.0055023928 0.0175 -0.037094119
v -0.0055023928 0.0175 0.037094119
v -0.0046220099 -0.0175 -0.03115906
v -0.0046220099 -0.0175 0.03115906
v -0.0046220099 0.0175 -0.03115906
v -0.0046220099 0.0175 0.03115906
v -0.0041363233 -0.0148 -0.041996795
v -0.0041363233 -0.0148 0.041996795
v -0.0041363233 0.0148 -0.041996795
v -0.0041363233 0.0148 0.041996795
v -0.0039206856 -0.0168 -0.039807389
v -0.0039206856 -0.0168 0.039807389
v -0.0039206856 0.0168 -0.039807389
v -0.0039206856 0.0168 0.039807389
v -0.0036756428 -0.0175 -0.037319427
v -0.0036756428 -0.0175 0.037319427
v -0.0036756428 0.0175 -0.037319427
v -0.0036756428 0.0175 0.037319427
v -0.0030875399 -0.0175 -0.031348319
v -0.0030875399 -0.0175 0.031348319
v -0.0030875399 0.0175 -0.031348319
v -0.0030875399 0.0175 0.031348319
v -0.0020706559 -0.0148 -0.042149168
v -0.0020706559 -0.0148 0.042149168
v -0.0020706559 0.0148 -0.042149168
v -0.0020706559 0.0148 0.042149168
v -0.001962707 -0.0168 -0.039951818
v -0.001962707 -0.0168 0.039951818
v -0.001962707 0.0168 -0.039951818
v -0.001962707 0.0168 0.039951818
v -0.0018400378 -0.0175 -0.03745483
v -0.0018400378 -0.0175 0.03745483
v -0.0018400378 0.0175 -0.03745483
v -0.0018400378 0.0175 0.03745483
v -0.0015456317 -0.0175 -0.031462057
v -0.0015456317 -0.0175 0.031462057
v -0.0015456317 0.0175 -0.031462057
v -0.0015456317 0.0175 0.031462057
v -7.7520142e-18 -0.0148 -0.0422
v -7.7520142e-18 0.0148 -0.0422
v -7.3478808e-18 -0.0168 -0.04
v -7.3478808e-18 0.0168 -0.04
v -6.8886382e-18 -0.0175 -0.0375
v -6.8886382e-18 0.0175 -0.0375
v -5.7864561e-18 -0.0175 -0.0315
v -5.7864561e-18 0.0175 -0.0315
v 1.9288187e-18 -0.0175 0.0315
v 1.9288187e-18 0.0175 0.0315
v 2.2962127e-18 -0.0175 0.0375
v 2.2962127e-18 0.0175 0.0375
v 2.4492936e-18 -0.0168 0.04
v 2.4492936e-18 0.0168 0.04
v 2.5840047e-18 -0.0148 0.0422
v 2.5840047e-18 0.0148 0.0422
v 0.0015456317 -0.0175 -0.031462057
v 0.0015456317 -0.0175 0.031462057
v 0.0015456317 0.0175 -0.031462057
v 0.0015456317 0.0175 0.031462057
v 0.0018400378 -0.0175 -0.03745483
v 0.0018400378 -0.0175 0.03745483
v 0.0018400378 0.0175 -0.03745483
v 0.0018400378 0.0175 0.03745483
v 0.001962707 -0.0168 -0.039951818
v 0.001962707 -0.0168 0.039951818
v 0.001962707 0.0168 -0.039951818
v 0.001962707 0.0168 0.039951818
v 0.0020706559 -0.0148 -0.042149168
v 0.0020706559 -0.0148 0.042149168
v 0.0020706559 0.0148 -0.042149168
v 0.0020706559 0.0148 0.042149168
v 0.0030875399 -0.0175 -0.031348319
v 0.0030875399 -0.0175 0.031348319
v 0.0030875399 0.0175 -0.031348319
v 0.0030875399 0.0175 0.031348319
v 0.0036756428 -0.0175 -0.037319427
v 0.0036756428 -0.0175 0.037319427
v 0.0036756428 0.0175 -0.037319427
v 0.0036756428 0.0175 0.037319427
v 0.0039206856 -0.0168 -0.039807389
v 0.0039206856 -0.0168 0.039807389
v 0.0039206856 0.0168 -0.039807389
v 0.0039206856 0.0168 0.039807389
v 0.0041363233 -0.0148 -0.041996795
v 0.0041363233 -0.0148 0.041996795
v 0.0041363233 0.0148 -0.041996795
v 0.0041363233 0.0148 0.041996795
v 0.0046220099 -0.0175 -0.03115906
v 0.0046220099 -0.0175 0.03115906
v 0.0046220099 0.0175 -0.03115906
v 0.0046220099 0.0175 0.03115906
v 0.0055023928 -0.0175 -0.037094119
v 0.0055023928 -0.0175 0.037094119
v 0.0055023928 0.0175 -0.037094119
v 0.0055023928 0.0175 0.037094119
v 0.005869219 -0.0168 -0.03956706
v 0.005869219 -0.0168 0.03956706
v 0.005869219 0.0168 -0.03956706
v 0.005869219 0.0168 0.03956706
v 0.0061453451 -0.0175 -0.030894736
v 0.0061453451 -0.0175 0.030894736
v 0.0061453451 0.0175 -0.030894736
v 0.0061453451 0.0175 0.030894736
v 0.006192026 -0.0148 -0.041743249
v 0.006192026 -0.0148 0.041743249
v 0.006192026 0.0148 -0.041743249
v 0.006192026 0.0148 0.041743249
v 0.0073158871 -0.0175 -0.036779448
v 0.0073158871 -0.0175 0.036779448
v 0.0073158871 0.0175 -0.036779448
v 0.0073158871 0.0175 0.036779448
v 0.0076538757 -0.0175 -0.030555984
v 0.0076538757 -0.0175 0.030555984
v 0.0076538757 0.0175 -0.030555984
v 0.0076538757 0.0175 0.030555984
v 0.0078036129 -0.0168 -0.039231411
v 0.0078036129 -0.0168 0.039231411
v 0.0078036129 0.0168 -0.039231411
v 0.0078036129 0.0168 0.039231411
v 0.0082328116 -0.0148 -0.041389139
v 0.0082328116 -0.0148 0.041389139
v 0.0082328116 0.0148 -0.041389139
v 0.0082328116 0.0148 0.041389139
v 0.0091117567 -0.0175 -0.036376172
v 0.0091117567 -0.0175 0.036376172
v 0.0091117567 0.0175 -0.036376172
v 0.0091117567 0.0175 0.036376172
v 0.0091439673 -0.0175 -0.030143621
v 0.0091439673 -0.0175 0.030143621
v 0.0091439673 0.0175 -0.030143621
v 0.0091439673 0.0175 0.030143621
v 0.0097192072 -0.0168 -0.03880125
v 0.0097192072 -0.0168 0.03880125
v 0.0097192072 0.0168 -0.03880125
v 0.0097192072 0.0168 0.03880125
v 0.010253764 -0.0148 -0.040935319
v 0.010253764 -0.0148 0.040935319
v 0.010253764 0.0148 -0.040935319
v 0.010253764 0.0148 0.040935319
v 0.01061203 -0.0175 -0.029658638
v 0.01061203 -0.0175 0.029658638
v 0.01061203 0.0175 -0.029658638
v 0.01061203 0.0175 0.029658638
v 0.010885675 -0.0175 -0.035885263
v 0.010885675 -0.0175 0.035885263
v 0.010885675 0.0175 -0.035885263
v 0.010885675 0.0175 0.035885263
v 0.011611387 -0.0168 -0.038277613
v 0.011611387 -0.0168 0.038277613
v 0.011611387 0.0168 -0.038277613
v 0.011611387 0.0168 0.038277613
v 0.012054528 -0.0175 -0.029102205
v 0.012054528 -0.0175 0.029102205
v 0.012054528 0.0175 -0.029102205
v 0.012054528 0.0175 0.029102205
v 0.012250013 -0.0148 -0.040382882
v 0.012250013 -0.0148 0.040382882
v 0.012250013 0.0148 -0.040382882
v 0.012250013 0.0148 0.040382882
v 0.01263337 -0.0175 -0.035307902
v 0.01263337 -0.0175 0.035307902
v 0.01263337 0.0175 -0.035307902
v 0.01263337 0.0175 0.035307902
v 0.013467985 -0.0175 -0.028475663
v 0.013467985 -0.0175 0.028475663
v 0.013467985 0.0175 -0.028475663
v 0.013467985 0.0175 0.028475663
v 0.013475594 -0.0168 -0.037661763
v 0.013475594 -0.0168 0.037661763
v 0.013475594 0.0168 -0.037661763
v 0.013475594 0.0168 0.037661763
v 0.014216752 -0.0148 -0.03973316
v 0.014216752 -0.0148 0.03973316
v 0.014216752 0.0148 -0.03973316
v 0.014216752 0.0148 0.03973316
v 0.014350629 -0.0175 -0.034645482
v 0.014350629 -0.0175 0.034645482
v 0.014350629 0.0175 -0.034645482
v 0.014350629 0.0175 0.034645482
v 0.014848997 -0.0175 -0.02778052
v 0.014848997 -0.0175 0.02778052
v 0.014848997 0.0175 -0.02778052
v 0.014848997 0.0175 0.02778052
v 0.015307337 -0.0168 -0.036955181
v 0.015307337 -0.0168 0.036955181
v 0.015307337 0.0168 -0.036955181
v 0.015307337 0.0168 0.036955181
v 0.016033316 -0.0175 -0.033899598
v 0.016033316 -0.0175 0.033899598
v 0.016033316 0.0175 -0.033899598
v 0.016033316 0.0175 0.033899598
v 0.016149241 -0.0148 -0.038987716
v 0.016149241 -0.0148 0.038987716
v 0.016149241 0.0148 -0.038987716
v 0.016149241 0.0148 0.038987716
v 0.016194236 -0.0175 -0.027018451
v 0.016194236 -0.0175 0.027018451
v 0.016194236 0.0175 -0.027018451
v 0.016194236 0.0175 0.027018451
v 0.017102204 -0.0168 -0.036159572
v 0.017102204 -0.0168 0.036159572
v 0.017102204 0.0168 -0.036159572
v 0.017102204 0.0168 0.036159572
v 0.017500462 -0.0175 -0.026191293
v 0.017500462 -0.0175 0.026191293
v 0.017500462 0.0175 -0.026191293
v 0.017500462 0.0175 0.026191293
v 0.017677378 -0.0175 -0.033072047
v 0.017677378 -0.0175 0.033072047
v 0.017677378 0.0175 -0.033072047
v 0.017677378 0.0175 0.033072047
v 0.018042825 -0.0148 -0.038148348
v 0.018042825 -0.0148 0.038148348
v 0.018042825 0.0148 -0.038148348
v 0.018042825 0.0148 0.038148348
v 0.018764528 -0.0175 -0.025301037
v 0.018764528 -0.0175 0.025301037
v 0.018764528 0.0175 -0.025301037
v 0.018764528 0.0175 0.025301037
v 0.018855869 -0.0168 -0.035276851
v 0.018855869 -0.0168 0.035276851
v 0.018855869 0.0168 -0.035276851
v 0.018855869 0.0168 0.035276851
v 0.019278853 -0.0175 -0.032164823
v 0.019278853 -0.0175 0.032164823
v 0.019278853 0.0175 -0.032164823
v 0.019278853 0.0175 0.032164823
v 0.019892942 -0.0148 -0.037217077
v 0.019892942 -0.0148 0.037217077
v 0.019892942 0.0148 -0.037217077
v 0.019892942 0.0148 0.037217077
v 0.019983388 -0.0175 -0.024349829
v 0.019983388 -0.0175 0.024349829
v 0.019983388 0.0175 -0.024349829
v 0.019983388 0.0175 0.024349829
v 0.02056411 -0.0168 -0.034309144
v 0.02056411 -0.0168 0.034309144
v 0.02056411 0.0168 -0.034309144
v 0.02056411 0.0168 0.034309144
v 0.020833884 -0.0175 -0.03118011
v 0.020833884 -0.0175 0.03118011
v 0.020833884 0.0175 -0.03118011
v 0.020833884 0.0175 0.03118011
v 0.021154107 -0.0175 -0.02333996
v 0.021154107 -0.0175 0.02333996
v 0.021154107 0.0175 -0.02333996
v 0.021154107 0.0175 0.02333996
v 0.021695136 -0.0148 -0.036196147
v 0.021695136 -0.0148 0.036196147
v 0.021695136 0.0148 -0.036196147
v 0.021695136 0.0148 0.036196147
v 0.022222809 -0.0168 -0.033258784
v 0.022222809 -0.0168 0.033258784
v 0.022222809 0.0168 -0.033258784
v 0.022222809 0.0168 0.033258784
v 0.022273864 -0.0175 -0.022273864
v 0.022273864 -0.0175 0.022273864
v 0.022273864 0.0175 -0.022273864
v 0.022273864 0.0175 0.022273864
v 0.022338724 -0.0175 -0.030120282
v 0.022338724 -0.0175 0.030120282
v 0.022338724 0.0175 -0.030120282
v 0.022338724 0.0175 0.030120282
v 0.02333996 -0.0175 -0.021154107
v 0.02333996 -0.0175 0.021154107
v 0.02333996 0.0175 -0.021154107
v 0.02333996 0.0175 0.021154107
v 0.023445064 -0.0148 -0.035088018
v 0.023445064 -0.0148 0.035088018
v 0.023445064 0.0148 -0.035088018
v 0.023445064 0.0148 0.035088018
v 0.023789748 -0.0175 -0.028987892
v 0.023789748 -0.0175 0.028987892
v 0.023789748 0.0175 -0.028987892
v 0.023789748 0.0175 0.028987892
v 0.023827972 -0.0168 -0.032128301
v 0.023827972 -0.0168 0.032128301
v 0.023827972 0.0168 -0.032128301
v 0.023827972 0.0168 0.032128301
v 0.024349829 -0.0175 -0.019983388
v 0.024349829 -0.0175 0.019983388
v 0.024349829 0.0175 -0.019983388
v 0.024349829 0.0175 0.019983388
v 0.025138511 -0.0148 -0.033895358
v 0.025138511 -0.0148 0.033895358
v 0.025138511 0.0148 -0.033895358
v 0.025138511 0.0148 0.033895358
v 0.025183461 -0.0175 -0.027785667
v 0.025183461 -0.0175 0.027785667
v 0.025183461 0.0175 -0.027785667
v 0.025183461 0.0175 0.027785667
v 0.025301037 -0.0175 -0.018764528
v 0.025301037 -0.0175 0.018764528
v 0.025301037 0.0175 -0.018764528
v 0.025301037 0.0175 0.018764528
v 0.025375731 -0.0168 -0.030920418
v 0.025375731 -0.0168 0.030920418
v 0.025375731 0.0168 -0.030920418
v 0.025375731 0.0168 0.030920418
v 0.026191293 -0.0175 -0.017500462
v 0.026191293 -0.0175 0.017500462
v 0.026191293 0.0175 -0.017500462
v 0.026191293 0.0175 0.017500462
v 0.026516504 -0.0175 -0.026516504
v 0.026516504 -0.0175 0.026516504
v 0.026516504 0.0175 -0.026516504
v 0.026516504 0.0175 0.026516504
v 0.026771397 -0.0148 -0.032621041
v 0.026771397 -0.0148 0.032621041
v 0.026771397 0.0148 -0.032621041
v 0.026771397 0.0148 0.032621041
v 0.026862358 -0.0168 -0.029638045
v 0.026862358 -0.0168 0.029638045
v 0.026862358 0.0168 -0.029638045
v 0.026862358 0.0168 0.029638045
v 0.027018451 -0.0175 -0.016194236
v 0.027018451 -0.0175 0.016194236
v 0.027018451 0.0175 -0.016194236
v 0.027018451 0.0175 0.016194236
v 0.02778052 -0.0175 -0.014848997
v 0.02778052 -0.0175 0.014848997
v 0.02778052 0.0175 -0.014848997
v 0.02778052 0.0175 0.014848997
v 0.027785667 -0.0175 -0.025183461
v 0.027785667 -0.0175 0.025183461
v 0.027785667 0.0175 -0.025183461
v 0.027785667 0.0175 0.025183461
v 0.028284271 -0.0168 -0.028284271
v 0.028284271 -0.0168 0.028284271
v 0.028284271 0.0168 -0.028284271
v 0.028284271 0.0168 0.028284271
v 0.028339788 -0.0148 -0.031268137
v 0.028339788 -0.0148 0.031268137
v 0.028339788 0.0148 -0.031268137
v 0.028339788 0.0148 0.031268137
v 0.028475663 -0.0175 -0.013467985
v 0.028475663 -0.0175 0.013467985
v 0.028475663 0.0175 -0.013467985
v 0.028475663 0.0175 0.013467985
v 0.028987892 -0.0175 -0.023789748
v 0.028987892 -0.0175 0.023789748
v 0.028987892 0.0175 -0.023789748
v 0.028987892 0.0175 0.023789748
v 0.029102205 -0.0175 -0.012054528
v 0.029102205 -0.0175 0.012054528
v 0.029102205 0.0175 -0.012054528
v 0.029102205 0.0175 0.012054528
v 0.029638045 -0.0168 -0.026862358
v 0.029638045 -0.0168 0.026862358
v 0.029638045 0.0168 -0.026862358
v 0.029638045 0.0168 0.026862358
v 0.029658638 -0.0175 -0.01061203
v 0.029658638 -0.0175 0.01061203
v 0.029658638 0.0175 -0.01061203
v 0.029658638 0.0175 0.01061203
v 0.029839906 -0.0148 -0.029839906
v 0.029839906 -0.0148 0.029839906
v 0.029839906 0.0148 -0.029839906
v 0.029839906 0.0148 0.029839906
v 0.030120282 -0.0175 -0.022338724
v 0.030120282 -0.0175 0.022338724
v 0.030120282 0.0175 -0.022338724
v 0.030120282 0.0175 0.022338724
v 0.030143621 -0.0175 -0.0091439673
v 0.030143621 -0.0175 0.0091439673
v 0.030143621 0.0175 -0.0091439673
v 0.030143621 0.0175 0.0091439673
v 0.030555984 -0.0175 -0.0076538757
v 0.030555984 -0.0175 0.0076538757
v 0.030555984 0.0175 -0.0076538757
v 0.030555984 0.0175 0.0076538757
v 0.030894736 -0.0175 -0.0061453451
v 0.030894736 -0.0175 0.0061453451
v 0.030894736 0.0175 -0.0061453451
v 0.030894736 0.0175 0.0061453451
v 0.030920418 -0.0168 -0.025375731
v 0.030920418 -0.0168 0.025375731
v 0.030920418 0.0168 -0.025375731
v 0.030920418 0.0168 0.025375731
v 0.03115906 -0.0175 -0.0046220099
v 0.03115906 -0.0175 0.0046220099
v 0.03115906 0.0175 -0.0046220099
v 0.03115906 0.0175 0.0046220099
v 0.03118011 -0.0175 -0.020833884
v 0.03118011 -0.0175 0.020833884
v 0.03118011 0.0175 -0.020833884
v 0.03118011 0.0175 0.020833884
v 0.031268137 -0.0148 -0.028339788
v 0.031268137 -0.0148 0.028339788
v 0.031268137 0.0148 -0.028339788
v 0.031268137 0.0148 0.028339788
v 0.031348319 -0.0175 -0.0030875399
v 0.031348319 -0.0175 0.0030875399
v 0.031348319 0.0175 -0.0030875399
v 0.031348319 0.0175 0.0030875399
v 0.031462057 -0.0175 -0.0015456317
v 0.031462057 -0.0175 0.0015456317
v 0.031462057 0.0175 -0.0015456317
v 0.031462057 0.0175 0.0015456317
v 0.0315 -0.0175 -7.7152748e-18
v 0.0315 -0.0175 0
v 0.0315 0.0175 -7.7152748e-18
v 0.0315 0.0175 0
v 0.032128301 -0.0168 -0.023827972
v 0.032128301 -0.0168 0.023827972
v 0.032128301 0.0168 -0.023827972
v 0.032128301 0.0168 0.023827972
v 0.032164823 -0.0175 -0.019278853
v 0.032164823 -0.0175 0.019278853
v 0.032164823 0.0175 -0.019278853
v 0.032164823 0.0175 0.019278853
v 0.032621041 -0.0148 -0.026771397
v 0.032621041 -0.0148 0.026771397
v 0.032621041 0.0148 -0.026771397
v 0.032621041 0.0148 0.026771397
v 0.033072047 -0.0175 -0.017677378
v 0.033072047 -0.0175 0.017677378
v 0.033072047 0.0175 -0.017677378
v 0.033072047 0.0175 0.017677378
v 0.033258784 -0.0168 -0.022222809
v 0.033258784 -0.0168 0.022222809
v 0.033258784 0.0168 -0.022222809
v 0.033258784 0.0168 0.022222809
v 0.033895358 -0.0148 -0.025138511
v 0.033895358 -0.0148 0.025138511
v 0.033895358 0.0148 -0.025138511
v 0.033895358 0.0148 0.025138511
v 0.033899598 -0.0175 -0.016033316
v 0.033899598 -0.0175 0.016033316
v 0.033899598 0.0175 -0.016033316
v 0.033899598 0.0175 0.016033316
v 0.034309144 -0.0168 -0.02056411
v 0.034309144 -0.0168 0.02056411
v 0.034309144 0.0168 -0.02056411
v 0.034309144 0.0168 0.02056411
v 0.034645482 -0.0175 -0.014350629
v 0.034645482 -0.0175 0.014350629
v 0.034645482 0.0175 -0.014350629
v 0.034645482 0.0175 0.014350629
v 0.035088018 -0.0148 -0.023445064
v 0.035088018 -0.0148 0.023445064
v 0.035088018 0.0148 -0.023445064
v 0.035088018 0.0148 0.023445064
v 0.035276851 -0.0168 -0.018855869
v 0.035276851 -0.0168 0.018855869
v 0.035276851 0.0168 -0.018855869
v 0.035276851 0.0168 0.018855869
v 0.035307902 -0.0175 -0.01263337
v 0.035307902 -0.0175 0.01263337
v 0.035307902 0.0175 -0.01263337
v 0.035307902 0.0175 0.01263337
v 0.035885263 -0.0175 -0.010885675
v 0.035885263 -0.0175 0.010885675
v 0.035885263 0.0175 -0.010885675
v 0.035885263 0.0175 0.010885675
v 0.036159572 -0.0168 -0.017102204
v 0.036159572 -0.0168 0.017102204
v 0.036159572 0.0168 -0.017102204
v 0.036159572 0.0168 0.017102204
v 0.036196147 -0.0148 -0.021695136
v 0.036196147 -0.0148 0.021695136
v 0.036196147 0.0148 -0.021695136
v 0.036196147 0.0148 0.021695136
v 0.036376172 -0.0175 -0.0091117567
v 0.036376172 -0.0175 0.0091117567
v 0.036376172 0.0175 -0.0091117567
v 0.036376172 0.0175 0.0091117567
v 0.036779448 -0.0175 -0.0073158871
v 0.036779448 -0.0175 0.0073158871
v 0.036779448 0.0175 -0.0073158871
v 0.036779448 0.0175 0.0073158871
v 0.036955181 -0.0168 -0.015307337
v 0.036955181 -0.0168 0.015307337
v 0.036955181 0.0168 -0.015307337
v 0.036955181 0.0168 0.015307337
v 0.037094119 -0.0175 -0.0055023928
v 0.037094119 -0.0175 0.0055023928
v 0.037094119 0.0175 -0.0055023928
v 0.037094119 0.0175 0.0055023928
v 0.037217077 -0.0148 -0.019892942
v 0.037217077 -0.0148 0.019892942
v 0.037217077 0.0148 -0.019892942
v 0.037217077 0.0148 0.019892942
v 0.037319427 -0.0175 -0.0036756428
v 0.037319427 -0.0175 0.0036756428
v 0.037319427 0.0175 -0.0036756428
v 0.037319427 0.0175 0.0036756428
v 0.03745483 -0.0175 -0.0018400378
v 0.03745483 -0.0175 0.0018400378
v 0.03745483 0.0175 -0.0018400378
v 0.03745483 0.0175 0.0018400378
v 0.0375 -0.0175 -9.184851e-18
v 0.0375 -0.0175 0
v 0.0375 0.0175 -9.184851e-18
v 0.0375 0.0175 0
v 0.037661763 -0.0168 -0.013475594
v 0.037661763 -0.0168 0.013475594
v 0.037661763 0.0168 -0.013475594
v 0.037661763 0.0168 0.013475594
v 0.038148348 -0.0148 -0.018042825
v 0.038148348 -0.0148 0.018042825
v 0.038148348 0.0148 -0.018042825
v 0.038148348 0.0148 0.018042825
v 0.038277613 -0.0168 -0.011611387
v 0.038277613 -0.0168 0.011611387
v 0.038277613 0.0168 -0.011611387
v 0.038277613 0.0168 0.011611387
v 0.03880125 -0.0168 -0.0097192072
v 0.03880125 -0.0168 0.0097192072
v 0.03880125 0.0168 -0.0097192072
v 0.03880125 0.0168 0.0097192072
v 0.038987716 -0.0148 -0.016149241
v 0.038987716 -0.0148 0.016149241
v 0.038987716 0.0148 -0.016149241
v 0.038987716 0.0148 0.016149241
v 0.039231411 -0.0168 -0.0078036129
v 0.039231411 -0.0168 0.0078036129
v 0.039231411 0.0168 -0.0078036129
v 0.039231411 0.0168 0.0078036129
v 0.03956706 -0.0168 -0.005869219
v 0.03956706 -0.0168 0.005869219
v 0.03956706 0.0168 -0.005869219
v 0.03956706 0.0168 0.005869219
v 0.03973316 -0.0148 -0.014216752
v 0.03973316 -0.0148 0.014216752
v 0.03973316 0.0148 -0.014216752
v 0.03973316 0.0148 0.014216752
v 0.039807389 -0.0168 -0.0039206856
v 0.039807389 -0.0168 0.0039206856
v 0.039807389 0.0168 -0.0039206856
v 0.039807389 0.0168 0.0039206856
v 0.039951818 -0.0168 -0.001962707
v 0.039951818 -0.0168 0.001962707
v 0.039951818 0.0168 -0.001962707
v 0.039951818 0.0168 0.001962707
v 0.04 -0.0168 -9.7971744e-18
v 0.04 -0.0168 0
v 0.04 0.0168 -9.7971744e-18
v 0.04 0.0168 0
v 0.040382882 -0.0148 -0.012250013
v 0.040382882 -0.0148 0.012250013
v 0.040382882 0.0148 -0.012250013
v 0.040382882 0.0148 0.012250013
v 0.040935319 -0.0148 -0.010253764
v 0.040935319 -0.0148 0.010253764
v 0.040935319 0.0148 -0.010253764
v 0.040935319 0.0148 0.010253764
v 0.041389139 -0.0148 -0.0082328116
v 0.041389139 -0.0148 0.0082328116
v 0.041389139 0.0148 -0.0082328116
v 0.041389139 0.0148 0.0082328116
v 0.041743249 -0.0148 -0.006192026
v 0.041743249 -0.0148 0.006192026
v 0.041743249 0.0148 -0.006192026
v 0.041743249 0.0148 0.006192026
v 0.041996795 -0.0148 -0.0041363233
v 0.041996795 -0.0148 0.0041363233
v 0.041996795 0.0148 -0.0041363233
v 0.041996795 0.0148 0.0041363233
v 0.042149168 -0.0148 -0.0020706559
v 0.042149168 -0.0148 0.0020706559
v 0.042149168 0.0148 -0.0020706559
v 0.042149168 0.0148 0.0020706559
v 0.0422 -0.0148 -1.0336019e-17
v 0.0422 -0.0148 0
v 0.0422 0.0148 -1.0336019e-17
v 0.0422 0.0148 0
f 866 958 954
f 866 954 862
f 958 1002 998
f 958 998 954
f 1002 1030 1026
f 1002 1026 998
f 1030 1032 1028
f 1030 1028 1026
f 1032 1004 1000
f 1032 1000 1028
f 1004 960 956
f 1004 956 1000
f 960 868 864
f 960 864 956
f 868 866 862
f 868 862 864
f 862 954 950
f 862 950 858
f 954 998 994
f 954 994 950
f 998 1026 1022
f 998 1022 994
f 1026 1028 1024
f 1026 1024 1022
f 1028 1000 996
f 1028 996 1024
f 1000 956 952
f 1000 952 996
f 956 864 860
f 956 860 952
f 864 862 858
f 864 858 860
f 858 950 942
f 858 942 846
f 950 994 986
f 950 986 942
f 994 1022 1018
f 994 1018 986
f 1022 1024 1020
f 1022 1020 1018
f 1024 996 988
f 1024 988 1020
f 996 952 944
f 996 944 988
f 952 860 848
f 952 848 944
f 860 858 846
f 860 846 848
f 846 942 934
f 846 934 838
f 942 986 982
f 942 982 934
f 986 1018 1014
f 986 1014 982
f 1018 1020 1016
f 1018 1016 1014
f 1020 988 984
f 1020 984 1016
f 988 944 936
f 988 936 984
f 944 848 840
f 944 840 936
f 848 846 838
f 848 838 840
f 838 934 930
f 838 930 834
f 934 982 974
f 934 974 930
f 982 1014 1010
f 982 1010 974
f 1014 1016 1012
f 1014 1012 1010
f 1016 984 976
f 1016 976 1012
f 984 936 932
f 984 932 976
f 936 840 836
f 936 836 932
f 840 838 834
f 840 834 836
f 834 930 918
f 834 918 830
f 930 974 970
f 930 970 918
f 974 1010 1006
f 974 1006 970
f 1010 1012 1008
f 1010 1008 1006
f 1012 976 972
f 1012 972 1008
f 976 932 920
f 976 920 972
f 932 836 832
f 932 832 920
f 836 834 830
f 836 830 832
f 830 918 914
f 830 914 818
f 918 970 962
f 918 962 914
f 970 1006 990
f 970 990 962
f 1006 1008 992
f 1006 992 990
f 1008 972 964
f 1008 964 992
f 972 920 916
f 972 916 964
f 920 832 820
f 920 820 916
f 832 830 818
f 832 818 820
f 818 914 902
f 818 902 810
f 914 962 938
f 914 938 902
f 962 990 978
f 962 978 938
f 990 992 980
f 990 980 978
f 992 964 940
f 992 940 980
f 964 916 904
f 964 904 940
f 916 820 812
f 916 812 904
f 820 818 810
f 820 810 812
f 810 902 894
f 810 894 802
f 902 938 922
f 902 922 894
f 938 978 966
f 938 966 922
f 978 980 968
f 978 968 966
f 980 940 924
f 980 924 968
f 940 904 896
f 940 896 924
f 904 812 804
f 904 804 896
f 812 810 802
f 812 802 804
f 802 894 882
f 802 882 786
f 894 922 910
f 894 910 882
f 922 966 946
f 922 946 910
f 966 968 948
f 966 948 946
f 968 924 912
f 968 912 948
f 924 896 884
f 924 884 912
f 896 804 788
f 896 788 884
f 804 802 786
f 804 786 788
f 786 882 874
f 786 874 782
f 882 910 898
f 882 898 874
f 910 946 926
f 910 926 898
f 946 948 928
f 946 928 926
f 948 912 900
f 948 900 928
f 912 884 876
f 912 876 900
f 884 788 784
f 884 784 876
f 788 786 782
f 788 782 784
f 782 874 850
f 782 850 766
f 874 898 886
f 874 886 850
f 898 926 906
f 898 906 886
f 926 928 908
f 926 908 906
f 928 900 888
f 928 888 908
f 900 876 852
f 900 852 888
f 876 784 768
f 876 768 852
f 784 782 766
f 784 766 768
f 766 850 826
f 766 826 758
f 850 886 870
f 850 870 826
f 886 906 890
f 886 890 870
f 906 908 892
f 906 892 890
f 908 888 872
f 908 872 892
f 888 852 828
f 888 828 872
f 852 768 760
f 852 760 828
f 768 766 758
f 768 758 760
f 758 826 806
f 758 806 746
f 826 870 842
f 826 842 806
f 870 890 878
f 870 878 842
f 890 892 880
f 890 880 878
f 892 872 844
f 892 844 880
f 872 828 808
f 872 808 844
f 828 760 748
f 828 748 808
f 760 758 746
f 760 746 748
f 746 806 790
f 746 790 730
f 806 842 814
f 806 814 790
f 842 878 854
f 842 854 814
f 878 880 856
f 878 856 854
f 880 844 816
f 880 816 856
f 844 808 792
f 844 792 816
f 808 748 732
f 808 732 792
f 748 746 730
f 748 730 732
f 730 790 770
f 730 770 722
f 790 814 794
f 790 794 770
f 814 854 822
f 814 822 794
f 854 856 824
f 854 824 822
f 856 816 796
f 856 796 824
f 816 792 772
f 816 772 796
f 792 732 724
f 792 724 772
f 732 730 722
f 732 722 724
f 722 770 754
f 722 754 710
f 770 794 778
f 770 778 754
f 794 822 798
f 794 798 778
f 822 824 800
f 822 800 798
f 824 796 780
f 824 780 800
f 796 772 756
f 796 756 780
f 772 724 712
f 772 712 756
f 724 722 710
f 724 710 712
f 710 754 738
f 710 738 698
f 754 778 762
f 754 762 738
f 778 798 774
f 778 774 762
f 798 800 776
f 798 776 774
f 800 780 764
f 800 764 776
f 780 756 740
f 780 740 764
f 756 712 700
f 756 700 740
f 712 710 698
f 712 698 700
f 698 738 726
f 698 726 682
f 738 762 742
f 738 742 726
f 762 774 750
f 762 750 742
f 774 776 752
f 774 752 750
f 776 764 744
f 776 744 752
f 764 740 728
f 764 728 744
f 740 700 684
f 740 684 728
f 700 698 682
f 700 682 684
f 682 726 706
f 682 706 670
f 726 742 718
f 726 718 706
f 742 750 734
f 742 734 718
f 750 752 736
f 750 736 734
f 752 744 720
f 752 720 736
f 744 728 708
f 744 708 720
f 728 684 672
f 728 672 708
f 684 682 670
f 684 670 672
f 670 706 690
f 670 690 662
f 706 718 702
f 706 702 690
f 718 734 714
f 718 714 702
f 734 736 716
f 734 716 714
f 736 720 704
f 736 704 716
f 720 708 692
f 720 692 704
f 708 672 664
f 708 664 692
f 672 670 662
f 672 662 664
f 662 690 674
f 662 674 646
f 690 702 686
f 690 686 674
f 702 714 694
f 702 694 686
f 714 716 696
f 714 696 694
f 716 704 688
f 716 688 696
f 704 692 676
f 704 676 688
f 692 664 648
f 692 648 676
f 664 662 646
f 664 646 648
f 646 674 654
f 646 654 630
f 674 686 666
f 674 666 654
f 686 694 678
f 686 678 666
f 694 696 680
f 694 680 678
f 696 688 668
f 696 668 680
f 688 676 656
f 688 656 668
f 676 648 632
f 676 632 656
f 648 646 630
f 648 630 632
f 630 654 642
f 630 642 618
f 654 666 650
f 654 650 642
f 666 678 658
f 666 658 650
f 678 680 660
f 678 660 658
f 680 668 652
f 680 652 660
f 668 656 644
f 668 644 652
f 656 632 620
f 656 620 644
f 632 630 618
f 632 618 620
f 618 642 626
f 618 626 606
f 642 650 634
f 642 634 626
f 650 658 638
f 650 638 634
f 658 660 640
f 658 640 638
f 660 652 636
f 660 636 640
f 652 644 628
f 652 628 636
f 644 620 608
f 644 608 628
f 620 618 606
f 620 606 608
f 606 626 610
f 606 610 594
f 626 634 614
f 626 614 610
f 634 638 622
f 634 622 614
f 638 640 624
f 638 624 622
f 640 636 616
f 640 616 624
f 636 628 612
f 636 612 616
f 628 608 596
f 628 596 612
f 608 606 594
f 608 594 596
f 594 610 590
f 594 590 578
f 610 614 598
f 610 598 590
f 614 622 602
f 614 602 598
f 622 624 604
f 622 604 602
f 624 616 600
f 624 600 604
f 616 612 592
f 616 592 600
f 612 596 580
f 612 580 592
f 596 594 578
f 596 578 580
f 578 590 574
f 578 574 566
f 590 598 582
f 590 582 574
f 598 602 586
f 598 586 582
f 602 604 588
f 602 588 586
f 604 600 584
f 604 584 588
f 600 592 576
f 600 576 584
f 592 580 568
f 592 568 576
f 580 578 566
f 580 566 568
f 566 574 558
f 566 558 554
f 574 582 562
f 574 562 558
f 582 586 570
f 582 570 562
f 586 588 572
f 586 572 570
f 588 584 564
f 588 564 572
f 584 576 560
f 584 560 564
f 576 568 556
f 576 556 560
f 568 566 554
f 568 554 556
f 554 558 542
f 554 542 538
f 558 562 546
f 558 546 542
f 562 570 550
f 562 550 546
f 570 572 552
f 570 552 550
f 572 564 548
f 572 548 552
f 564 560 544
f 564 544 548
f 560 556 540
f 560 540 544
f 556 554 538
f 556 538 540
f 538 542 526
f 538 526 522
f 542 546 530
f 542 530 526
f 546 550 534
f 546 534 530
f 550 552 536
f 550 536 534
f 552 548 532
f 552 532 536
f 548 544 528
f 548 528 532
f 544 540 524
f 544 524 528
f 540 538 522
f 540 522 524
f 522 526 515
f 522 515 513
f 526 530 517
f 526 517 515
f 530 534 519
f 530 519 517
f 534 536 520
f 534 520 519
f 536 532 518
f 536 518 520
f 532 528 516
f 532 516 518
f 528 524 514
f 528 514 516
f 524 522 513
f 524 513 514
f 513 515 498
f 513 498 502
f 515 517 494
f 515 494 498
f 517 519 490
f 517 490 494
f 519 520 492
f 519 492 490
f 520 518 496
f 520 496 492
f 518 516 500
f 518 500 496
f 516 514 504
f 516 504 500
f 514 513 502
f 514 502 504
f 502 498 482
f 502 482 486
f 498 494 478
f 498 478 482
f 494 490 474
f 494 474 478
f 490 492 476
f 490 476 474
f 492 496 480
f 492 480 476
f 496 500 484
f 496 484 480
f 500 504 488
f 500 488 484
f 504 502 486
f 504 486 488
f 486 482 466
f 486 466 470
f 482 478 462
f 482 462 466
f 478 474 454
f 478 454 462
f 474 476 456
f 474 456 454
f 476 480 464
f 476 464 456
f 480 484 468
f 480 468 464
f 484 488 472
f 484 472 468
f 488 486 470
f 488 470 472
f 470 466 450
f 470 450 458
f 466 462 442
f 466 442 450
f 462 454 438
f 462 438 442
f 454 456 440
f 454 440 438
f 456 464 444
f 456 444 440
f 464 468 452
f 464 452 444
f 468 472 460
f 468 460 452
f 472 470 458
f 472 458 460
f 458 450 434
f 458 434 446
f 450 442 426
f 450 426 434
f 442 438 422
f 442 422 426
f 438 440 424
f 438 424 422
f 440 444 428
f 440 428 424
f 444 452 436
f 444 436 428
f 452 460 448
f 452 448 436
f 460 458 446
f 460 446 448
f 446 434 414
f 446 414 430
f 434 426 410
f 434 410 414
f 426 422 402
f 426 402 410
f 422 424 404
f 422 404 402
f 424 428 412
f 424 412 404
f 428 436 416
f 428 416 412
f 436 448 432
f 436 432 416
f 448 446 430
f 448 430 432
f 430 414 398
f 430 398 418
f 414 410 390
f 414 390 398
f 410 402 386
f 410 386 390
f 402 404 388
f 402 388 386
f 404 412 392
f 404 392 388
f 412 416 400
f 412 400 392
f 416 432 420
f 416 420 400
f 432 430 418
f 432 418 420
f 418 398 382
f 418 382 406
f 398 390 374
f 398 374 382
f 390 386 366
f 390 366 374
f 386 388 368
f 386 368 366
f 388 392 376
f 388 376 368
f 392 400 384
f 392 384 376
f 400 420 408
f 400 408 384
f 420 418 406
f 420 406 408
f 406 382 370
f 406 370 394
f 382 374 358
f 382 358 370
f 374 366 346
f 374 346 358
f 366 368 348
f 366 348 346
f 368 376 360
f 368 360 348
f 376 384 372
f 376 372 360
f 384 408 396
f 384 396 372
f 408 406 394
f 408 394 396
f 394 370 350
f 394 350 378
f 370 358 338
f 370 338 350
f 358 346 330
f 358 330 338
f 346 348 332
f 346 332 330
f 348 360 340
f 348 340 332
f 360 372 352
f 360 352 340
f 372 396 380
f 372 380 352
f 396 394 378
f 396 378 380
f 378 350 334
f 378 334 362
f 350 338 322
f 350 322 334
f 338 330 310
f 338 310 322
f 330 332 312
f 330 312 310
f 332 340 324
f 332 324 312
f 340 352 336
f 340 336 324
f 352 380 364
f 352 364 336
f 380 378 362
f 380 362 364
f 362 334 318
f 362 318 354
f 334 322 306
f 334 306 318
f 322 310 290
f 322 290 306
f 310 312 292
f 310 292 290
f 312 324 308
f 312 308 292
f 324 336 320
f 324 320 308
f 336 364 356
f 336 356 320
f 364 362 354
f 364 354 356
f 354 318 298
f 354 298 342
f 318 306 282
f 318 282 298
f 306 290 274
f 306 274 282
f 290 292 276
f 290 276 274
f 292 308 284
f 292 284 276
f 308 320 300
f 308 300 284
f 320 356 344
f 320 344 300
f 356 354 342
f 356 342 344
f 342 298 286
f 342 286 326
f 298 282 262
f 298 262 286
f 282 274 250
f 282 250 262
f 274 276 252
f 274 252 250
f 276 284 264
f 276 264 252
f 284 300 288
f 284 288 264
f 300 344 328
f 300 328 288
f 344 342 326
f 344 326 328
f 326 286 270
f 326 270 314
f 286 262 246
f 286 246 270
f 262 250 226
f 262 226 246
f 250 252 228
f 250 228 226
f 252 264 248
f 252 248 228
f 264 288 272
f 264 272 248
f 288 328 316
f 288 316 272
f 328 326 314
f 328 314 316
f 314 270 254
f 314 254 302
f 270 246 230
f 270 230 254
f 246 226 202
f 246 202 230
f 226 228 204
f 226 204 202
f 228 248 232
f 228 232 204
f 248 272 256
f 248 256 232
f 272 316 304
f 272 304 256
f 316 314 302
f 316 302 304
f 302 254 234
f 302 234 294
f 254 230 210
f 254 210 234
f 230 202 170
f 230 170 210
f 202 204 172
f 202 172 170
f 204 232 212
f 204 212 172
f 232 256 236
f 232 236 212
f 256 304 296
f 256 296 236
f 304 302 294
f 304 294 296
f 294 234 218
f 294 218 278
f 234 210 182
f 234 182 218
f 210 170 148
f 210 148 182
f 170 172 150
f 170 150 148
f 172 212 184
f 172 184 150
f 212 236 220
f 212 220 184
f 236 296 280
f 236 280 220
f 296 294 278
f 296 278 280
f 278 218 198
f 278 198 266
f 218 182 156
f 218 156 198
f 182 148 136
f 182 136 156
f 148 150 138
f 148 138 136
f 150 184 158
f 150 158 138
f 184 220 200
f 184 200 158
f 220 280 268
f 220 268 200
f 280 278 266
f 280 266 268
f 266 198 174
f 266 174 258
f 198 156 140
f 198 140 174
f 156 136 120
f 156 120 140
f 136 138 122
f 136 122 120
f 138 158 142
f 138 142 122
f 158 200 176
f 158 176 142
f 200 268 260
f 200 260 176
f 268 266 258
f 268 258 260
f 258 174 152
f 258 152 242
f 174 140 128
f 174 128 152
f 140 120 100
f 140 100 128
f 120 122 102
f 120 102 100
f 122 142 130
f 122 130 102
f 142 176 154
f 142 154 130
f 176 260 244
f 176 244 154
f 260 258 242
f 260 242 244
f 242 152 144
f 242 144 238
f 152 128 116
f 152 116 144
f 128 100 80
f 128 80 116
f 100 102 82
f 100 82 80
f 102 130 118
f 102 118 82
f 130 154 146
f 130 146 118
f 154 244 240
f 154 240 146
f 244 242 238
f 244 238 240
f 238 144 132
f 238 132 222
f 144 116 104
f 144 104 132
f 116 80 62
f 116 62 104
f 80 82 64
f 80 64 62
f 82 118 106
f 82 106 64
f 118 146 134
f 118 134 106
f 146 240 224
f 146 224 134
f 240 238 222
f 240 222 224
f 222 132 124
f 222 124 214
f 132 104 88
f 132 88 124
f 104 62 50
f 104 50 88
f 62 64 52
f 62 52 50
f 64 106 90
f 64 90 52
f 106 134 126
f 106 126 90
f 134 224 216
f 134 216 126
f 224 222 214
f 224 214 216
f 214 124 112
f 214 112 206
f 124 88 66
f 124 66 112
f 88 50 38
f 88 38 66
f 50 52 40
f 50 40 38
f 52 90 68
f 52 68 40
f 90 126 114
f 90 114 68
f 126 216 208
f 126 208 114
f 216 214 206
f 216 206 208
f 206 112 108
f 206 108 194
f 112 66 58
f 112 58 108
f 66 38 24
f 66 24 58
f 38 40 26
f 38 26 24
f 40 68 60
f 40 60 26
f 68 114 110
f 68 110 60
f 114 208 196
f 114 196 110
f 208 206 194
f 208 194 196
f 194 108 96
f 194 96 190
f 108 58 54
f 108 54 96
f 58 24 20
f 58 20 54
f 24 26 22
f 24 22 20
f 26 60 56
f 26 56 22
f 60 110 98
f 60 98 56
f 110 196 192
f 110 192 98
f 196 194 190
f 196 190 192
f 190 96 92
f 190 92 186
f 96 54 46
f 96 46 92
f 54 20 16
f 54 16 46
f 20 22 18
f 20 18 16
f 22 56 48
f 22 48 18
f 56 98 94
f 56 94 48
f 98 192 188
f 98 188 94
f 192 190 186
f 192 186 188
f 186 92 84
f 186 84 178
f 92 46 42
f 92 42 84
f 46 16 12
f 46 12 42
f 16 18 14
f 16 14 12
f 18 48 44
f 18 44 14
f 48 94 86
f 48 86 44
f 94 188 180
f 94 180 86
f 188 186 178
f 188 178 180
f 178 84 76
f 178 76 166
f 84 42 34
f 84 34 76
f 42 12 8
f 42 8 34
f 12 14 10
f 12 10 8
f 14 44 36
f 14 36 10
f 44 86 78
f 44 78 36
f 86 180 168
f 86 168 78
f 180 178 166
f 180 166 168
f 166 76 72
f 166 72 162
f 76 34 30
f 76 30 72
f 34 8 4
f 34 4 30
f 8 10 6
f 8 6 4
f 10 36 32
f 10 32 6
f 36 78 74
f 36 74 32
f 78 168 164
f 78 164 74
f 168 166 162
f 168 162 164
f 162 72 69
f 162 69 159
f 72 30 27
f 72 27 69
f 30 4 1
f 30 1 27
f 4 6 2
f 4 2 1
f 6 32 28
f 6 28 2
f 32 74 70
f 32 70 28
f 74 164 160
f 74 160 70
f 164 162 159
f 164 159 160
f 159 69 71
f 159 71 161
f 69 27 29
f 69 29 71
f 27 1 3
f 27 3 29
f 1 2 5
f 1 5 3
f 2 28 31
f 2 31 5
f 28 70 73
f 28 73 31
f 70 160 163
f 70 163 73
f 160 159 161
f 160 161 163
f 161 71 75
f 161 75 165
f 71 29 33
f 71 33 75
f 29 3 7
f 29 7 33
f 3 5 9
f 3 9 7
f 5 31 35
f 5 35 9
f 31 73 77
f 31 77 35
f 73 163 167
f 73 167 77
f 163 161 165
f 163 165 167
f 165 75 83
f 165 83 177
f 75 33 41
f 75 41 83
f 33 7 11
f 33 11 41
f 7 9 13
f 7 13 11
f 9 35 43
f 9 43 13
f 35 77 85
f 35 85 43
f 77 167 179
f 77 179 85
f 167 165 177
f 167 177 179
f 177 83 91
f 177 91 185
f 83 41 45
f 83 45 91
f 41 11 15
f 41 15 45
f 11 13 17
f 11 17 15
f 13 43 47
f 13 47 17
f 43 85 93
f 43 93 47
f 85 179 187
f 85 187 93
f 179 177 185
f 179 185 187
f 185 91 95
f 185 95 189
f 91 45 53
f 91 53 95
f 45 15 19
f 45 19 53
f 15 17 21
f 15 21 19
f 17 47 55
f 17 55 21
f 47 93 97
f 47 97 55
f 93 187 191
f 93 191 97
f 187 185 189
f 187 189 191
f 189 95 107
f 189 107 193
f 95 53 57
f 95 57 107
f 53 19 23
f 53 23 57
f 19 21 25
f 19 25 23
f 21 55 59
f 21 59 25
f 55 97 109
f 55 109 59
f 97 191 195
f 97 195 109
f 191 189 193
f 191 193 195
f 193 107 111
f 193 111 205
f 107 57 65
f 107 65 111
f 57 23 37
f 57 37 65
f 23 25 39
f 23 39 37
f 25 59 67
f 25 67 39
f 59 109 113
f 59 113 67
f 109 195 207
f 109 207 113
f 195 193 205
f 195 205 207
f 205 111 123
f 205 123 213
f 111 65 87
f 111 87 123
f 65 37 49
f 65 49 87
f 37 39 51
f 37 51 49
f 39 67 89
f 39 89 51
f 67 113 125
f 67 125 89
f 113 207 215
f 113 215 125
f 207 205 213
f 207 213 215
f 213 123 131
f 213 131 221
f 123 87 103
f 123 103 131
f 87 49 61
f 87 61 103
f 49 51 63
f 49 63 61
f 51 89 105
f 51 105 63
f 89 125 133
f 89 133 105
f 125 215 223
f 125 223 133
f 215 213 221
f 215 221 223
f 221 131 143
f 221 143 237
f 131 103 115
f 131 115 143
f 103 61 79
f 103 79 115
f 61 63 81
f 61 81 79
f 63 105 117
f 63 117 81
f 105 133 145
f 105 145 117
f 133 223 239
f 133 239 145
f 223 221 237
f 223 237 239
f 237 143 151
f 237 151 241
f 143 115 127
f 143 127 151
f 115 79 99
f 115 99 127
f 79 81 101
f 79 101 99
f 81 117 129
f 81 129 101
f 117 145 153
f 117 153 129
f 145 239 243
f 145 243 153
f 239 237 241
f 239 241 243
f 241 151 173
f 241 173 257
f 151 127 139
f 151 139 173
f 127 99 119
f 127 119 139
f 99 101 121
f 99 121 119
f 101 129 141
f 101 141 121
f 129 153 175
f 129 175 141
f 153 243 259
f 153 259 175
f 243 241 257
f 243 257 259
f 257 173 197
f 257 197 265
f 173 139 155
f 173 155 197
f 139 119 135
f 139 135 155
f 119 121 137
f 119 137 135
f 121 141 157
f 121 157 137
f 141 175 199
f 141 199 157
f 175 259 267
f 175 267 199
f 259 257 265
f 259 265 267
f 265 197 217
f 265 217 277
f 197 155 181
f 197 181 217
f 155 135 147
f 155 147 181
f 135 137 149
f 135 149 147
f 137 157 183
f 137 183 149
f 157 199 219
f 157 219 183
f 199 267 279
f 199 279 219
f 267 265 277
f 267 277 279
f 277 217 233
f 277 233 293
f 217 181 209
f 217 209 233
f 181 147 169
f 181 169 209
f 147 149 171
f 147 171 169
f 149 183 211
f 149 211 171
f 183 219 235
f 183 235 211
f 219 279 295
f 219 295 235
f 279 277 293
f 279 293 295
f 293 233 253
f 293 253 301
f 233 209 229
f 233 229 253
f 209 169 201
f 209 201 229
f 169 171 203
f 169 203 201
f 171 211 231
f 171 231 203
f 211 235 255
f 211 255 231
f 235 295 303
f 235 303 255
f 295 293 301
f 295 301 303
f 301 253 269
f 301 269 313
f 253 229 245
f 253 245 269
f 229 201 225
f 229 225 245
f 201 203 227
f 201 227 225
f 203 231 247
f 203 247 227
f 231 255 271
f 231 271 247
f 255 303 315
f 255 315 271
f 303 301 313
f 303 313 315
f 313 269 285
f 313 285 325
f 269 245 261
f 269 261 285
f 245 225 249
f 245 249 261
f 225 227 251
f 225 251 249
f 227 247 263
f 227 263 251
f 247 271 287
f 247 287 263
f 271 315 327
f 271 327 287
f 315 313 325
f 315 325 327
f 325 285 297
f 325 297 341
f 285 261 281
f 285 281 297
f 261 249 273
f 261 273 281
f 249 251 275
f 249 275 273
f 251 263 283
f 251 283 275
f 263 287 299
f 263 299 283
f 287 327 343
f 287 343 299
f 327 325 341
f 327 341 343
f 341 297 317
f 341 317 353
f 297 281 305
f 297 305 317
f 281 273 289
f 281 289 305
f 273 275 291
f 273 291 289
f 275 283 307
f 275 307 291
f 283 299 319
f 283 319 307
f 299 343 355
f 299 355 319
f 343 341 353
f 343 353 355
f 353 317 333
f 353 333 361
f 317 305 321
f 317 321 333
f 305 289 309
f 305 309 321
f 289 291 311
f 289 311 309
f 291 307 323
f 291 323 311
f 307 319 335
f 307 335 323
f 319 355 363
f 319 363 335
f 355 353 361
f 355 361 363
f 361 333 349
f 361 349 377
f 333 321 337
f 333 337 349
f 321 309 329
f 321 329 337
f 309 311 331
f 309 331 329
f 311 323 339
f 311 339 331
f 323 335 351
f 323 351 339
f 335 363 379
f 335 379 351
f 363 361 377
f 363 377 379
f 377 349 369
f 377 369 393
f 349 337 357
f 349 357 369
f 337 329 345
f 337 345 357
f 329 331 347
f 329 347 345
f 331 339 359
f 331 359 347
f 339 351 371
f 339 371 359
f 351 379 395
f 351 395 371
f 379 377 393
f 379 393 395
f 393 369 381
f 393 381 405
f 369 357 373
f 369 373 381
f 357 345 365
f 357 365 373
f 345 347 367
f 345 367 365
f 347 359 375
f 347 375 367
f 359 371 383
f 359 383 375
f 371 395 407
f 371 407 383
f 395 393 405
f 395 405 407
f 405 381 397
f 405 397 417
f 381 373 389
f 381 389 397
f 373 365 385
f 373 385 389
f 365 367 387
f 365 387 385
f 367 375 391
f 367 391 387
f 375 383 399
f 375 399 391
f 383 407 419
f 383 419 399
f 407 405 417
f 407 417 419
f 417 397 413
f 417 413 429
f 397 389 409
f 397 409 413
f 389 385 401
f 389 401 409
f 385 387 403
f 385 403 401
f 387 391 411
f 387 411 403
f 391 399 415
f 391 415 411
f 399 419 431
f 399 431 415
f 419 417 429
f 419 429 431
f 429 413 433
f 429 433 445
f 413 409 425
f 413 425 433
f 409 401 421
f 409 421 425
f 401 403 423
f 401 423 421
f 403 411 427
f 403 427 423
f 411 415 435
f 411 435 427
f 415 431 447
f 415 447 435
f 431 429 445
f 431 445 447
f 445 433 449
f 445 449 457
f 433 425 441
f 433 441 449
f 425 421 437
f 425 437 441
f 421 423 439
f 421 439 437
f 423 427 443
f 423 443 439
f 427 435 451
f 427 451 443
f 435 447 459
f 435 459 451
f 447 445 457
f 447 457 459
f 457 449 465
f 457 465 469
f 449 441 461
f 449 461 465
f 441 437 453
f 441 453 461
f 437 439 455
f 437 455 453
f 439 443 463
f 439 463 455
f 443 451 467
f 443 467 463
f 451 459 471
f 451 471 467
f 459 457 469
f 459 469 471
f 469 465 481
f 469 481 485
f 465 461 477
f 465 477 481
f 461 453 473
f 461 473 477
f 453 455 475
f 453 475 473
f 455 463 479
f 455 479 475
f 463 467 483
f 463 483 479
f 467 471 487
f 467 487 483
f 471 469 485
f 471 485 487
f 485 481 497
f 485 497 501
f 481 477 493
f 481 493 497
f 477 473 489
f 477 489 493
f 473 475 491
f 473 491 489
f 475 479 495
f 475 495 491
f 479 483 499
f 479 499 495
f 483 487 503
f 483 503 499
f 487 485 501
f 487 501 503
f 501 497 509
f 501 509 511
f 497 493 507
f 497 507 509
f 493 489 505
f 493 505 507
f 489 491 506
f 489 506 505
f 491 495 508
f 491 508 506
f 495 499 510
f 495 510 508
f 499 503 512
f 499 512 510
f 503 501 511
f 503 511 512
f 511 509 525
f 511 525 521
f 509 507 529
f 509 529 525
f 507 505 533
f 507 533 529
f 505 506 535
f 505 535 533
f 506 508 531
f 506 531 535
f 508 510 527
f 508 527 531
f 510 512 523
f 510 523 527
f 512 511 521
f 512 521 523
f 521 525 541
f 521 541 537
f 525 529 545
f 525 545 541
f 529 533 549
f 529 549 545
f 533 535 551
f 533 551 549
f 535 531 547
f 535 547 551
f 531 527 543
f 531 543 547
f 527 523 539
f 527 539 543
f 523 521 537
f 523 537 539
f 537 541 557
f 537 557 553
f 541 545 561
f 541 561 557
f 545 549 569
f 545 569 561
f 549 551 571
f 549 571 569
f 551 547 563
f 551 563 571
f 547 543 559
f 547 559 563
f 543 539 555
f 543 555 559
f 539 537 553
f 539 553 555
f 553 557 573
f 553 573 565
f 557 561 581
f 557 581 573
f 561 569 585
f 561 585 581
f 569 571 587
f 569 587 585
f 571 563 583
f 571 583 587
f 563 559 575
f 563 575 583
f 559 555 567
f 559 567 575
f 555 553 565
f 555 565 567
f 565 573 589
f 565 589 577
f 573 581 597
f 573 597 589
f 581 585 601
f 581 601 597
f 585 587 603
f 585 603 601
f 587 583 599
f 587 599 603
f 583 575 591
f 583 591 599
f 575 567 579
f 575 579 591
f 567 565 577
f 567 577 579
f 577 589 609
f 577 609 593
f 589 597 613
f 589 613 609
f 597 601 621
f 597 621 613
f 601 603 623
f 601 623 621
f 603 599 615
f 603 615 623
f 599 591 611
f 599 611 615
f 591 579 595
f 591 595 611
f 579 577 593
f 579 593 595
f 593 609 625
f 593 625 605
f 609 613 633
f 609 633 625
f 613 621 637
f 613 637 633
f 621 623 639
f 621 639 637
f 623 615 635
f 623 635 639
f 615 611 627
f 615 627 635
f 611 595 607
f 611 607 627
f 595 593 605
f 595 605 607
f 605 625 641
f 605 641 617
f 625 633 649
f 625 649 641
f 633 637 657
f 633 657 649
f 637 639 659
f 637 659 657
f 639 635 651
f 639 651 659
f 635 627 643
f 635 643 651
f 627 607 619
f 627 619 643
f 607 605 617
f 607 617 619
f 617 641 653
f 617 653 629
f 641 649 665
f 641 665 653
f 649 657 677
f 649 677 665
f 657 659 679
f 657 679 677
f 659 651 667
f 659 667 679
f 651 643 655
f 651 655 667
f 643 619 631
f 643 631 655
f 619 617 629
f 619 629 631
f 629 653 673
f 629 673 645
f 653 665 685
f 653 685 673
f 665 677 693
f 665 693 685
f 677 679 695
f 677 695 693
f 679 667 687
f 679 687 695
f 667 655 675
f 667 675 687
f 655 631 647
f 655 647 675
f 631 629 645
f 631 645 647
f 645 673 689
f 645 689 661
f 673 685 701
f 673 701 689
f 685 693 713
f 685 713 701
f 693 695 715
f 693 715 713
f 695 687 703
f 695 703 715
f 687 675 691
f 687 691 703
f 675 647 663
f 675 663 691
f 647 645 661
f 647 661 663
f 661 689 705
f 661 705 669
f 689 701 717
f 689 717 705
f 701 713 733
f 701 733 717
f 713 715 735
f 713 735 733
f 715 703 719
f 715 719 735
f 703 691 707
f 703 707 719
f 691 663 671
f 691 671 707
f 663 661 669
f 663 669 671
f 669 705 725
f 669 725 681
f 705 717 741
f 705 741 725
f 717 733 749
f 717 749 741
f 733 735 751
f 733 751 749
f 735 719 743
f 735 743 751
f 719 707 727
f 719 727 743
f 707 671 683
f 707 683 727
f 671 669 681
f 671 681 683
f 681 725 737
f 681 737 697
f 725 741 761
f 725 761 737
f 741 749 773
f 741 773 761
f 749 751 775
f 749 775 773
f 751 743 763
f 751 763 775
f 743 727 739
f 743 739 763
f 727 683 699
f 727 699 739
f 683 681 697
f 683 697 699
f 697 737 753
f 697 753 709
f 737 761 777
f 737 777 753
f 761 773 797
f 761 797 777
f 773 775 799
f 773 799 797
f 775 763 779
f 775 779 799
f 763 739 755
f 763 755 779
f 739 699 711
f 739 711 755
f 699 697 709
f 699 709 711
f 709 753 769
f 709 769 721
f 753 777 793
f 753 793 769
f 777 797 821
f 777 821 793
f 797 799 823
f 797 823 821
f 799 779 795
f 799 795 823
f 779 755 771
f 779 771 795
f 755 711 723
f 755 723 771
f 711 709 721
f 711 721 723
f 721 769 789
f 721 789 729
f 769 793 813
f 769 813 789
f 793 821 853
f 793 853 813
f 821 823 855
f 821 855 853
f 823 795 815
f 823 815 855
f 795 771 791
f 795 791 815
f 771 723 731
f 771 731 791
f 723 721 729
f 723 729 731
f 729 789 805
f 729 805 745
f 789 813 841
f 789 841 805
f 813 853 877
f 813 877 841
f 853 855 879
f 853 879 877
f 855 815 843
f 855 843 879
f 815 791 807
f 815 807 843
f 791 731 747
f 791 747 807
f 731 729 745
f 731 745 747
f 745 805 825
f 745 825 757
f 805 841 869
f 805 869 825
f 841 877 889
f 841 889 869
f 877 879 891
f 877 891 889
f 879 843 871
f 879 871 891
f 843 807 827
f 843 827 871
f 807 747 759
f 807 759 827
f 747 745 757
f 747 757 759
f 757 825 849
f 757 849 765
f 825 869 885
f 825 885 849
f 869 889 905
f 869 905 885
f 889 891 907
f 889 907 905
f 891 871 887
f 891 887 907
f 871 827 851
f 871 851 887
f 827 759 767
f 827 767 851
f 759 757 765
f 759 765 767
f 765 849 873
f 765 873 781
f 849 885 897
f 849 897 873
f 885 905 925
f 885 925 897
f 905 907 927
f 905 927 925
f 907 887 899
f 907 899 927
f 887 851 875
f 887 875 899
f 851 767 783
f 851 783 875
f 767 765 781
f 767 781 783
f 781 873 881
f 781 881 785
f 873 897 909
f 873 909 881
f 897 925 945
f 897 945 909
f 925 927 947
f 925 947 945
f 927 899 911
f 927 911 947
f 899 875 883
f 899 883 911
f 875 783 787
f 875 787 883
f 783 781 785
f 783 785 787
f 785 881 893
f 785 893 801
f 881 909 921
f 881 921 893
f 909 945 965
f 909 965 921
f 945 947 967
f 945 967 965
f 947 911 923
f 947 923 967
f 911 883 895
f 911 895 923
f 883 787 803
f 883 803 895
f 787 785 801
f 787 801 803
f 801 893 901
f 801 901 809
f 893 921 937
f 893 937 901
f 921 965 977
f 921 977 937
f 965 967 979
f 965 979 977
f 967 923 939
f 967 939 979
f 923 895 903
f 923 903 939
f 895 803 811
f 895 811 903
f 803 801 809
f 803 809 811
f 809 901 913
f 809 913 817
f 901 937 961
f 901 961 913
f 937 977 989
f 937 989 961
f 977 979 991
f 977 991 989
f 979 939 963
f 979 963 991
f 939 903 915
f 939 915 963
f 903 811 819
f 903 819 915
f 811 809 817
f 811 817 819
f 817 913 917
f 817 917 829
f 913 961 969
f 913 969 917
f 961 989 1005
f 961 1005 969
f 989 991 1007
f 989 1007 1005
f 991 963 971
f 991 971 1007
f 963 915 919
f 963 919 971
f 915 819 831
f 915 831 919
f 819 817 829
f 819 829 831
f 829 917 929
f 829 929 833
f 917 969 973
f 917 973 929
f 969 1005 1009
f 969 1009 973
f 1005 1007 1011
f 1005 1011 1009
f 1007 971 975
f 1007 975 1011
f 971 919 931
f 971 931 975
f 919 831 835
f 919 835 931
f 831 829 833
f 831 833 835
f 833 929 933
f 833 933 837
f 929 973 981
f 929 981 933
f 973 1009 1013
f 973 1013 981
f 1009 1011 1015
f 1009 1015 1013
f 1011 975 983
f 1011 983 1015
f 975 931 935
f 975 935 983
f 931 835 839
f 931 839 935
f 835 833 837
f 835 837 839
f 837 933 941
f 837 941 845
f 933 981 985
f 933 985 941
f 981 1013 1017
f 981 1017 985
f 1013 1015 1019
f 1013 1019 1017
f 1015 983 987
f 1015 987 1019
f 983 935 943
f 983 943 987
f 935 839 847
f 935 847 943
f 839 837 845
f 839 845 847
f 845 941 949
f 845 949 857
f 941 985 993
f 941 993 949
f 985 1017 1021
f 985 1021 993
f 1017 1019 1023
f 1017 1023 1021
f 1019 987 995
f 1019 995 1023
f 987 943 951
f 987 951 995
f 943 847 859
f 943 859 951
f 847 845 857
f 847 857 859
f 857 949 953
f 857 953 861
f 949 993 997
f 949 997 953
f 993 1021 1025
f 993 1025 997
f 1021 1023 1027
f 1021 1027 1025
f 1023 995 999
f 1023 999 1027
f 995 951 955
f 995 955 999
f 951 859 863
f 951 863 955
f 859 857 861
f 859 861 863
f 861 953 957
f 861 957 865
f 953 997 1001
f 953 1001 957
f 997 1025 1029
f 997 1029 1001
f 1025 1027 1031
f 1025 1031 1029
f 1027 999 1003
f 1027 1003 1031
f 999 955 959
f 999 959 1003
f 955 863 867
f 955 867 959
f 863 861 865
f 863 865 867
