# Generated from the ORV RViz COLLADA asset; units: metres
v -0.009 -0.0173 1.1021821e-18
v -0.009 -0.0145 1.1021821e-18
v -0.009 0.0145 1.1021821e-18
v -0.009 0.0173 1.1021821e-18
v -0.0089566625 -0.0173 -0.00088215426
v -0.0089566625 -0.0173 0.00088215426
v -0.0089566625 -0.0145 -0.00088215426
v -0.0089566625 -0.0145 0.00088215426
v -0.0089566625 0.0145 -0.00088215426
v -0.0089566625 0.0145 0.00088215426
v -0.0089566625 0.0173 -0.00088215426
v -0.0089566625 0.0173 0.00088215426
v -0.0088270675 -0.0173 -0.0017558129
v -0.0088270675 -0.0173 0.0017558129
v -0.0088270675 -0.0145 -0.0017558129
v -0.0088270675 -0.0145 0.0017558129
v -0.0088270675 0.0145 -0.0017558129
v -0.0088270675 0.0145 0.0017558129
v -0.0088270675 0.0173 -0.0017558129
v -0.0088270675 0.0173 0.0017558129
v -0.008612463 -0.0173 -0.0026125621
v -0.008612463 -0.0173 0.0026125621
v -0.008612463 -0.0145 -0.0026125621
v -0.008612463 -0.0145 0.0026125621
v -0.008612463 0.0145 -0.0026125621
v -0.008612463 0.0145 0.0026125621
v -0.008612463 0.0173 -0.0026125621
v -0.008612463 0.0173 0.0026125621
v -0.0083149158 -0.0173 -0.0034441509
v -0.0083149158 -0.0173 0.0034441509
v -0.0083149158 -0.0145 -0.0034441509
v -0.0083149158 -0.0145 0.0034441509
v -0.0083149158 0.0145 -0.0034441509
v -0.0083149158 0.0145 0.0034441509
v -0.0083149158 0.0173 -0.0034441509
v -0.0083149158 0.0173 0.0034441509
v -0.0079372914 -0.0173 -0.0042425706
v -0.0079372914 -0.0173 0.0042425706
v -0.0079372914 -0.0145 -0.0042425706
v -0.0079372914 -0.0145 0.0042425706
v -0.0079372914 0.0145 -0.0042425706
v -0.0079372914 0.0145 0.0042425706
v -0.0079372914 0.0173 -0.0042425706
v -0.0079372914 0.0173 0.0042425706
v -0.0075 -0.0145 9.184851e-19
v -0.0075 0.0145 9.184851e-19
v -0.0074832265 -0.0173 -0.0050001321
v -0.0074832265 -0.0173 0.0050001321
v -0.0074832265 -0.0145 -0.0050001321
v -0.0074832265 -0.0145 0.0050001321
v -0.0074832265 0.0145 -0.0050001321
v -0.0074832265 0.0145 0.0050001321
v -0.0074832265 0.0173 -0.0050001321
v -0.0074832265 0.0173 0.0050001321
v -0.0074638855 -0.0145 -0.00073512855
v -0.0074638855 -0.0145 0.00073512855
v -0.0074638855 0.0145 -0.00073512855
v -0.0074638855 0.0145 0.00073512855
v -0.0073558896 -0.0145 -0.0014631774
v -0.0073558896 -0.0145 0.0014631774
v -0.0073558896 0.0145 -0.0014631774
v -0.0073558896 0.0145 0.0014631774
v -0.0071770525 -0.0145 -0.0021771351
v -0.0071770525 -0.0145 0.0021771351
v -0.0071770525 0.0145 -0.0021771351
v -0.0071770525 0.0145 0.0021771351
v -0.0069570941 -0.0173 -0.0057095396
v -0.0069570941 -0.0173 0.0057095396
v -0.0069570941 -0.0145 -0.0057095396
v -0.0069570941 -0.0145 0.0057095396
v -0.0069570941 0.0145 -0.0057095396
v -0.0069570941 0.0145 0.0057095396
v -0.0069570941 0.0173 -0.0057095396
v -0.0069570941 0.0173 0.0057095396
v -0.0069290965 -0.0145 -0.0028701257
v -0.0069290965 -0.0145 0.0028701257
v -0.0069290965 0.0145 -0.0028701257
v -0.0069290965 0.0145 0.0028701257
v -0.0066144095 -0.0145 -0.0035354755
v -0.0066144095 -0.0145 0.0035354755
v -0.0066144095 0.0145 -0.0035354755
v -0.0066144095 0.0145 0.0035354755
v -0.006363961 -0.0173 -0.006363961
v -0.006363961 -0.0173 0.006363961
v -0.006363961 -0.0145 -0.006363961
v -0.006363961 -0.0145 0.006363961
v -0.006363961 0.0145 -0.006363961
v -0.006363961 0.0145 0.006363961
v -0.006363961 0.0173 -0.006363961
v -0.006363961 0.0173 0.006363961
v -0.0062360221 -0.0145 -0.0041667767
v -0.0062360221 -0.0145 0.0041667767
v -0.0062360221 0.0145 -0.0041667767
v -0.0062360221 0.0145 0.0041667767
v -0.0057975784 -0.0145 -0.0047579496
v -0.0057975784 -0.0145 0.0047579496
v -0.0057975784 0.0145 -0.0047579496
v -0.0057975784 0.0145 0.0047579496
v -0.0057095396 -0.0173 -0.0069570941
v -0.0057095396 -0.0173 0.0069570941
v -0.0057095396 -0.0145 -0.0069570941
v -0.0057095396 -0.0145 0.0069570941
v -0.0057095396 0.0145 -0.0069570941
v -0.0057095396 0.0145 0.0069570941
v -0.0057095396 0.0173 -0.0069570941
v -0.0057095396 0.0173 0.0069570941
v -0.0053033009 -0.0145 -0.0053033009
v -0.0053033009 -0.0145 0.0053033009
v -0.0053033009 0.0145 -0.0053033009
v -0.0053033009 0.0145 0.0053033009
v -0.0050001321 -0.0173 -0.0074832265
v -0.0050001321 -0.0173 0.0074832265
v -0.0050001321 -0.0145 -0.0074832265
v -0.0050001321 -0.0145 0.0074832265
v -0.0050001321 0.0145 -0.0074832265
v -0.0050001321 0.0145 0.0074832265
v -0.0050001321 0.0173 -0.0074832265
v -0.0050001321 0.0173 0.0074832265
v -0.0047579496 -0.0145 -0.0057975784
v -0.0047579496 -0.0145 0.0057975784
v -0.0047579496 0.0145 -0.0057975784
v -0.0047579496 0.0145 0.0057975784
v -0.0042425706 -0.0173 -0.0079372914
v -0.0042425706 -0.0173 0.0079372914
v -0.0042425706 -0.0145 -0.0079372914
v -0.0042425706 -0.0145 0.0079372914
v -0.0042425706 0.0145 -0.0079372914
v -0.0042425706 0.0145 0.0079372914
v -0.0042425706 0.0173 -0.0079372914
v -0.0042425706 0.0173 0.0079372914
v -0.0041667767 -0.0145 -0.0062360221
v -0.0041667767 -0.0145 0.0062360221
v -0.0041667767 0.0145 -0.0062360221
v -0.0041667767 0.0145 0.0062360221
v -0.0035354755 -0.0145 -0.0066144095
v -0.0035354755 -0.0145 0.0066144095
v -0.0035354755 0.0145 -0.0066144095
v -0.0035354755 0.0145 0.0066144095
v -0.0034441509 -0.0173 -0.0083149158
v -0.0034441509 -0.0173 0.0083149158
v -0.0034441509 -0.0145 -0.0083149158
v -0.0034441509 -0.0145 0.0083149158
v -0.0034441509 0.0145 -0.0083149158
v -0.0034441509 0.0145 0.0083149158
v -0.0034441509 0.0173 -0.0083149158
v -0.0034441509 0.0173 0.0083149158
v -0.0032 -0.0173 3.9188698e-19
v -0.0032 -0.0145 3.9188698e-19
v -0.0032 0.0145 3.9188698e-19
v -0.0032 0.0173 3.9188698e-19
v -0.0031845911 -0.0173 -0.00031365485
v -0.0031845911 -0.0173 0.00031365485
v -0.0031845911 -0.0145 -0.00031365485
v -0.0031845911 -0.0145 0.00031365485
v -0.0031845911 0.0145 -0.00031365485
v -0.0031845911 0.0145 0.00031365485
v -0.0031845911 0.0173 -0.00031365485
v -0.0031845911 0.0173 0.00031365485
v -0.0031385129 -0.0173 -0.00062428903
v -0.0031385129 -0.0173 0.00062428903
v -0.0031385129 -0.0145 -0.00062428903
v -0.0031385129 -0.0145 0.00062428903
v -0.0031385129 0.0145 -0.00062428903
v -0.0031385129 0.0145 0.00062428903
v -0.0031385129 0.0173 -0.00062428903
v -0.0031385129 0.0173 0.00062428903
v -0.0030622091 -0.0173 -0.00092891097
v -0.0030622091 -0.0173 0.00092891097
v -0.0030622091 -0.0145 -0.00092891097
v -0.0030622091 -0.0145 0.00092891097
v -0.0030622091 0.0145 -0.00092891097
v -0.0030622091 0.0145 0.00092891097
v -0.0030622091 0.0173 -0.00092891097
v -0.0030622091 0.0173 0.00092891097
v -0.0029564145 -0.0173 -0.001224587
v -0.0029564145 -0.0173 0.001224587
v -0.0029564145 -0.0145 -0.001224587
v -0.0029564145 -0.0145 0.001224587
v -0.0029564145 0.0145 -0.001224587
v -0.0029564145 0.0145 0.001224587
v -0.0029564145 0.0173 -0.001224587
v -0.0029564145 0.0173 0.001224587
v -0.0028701257 -0.0145 -0.0069290965
v -0.0028701257 -0.0145 0.0069290965
v -0.0028701257 0.0145 -0.0069290965
v -0.0028701257 0.0145 0.0069290965
v -0.002822148 -0.0173 -0.0015084696
v -0.002822148 -0.0173 0.0015084696
v -0.002822148 -0.0145 -0.0015084696
v -0.002822148 -0.0145 0.0015084696
v -0.002822148 0.0145 -0.0015084696
v -0.002822148 0.0145 0.0015084696
v -0.002822148 0.0173 -0.0015084696
v -0.002822148 0.0173 0.0015084696
v -0.0026607028 -0.0173 -0.0017778247
v -0.0026607028 -0.0173 0.0017778247
v -0.0026607028 -0.0145 -0.0017778247
v -0.0026607028 -0.0145 0.0017778247
v -0.0026607028 0.0145 -0.0017778247
v -0.0026607028 0.0145 0.0017778247
v -0.0026607028 0.0173 -0.0017778247
v -0.0026607028 0.0173 0.0017778247
v -0.0026125621 -0.0173 -0.008612463
v -0.0026125621 -0.0173 0.008612463
v -0.0026125621 -0.0145 -0.008612463
v -0.0026125621 -0.0145 0.008612463
v -0.0026125621 0.0145 -0.008612463
v -0.0026125621 0.0145 0.008612463
v -0.0026125621 0.0173 -0.008612463
v -0.0026125621 0.0173 0.008612463
v -0.0024736335 -0.0173 -0.0020300585
v -0.0024736335 -0.0173 0.0020300585
v -0.0024736335 -0.0145 -0.0020300585
v -0.0024736335 -0.0145 0.0020300585
v -0.0024736335 0.0145 -0.0020300585
v -0.0024736335 0.0145 0.0020300585
v -0.0024736335 0.0173 -0.0020300585
v -0.0024736335 0.0173 0.0020300585
v -0.0022627417 -0.0173 -0.0022627417
v -0.0022627417 -0.0173 0.0022627417
v -0.0022627417 -0.0145 -0.0022627417
v -0.0022627417 -0.0145 0.0022627417
v -0.0022627417 0.0145 -0.0022627417
v -0.0022627417 0.0145 0.0022627417
v -0.0022627417 0.0173 -0.0022627417
v -0.0022627417 0.0173 0.0022627417
v -0.0021771351 -0.0145 -0.0071770525
v -0.0021771351 -0.0145 0.0071770525
v -0.0021771351 0.0145 -0.0071770525
v -0.0021771351 0.0145 0.0071770525
v -0.0020300585 -0.0173 -0.0024736335
v -0.0020300585 -0.0173 0.0024736335
v -0.0020300585 -0.0145 -0.0024736335
v -0.0020300585 -0.0145 0.0024736335
v -0.0020300585 0.0145 -0.0024736335
v -0.0020300585 0.0145 0.0024736335
v -0.0020300585 0.0173 -0.0024736335
v -0.0020300585 0.0173 0.0024736335
v -0.0017778247 -0.0173 -0.0026607028
v -0.0017778247 -0.0173 0.0026607028
v -0.0017778247 -0.0145 -0.0026607028
v -0.0017778247 -0.0145 0.0026607028
v -0.0017778247 0.0145 -0.0026607028
v -0.0017778247 0.0145 0.0026607028
v -0.0017778247 0.0173 -0.0026607028
v -0.0017778247 0.0173 0.0026607028
v -0.0017558129 -0.0173 -0.0088270675
v -0.0017558129 -0.0173 0.0088270675
v -0.0017558129 -0.0145 -0.0088270675
v -0.0017558129 -0.0145 0.0088270675
v -0.0017558129 0.0145 -0.0088270675
v -0.0017558129 0.0145 0.0088270675
v -0.0017558129 0.0173 -0.0088270675
v -0.0017558129 0.0173 0.0088270675
v -0.0015084696 -0.0173 -0.002822148
v -0.0015084696 -0.0173 0.002822148
v -0.0015084696 -0.0145 -0.002822148
v -0.0015084696 -0.0145 0.002822148
v -0.0015084696 0.0145 -0.002822148
v -0.0015084696 0.0145 0.002822148
v -0.0015084696 0.0173 -0.002822148
v -0.0015084696 0.0173 0.002822148
v -0.0014631774 -0.0145 -0.0073558896
v -0.0014631774 -0.0145 0.0073558896
v -0.0014631774 0.0145 -0.0073558896
v -0.0014631774 0.0145 0.0073558896
v -0.001224587 -0.0173 -0.0029564145
v -0.001224587 -0.0173 0.0029564145
v -0.001224587 -0.0145 -0.0029564145
v -0.001224587 -0.0145 0.0029564145
v -0.001224587 0.0145 -0.0029564145
v -0.001224587 0.0145 0.0029564145
v -0.001224587 0.0173 -0.0029564145
v -0.001224587 0.0173 0.0029564145
v -0.00092891097 -0.0173 -0.0030622091
v -0.00092891097 -0.0173 0.0030622091
v -0.00092891097 -0.0145 -0.0030622091
v -0.00092891097 -0.0145 0.0030622091
v -0.00092891097 0.0145 -0.0030622091
v -0.00092891097 0.0145 0.0030622091
v -0.00092891097 0.0173 -0.0030622091
v -0.00092891097 0.0173 0.0030622091
v -0.00088215426 -0.0173 -0.0089566625
v -0.00088215426 -0.0173 0.0089566625
v -0.00088215426 -0.0145 -0.0089566625
v -0.00088215426 -0.0145 0.0089566625
v -0.00088215426 0.0145 -0.0089566625
v -0.00088215426 0.0145 0.0089566625
v -0.00088215426 0.0173 -0.0089566625
v -0.00088215426 0.0173 0.0089566625
v -0.00073512855 -0.0145 -0.0074638855
v -0.00073512855 -0.0145 0.0074638855
v -0.00073512855 0.0145 -0.0074638855
v -0.00073512855 0.0145 0.0074638855
v -0.00062428903 -0.0173 -0.0031385129
v -0.00062428903 -0.0173 0.0031385129
v -0.00062428903 -0.0145 -0.0031385129
v -0.00062428903 -0.0145 0.0031385129
v -0.00062428903 0.0145 -0.0031385129
v -0.00062428903 0.0145 0.0031385129
v -0.00062428903 0.0173 -0.0031385129
v -0.00062428903 0.0173 0.0031385129
v -0.00031365485 -0.0173 -0.0031845911
v -0.00031365485 -0.0173 0.0031845911
v -0.00031365485 -0.0145 -0.0031845911
v -0.00031365485 -0.0145 0.0031845911
v -0.00031365485 0.0145 -0.0031845911
v -0.00031365485 0.0145 0.0031845911
v -0.00031365485 0.0173 -0.0031845911
v -0.00031365485 0.0173 0.0031845911
v -1.6532732e-18 -0.0173 -0.009
v -1.6532732e-18 -0.0145 -0.009
v -1.6532732e-18 0.0145 -0.009
v -1.6532732e-18 0.0173 -0.009
v -1.3777276e-18 -0.0145 -0.0075
v -1.3777276e-18 0.0145 -0.0075
v -5.8783046e-19 -0.0173 -0.0032
v -5.8783046e-19 -0.0145 -0.0032
v -5.8783046e-19 0.0145 -0.0032
v -5.8783046e-19 0.0173 -0.0032
v 1.9594349e-19 -0.0173 0.0032
v 1.9594349e-19 -0.0145 0.0032
v 1.9594349e-19 0.0145 0.0032
v 1.9594349e-19 0.0173 0.0032
v 4.5924255e-19 -0.0145 0.0075
v 4.5924255e-19 0.0145 0.0075
v 5.5109106e-19 -0.0173 0.009
v 5.5109106e-19 -0.0145 0.009
v 5.5109106e-19 0.0145 0.009
v 5.5109106e-19 0.0173 0.009
v 0.00031365485 -0.0173 -0.0031845911
v 0.00031365485 -0.0173 0.0031845911
v 0.00031365485 -0.0145 -0.0031845911
v 0.00031365485 -0.0145 0.0031845911
v 0.00031365485 0.0145 -0.0031845911
v 0.00031365485 0.0145 0.0031845911
v 0.00031365485 0.0173 -0.0031845911
v 0.00031365485 0.0173 0.0031845911
v 0.00062428903 -0.0173 -0.0031385129
v 0.00062428903 -0.0173 0.0031385129
v 0.00062428903 -0.0145 -0.0031385129
v 0.00062428903 -0.0145 0.0031385129
v 0.00062428903 0.0145 -0.0031385129
v 0.00062428903 0.0145 0.0031385129
v 0.00062428903 0.0173 -0.0031385129
v 0.00062428903 0.0173 0.0031385129
v 0.00073512855 -0.0145 -0.0074638855
v 0.00073512855 -0.0145 0.0074638855
v 0.00073512855 0.0145 -0.0074638855
v 0.00073512855 0.0145 0.0074638855
v 0.00088215426 -0.0173 -0.0089566625
v 0.00088215426 -0.0173 0.0089566625
v 0.00088215426 -0.0145 -0.0089566625
v 0.00088215426 -0.0145 0.0089566625
v 0.00088215426 0.0145 -0.0089566625
v 0.00088215426 0.0145 0.0089566625
v 0.00088215426 0.0173 -0.0089566625
v 0.00088215426 0.0173 0.0089566625
v 0.00092891097 -0.0173 -0.0030622091
v 0.00092891097 -0.0173 0.0030622091
v 0.00092891097 -0.0145 -0.0030622091
v 0.00092891097 -0.0145 0.0030622091
v 0.00092891097 0.0145 -0.0030622091
v 0.00092891097 0.0145 0.0030622091
v 0.00092891097 0.0173 -0.0030622091
v 0.00092891097 0.0173 0.0030622091
v 0.001224587 -0.0173 -0.0029564145
v 0.001224587 -0.0173 0.0029564145
v 0.001224587 -0.0145 -0.0029564145
v 0.001224587 -0.0145 0.0029564145
v 0.001224587 0.0145 -0.0029564145
v 0.001224587 0.0145 0.0029564145
v 0.001224587 0.0173 -0.0029564145
v 0.001224587 0.0173 0.0029564145
v 0.0014631774 -0.0145 -0.0073558896
v 0.0014631774 -0.0145 0.0073558896
v 0.0014631774 0.0145 -0.0073558896
v 0.0014631774 0.0145 0.0073558896
v 0.0015084696 -0.0173 -0.002822148
v 0.0015084696 -0.0173 0.002822148
v 0.0015084696 -0.0145 -0.002822148
v 0.0015084696 -0.0145 0.002822148
v 0.0015084696 0.0145 -0.002822148
v 0.0015084696 0.0145 0.002822148
v 0.0015084696 0.0173 -0.002822148
v 0.0015084696 0.0173 0.002822148
v 0.0017558129 -0.0173 -0.0088270675
v 0.0017558129 -0.0173 0.0088270675
v 0.0017558129 -0.0145 -0.0088270675
v 0.0017558129 -0.0145 0.0088270675
v 0.0017558129 0.0145 -0.0088270675
v 0.0017558129 0.0145 0.0088270675
v 0.0017558129 0.0173 -0.0088270675
v 0.0017558129 0.0173 0.0088270675
v 0.0017778247 -0.0173 -0.0026607028
v 0.0017778247 -0.0173 0.0026607028
v 0.0017778247 -0.0145 -0.0026607028
v 0.0017778247 -0.0145 0.0026607028
v 0.0017778247 0.0145 -0.0026607028
v 0.0017778247 0.0145 0.0026607028
v 0.0017778247 0.0173 -0.0026607028
v 0.0017778247 0.0173 0.0026607028
v 0.0020300585 -0.0173 -0.0024736335
v 0.0020300585 -0.0173 0.0024736335
v 0.0020300585 -0.0145 -0.0024736335
v 0.0020300585 -0.0145 0.0024736335
v 0.0020300585 0.0145 -0.0024736335
v 0.0020300585 0.0145 0.0024736335
v 0.0020300585 0.0173 -0.0024736335
v 0.0020300585 0.0173 0.0024736335
v 0.0021771351 -0.0145 -0.0071770525
v 0.0021771351 -0.0145 0.0071770525
v 0.0021771351 0.0145 -0.0071770525
v 0.0021771351 0.0145 0.0071770525
v 0.0022627417 -0.0173 -0.0022627417
v 0.0022627417 -0.0173 0.0022627417
v 0.0022627417 -0.0145 -0.0022627417
v 0.0022627417 -0.0145 0.0022627417
v 0.0022627417 0.0145 -0.0022627417
v 0.0022627417 0.0145 0.0022627417
v 0.0022627417 0.0173 -0.0022627417
v 0.0022627417 0.0173 0.0022627417
v 0.0024736335 -0.0173 -0.0020300585
v 0.0024736335 -0.0173 0.0020300585
v 0.0024736335 -0.0145 -0.0020300585
v 0.0024736335 -0.0145 0.0020300585
v 0.0024736335 0.0145 -0.0020300585
v 0.0024736335 0.0145 0.0020300585
v 0.0024736335 0.0173 -0.0020300585
v 0.0024736335 0.0173 0.0020300585
v 0.0026125621 -0.0173 -0.008612463
v 0.0026125621 -0.0173 0.008612463
v 0.0026125621 -0.0145 -0.008612463
v 0.0026125621 -0.0145 0.008612463
v 0.0026125621 0.0145 -0.008612463
v 0.0026125621 0.0145 0.008612463
v 0.0026125621 0.0173 -0.008612463
v 0.0026125621 0.0173 0.008612463
v 0.0026607028 -0.0173 -0.0017778247
v 0.0026607028 -0.0173 0.0017778247
v 0.0026607028 -0.0145 -0.0017778247
v 0.0026607028 -0.0145 0.0017778247
v 0.0026607028 0.0145 -0.0017778247
v 0.0026607028 0.0145 0.0017778247
v 0.0026607028 0.0173 -0.0017778247
v 0.0026607028 0.0173 0.0017778247
v 0.002822148 -0.0173 -0.0015084696
v 0.002822148 -0.0173 0.0015084696
v 0.002822148 -0.0145 -0.0015084696
v 0.002822148 -0.0145 0.0015084696
v 0.002822148 0.0145 -0.0015084696
v 0.002822148 0.0145 0.0015084696
v 0.002822148 0.0173 -0.0015084696
v 0.002822148 0.0173 0.0015084696
v 0.0028701257 -0.0145 -0.0069290965
v 0.0028701257 -0.0145 0.0069290965
v 0.0028701257 0.0145 -0.0069290965
v 0.0028701257 0.0145 0.0069290965
v 0.0029564145 -0.0173 -0.001224587
v 0.0029564145 -0.0173 0.001224587
v 0.0029564145 -0.0145 -0.001224587
v 0.0029564145 -0.0145 0.001224587
v 0.0029564145 0.0145 -0.001224587
v 0.0029564145 0.0145 0.001224587
v 0.0029564145 0.0173 -0.001224587
v 0.0029564145 0.0173 0.001224587
v 0.0030622091 -0.0173 -0.00092891097
v 0.0030622091 -0.0173 0.00092891097
v 0.0030622091 -0.0145 -0.00092891097
v 0.0030622091 -0.0145 0.00092891097
v 0.0030622091 0.0145 -0.00092891097
v 0.0030622091 0.0145 0.00092891097
v 0.0030622091 0.0173 -0.00092891097
v 0.0030622091 0.0173 0.00092891097
v 0.0031385129 -0.0173 -0.00062428903
v 0.0031385129 -0.0173 0.00062428903
v 0.0031385129 -0.0145 -0.00062428903
v 0.0031385129 -0.0145 0.00062428903
v 0.0031385129 0.0145 -0.00062428903
v 0.0031385129 0.0145 0.00062428903
v 0.0031385129 0.0173 -0.00062428903
v 0.0031385129 0.0173 0.00062428903
v 0.0031845911 -0.0173 -0.00031365485
v 0.0031845911 -0.0173 0.00031365485
v 0.0031845911 -0.0145 -0.00031365485
v 0.0031845911 -0.0145 0.00031365485
v 0.0031845911 0.0145 -0.00031365485
v 0.0031845911 0.0145 0.00031365485
v 0.0031845911 0.0173 -0.00031365485
v 0.0031845911 0.0173 0.00031365485
v 0.0032 -0.0173 -7.8377395e-19
v 0.0032 -0.0173 0
v 0.0032 -0.0145 -7.8377395e-19
v 0.0032 -0.0145 0
v 0.0032 0.0145 -7.8377395e-19
v 0.0032 0.0145 0
v 0.0032 0.0173 -7.8377395e-19
v 0.0032 0.0173 0
v 0.0034441509 -0.0173 -0.0083149158
v 0.0034441509 -0.0173 0.0083149158
v 0.0034441509 -0.0145 -0.0083149158
v 0.0034441509 -0.0145 0.0083149158
v 0.0034441509 0.0145 -0.0083149158
v 0.0034441509 0.0145 0.0083149158
v 0.0034441509 0.0173 -0.0083149158
v 0.0034441509 0.0173 0.0083149158
v 0.0035354755 -0.0145 -0.0066144095
v 0.0035354755 -0.0145 0.0066144095
v 0.0035354755 0.0145 -0.0066144095
v 0.0035354755 0.0145 0.0066144095
v 0.0041667767 -0.0145 -0.0062360221
v 0.0041667767 -0.0145 0.0062360221
v 0.0041667767 0.0145 -0.0062360221
v 0.0041667767 0.0145 0.0062360221
v 0.0042425706 -0.0173 -0.0079372914
v 0.0042425706 -0.0173 0.0079372914
v 0.0042425706 -0.0145 -0.0079372914
v 0.0042425706 -0.0145 0.0079372914
v 0.0042425706 0.0145 -0.0079372914
v 0.0042425706 0.0145 0.0079372914
v 0.0042425706 0.0173 -0.0079372914
v 0.0042425706 0.0173 0.0079372914
v 0.0047579496 -0.0145 -0.0057975784
v 0.0047579496 -0.0145 0.0057975784
v 0.0047579496 0.0145 -0.0057975784
v 0.0047579496 0.0145 0.0057975784
v 0.0050001321 -0.0173 -0.0074832265
v 0.0050001321 -0.0173 0.0074832265
v 0.0050001321 -0.0145 -0.0074832265
v 0.0050001321 -0.0145 0.0074832265
v 0.0050001321 0.0145 -0.0074832265
v 0.0050001321 0.0145 0.0074832265
v 0.0050001321 0.0173 -0.0074832265
v 0.0050001321 0.0173 0.0074832265
v 0.0053033009 -0.0145 -0.0053033009
v 0.0053033009 -0.0145 0.0053033009
v 0.0053033009 0.0145 -0.0053033009
v 0.0053033009 0.0145 0.0053033009
v 0.0057095396 -0.0173 -0.0069570941
v 0.0057095396 -0.0173 0.0069570941
v 0.0057095396 -0.0145 -0.0069570941
v 0.0057095396 -0.0145 0.0069570941
v 0.0057095396 0.0145 -0.0069570941
v 0.0057095396 0.0145 0.0069570941
v 0.0057095396 0.0173 -0.0069570941
v 0.0057095396 0.0173 0.0069570941
v 0.0057975784 -0.0145 -0.0047579496
v 0.0057975784 -0.0145 0.0047579496
v 0.0057975784 0.0145 -0.0047579496
v 0.0057975784 0.0145 0.0047579496
v 0.0062360221 -0.0145 -0.0041667767
v 0.0062360221 -0.0145 0.0041667767
v 0.0062360221 0.0145 -0.0041667767
v 0.0062360221 0.0145 0.0041667767
v 0.006363961 -0.0173 -0.006363961
v 0.006363961 -0.0173 0.006363961
v 0.006363961 -0.0145 -0.006363961
v 0.006363961 -0.0145 0.006363961
v 0.006363961 0.0145 -0.006363961
v 0.006363961 0.0145 0.006363961
v 0.006363961 0.0173 -0.006363961
v 0.006363961 0.0173 0.006363961
v 0.0066144095 -0.0145 -0.0035354755
v 0.0066144095 -0.0145 0.0035354755
v 0.0066144095 0.0145 -0.0035354755
v 0.0066144095 0.0145 0.0035354755
v 0.0069290965 -0.0145 -0.0028701257
v 0.0069290965 -0.0145 0.0028701257
v 0.0069290965 0.0145 -0.0028701257
v 0.0069290965 0.0145 0.0028701257
v 0.0069570941 -0.0173 -0.0057095396
v 0.0069570941 -0.0173 0.0057095396
v 0.0069570941 -0.0145 -0.0057095396
v 0.0069570941 -0.0145 0.0057095396
v 0.0069570941 0.0145 -0.0057095396
v 0.0069570941 0.0145 0.0057095396
v 0.0069570941 0.0173 -0.0057095396
v 0.0069570941 0.0173 0.0057095396
v 0.0071770525 -0.0145 -0.0021771351
v 0.0071770525 -0.0145 0.0021771351
v 0.0071770525 0.0145 -0.0021771351
v 0.0071770525 0.0145 0.0021771351
v 0.0073558896 -0.0145 -0.0014631774
v 0.0073558896 -0.0145 0.0014631774
v 0.0073558896 0.0145 -0.0014631774
v 0.0073558896 0.0145 0.0014631774
v 0.0074638855 -0.0145 -0.00073512855
v 0.0074638855 -0.0145 0.00073512855
v 0.0074638855 0.0145 -0.00073512855
v 0.0074638855 0.0145 0.00073512855
v 0.0074832265 -0.0173 -0.0050001321
v 0.0074832265 -0.0173 0.0050001321
v 0.0074832265 -0.0145 -0.0050001321
v 0.0074832265 -0.0145 0.0050001321
v 0.0074832265 0.0145 -0.0050001321
v 0.0074832265 0.0145 0.0050001321
v 0.0074832265 0.0173 -0.0050001321
v 0.0074832265 0.0173 0.0050001321
v 0.0075 -0.0145 -1.8369702e-18
v 0.0075 -0.0145 0
v 0.0075 0.0145 -1.8369702e-18
v 0.0075 0.0145 0
v 0.0079372914 -0.0173 -0.0042425706
v 0.0079372914 -0.0173 0.0042425706
v 0.0079372914 -0.0145 -0.0042425706
v 0.0079372914 -0.0145 0.0042425706
v 0.0079372914 0.0145 -0.0042425706
v 0.0079372914 0.0145 0.0042425706
v 0.0079372914 0.0173 -0.0042425706
v 0.0079372914 0.0173 0.0042425706
v 0.0083149158 -0.0173 -0.0034441509
v 0.0083149158 -0.0173 0.0034441509
v 0.0083149158 -0.0145 -0.0034441509
v 0.0083149158 -0.0145 0.0034441509
v 0.0083149158 0.0145 -0.0034441509
v 0.0083149158 0.0145 0.0034441509
v 0.0083149158 0.0173 -0.0034441509
v 0.0083149158 0.0173 0.0034441509
v 0.008612463 -0.0173 -0.0026125621
v 0.008612463 -0.0173 0.0026125621
v 0.008612463 -0.0145 -0.0026125621
v 0.008612463 -0.0145 0.0026125621
v 0.008612463 0.0145 -0.0026125621
v 0.008612463 0.0145 0.0026125621
v 0.008612463 0.0173 -0.0026125621
v 0.008612463 0.0173 0.0026125621
v 0.0088270675 -0.0173 -0.0017558129
v 0.0088270675 -0.0173 0.0017558129
v 0.0088270675 -0.0145 -0.0017558129
v 0.0088270675 -0.0145 0.0017558129
v 0.0088270675 0.0145 -0.0017558129
v 0.0088270675 0.0145 0.0017558129
v 0.0088270675 0.0173 -0.0017558129
v 0.0088270675 0.0173 0.0017558129
v 0.0089566625 -0.0173 -0.00088215426
v 0.0089566625 -0.0173 0.00088215426
v 0.0089566625 -0.0145 -0.00088215426
v 0.0089566625 -0.0145 0.00088215426
v 0.0089566625 0.0145 -0.00088215426
v 0.0089566625 0.0145 0.00088215426
v 0.0089566625 0.0173 -0.00088215426
v 0.0089566625 0.0173 0.00088215426
v 0.009 -0.0173 -2.2043642e-18
v 0.009 -0.0173 0
v 0.009 -0.0145 -2.2043642e-18
v 0.009 -0.0145 0
v 0.009 0.0145 -2.2043642e-18
v 0.009 0.0145 0
v 0.009 0.0173 -2.2043642e-18
v 0.009 0.0173 0
f 492 644 636
f 492 636 484
f 644 646 638
f 644 638 636
f 646 494 486
f 646 486 638
f 494 492 484
f 494 484 486
f 484 636 628
f 484 628 476
f 636 638 630
f 636 630 628
f 638 486 478
f 638 478 630
f 486 484 476
f 486 476 478
f 476 628 620
f 476 620 468
f 628 630 622
f 628 622 620
f 630 478 470
f 630 470 622
f 478 476 468
f 478 468 470
f 468 620 612
f 468 612 460
f 620 622 614
f 620 614 612
f 622 470 462
f 622 462 614
f 470 468 460
f 470 460 462
f 460 612 604
f 460 604 448
f 612 614 606
f 612 606 604
f 614 462 450
f 614 450 606
f 462 460 448
f 462 448 450
f 448 604 592
f 448 592 440
f 604 606 594
f 604 594 592
f 606 450 442
f 606 442 594
f 450 448 440
f 450 440 442
f 440 592 572
f 440 572 424
f 592 594 574
f 592 574 572
f 594 442 426
f 594 426 574
f 442 440 424
f 442 424 426
f 424 572 556
f 424 556 416
f 572 574 558
f 572 558 556
f 574 426 418
f 574 418 558
f 426 424 416
f 426 416 418
f 416 556 540
f 416 540 404
f 556 558 542
f 556 542 540
f 558 418 406
f 558 406 542
f 418 416 404
f 418 404 406
f 404 540 528
f 404 528 396
f 540 542 530
f 540 530 528
f 542 406 398
f 542 398 530
f 406 404 396
f 406 396 398
f 396 528 516
f 396 516 380
f 528 530 518
f 528 518 516
f 530 398 382
f 530 382 518
f 398 396 380
f 398 380 382
f 380 516 500
f 380 500 368
f 516 518 502
f 516 502 500
f 518 382 370
f 518 370 502
f 382 380 368
f 382 368 370
f 368 500 432
f 368 432 360
f 500 502 434
f 500 434 432
f 502 370 362
f 502 362 434
f 370 368 360
f 370 360 362
f 360 432 388
f 360 388 340
f 432 434 390
f 432 390 388
f 434 362 342
f 434 342 390
f 362 360 340
f 362 340 342
f 340 388 352
f 340 352 332
f 388 390 354
f 388 354 352
f 390 342 334
f 390 334 354
f 342 340 332
f 342 332 334
f 332 352 327
f 332 327 321
f 352 354 328
f 352 328 327
f 354 334 322
f 354 322 328
f 334 332 321
f 334 321 322
f 321 327 284
f 321 284 304
f 327 328 286
f 327 286 284
f 328 322 306
f 328 306 286
f 322 321 304
f 322 304 306
f 304 284 248
f 304 248 296
f 284 286 250
f 284 250 248
f 286 306 298
f 286 298 250
f 306 304 296
f 306 296 298
f 296 248 204
f 296 204 276
f 248 250 206
f 248 206 204
f 250 298 278
f 250 278 206
f 298 296 276
f 298 276 278
f 276 204 140
f 276 140 268
f 204 206 142
f 204 142 140
f 206 278 270
f 206 270 142
f 278 276 268
f 278 268 270
f 268 140 124
f 268 124 256
f 140 142 126
f 140 126 124
f 142 270 258
f 142 258 126
f 270 268 256
f 270 256 258
f 256 124 112
f 256 112 240
f 124 126 114
f 124 114 112
f 126 258 242
f 126 242 114
f 258 256 240
f 258 240 242
f 240 112 100
f 240 100 232
f 112 114 102
f 112 102 100
f 114 242 234
f 114 234 102
f 242 240 232
f 242 232 234
f 232 100 84
f 232 84 220
f 100 102 86
f 100 86 84
f 102 234 222
f 102 222 86
f 234 232 220
f 234 220 222
f 220 84 68
f 220 68 212
f 84 86 70
f 84 70 68
f 86 222 214
f 86 214 70
f 222 220 212
f 222 212 214
f 212 68 48
f 212 48 196
f 68 70 50
f 68 50 48
f 70 214 198
f 70 198 50
f 214 212 196
f 214 196 198
f 196 48 38
f 196 38 188
f 48 50 40
f 48 40 38
f 50 198 190
f 50 190 40
f 198 196 188
f 198 188 190
f 188 38 30
f 188 30 176
f 38 40 32
f 38 32 30
f 40 190 178
f 40 178 32
f 190 188 176
f 190 176 178
f 176 30 22
f 176 22 168
f 30 32 24
f 30 24 22
f 32 178 170
f 32 170 24
f 178 176 168
f 178 168 170
f 168 22 14
f 168 14 160
f 22 24 16
f 22 16 14
f 24 170 162
f 24 162 16
f 170 168 160
f 170 160 162
f 160 14 6
f 160 6 152
f 14 16 8
f 14 8 6
f 16 162 154
f 16 154 8
f 162 160 152
f 162 152 154
f 152 6 1
f 152 1 147
f 6 8 2
f 6 2 1
f 8 154 148
f 8 148 2
f 154 152 147
f 154 147 148
f 147 1 5
f 147 5 151
f 1 2 7
f 1 7 5
f 2 148 153
f 2 153 7
f 148 147 151
f 148 151 153
f 151 5 13
f 151 13 159
f 5 7 15
f 5 15 13
f 7 153 161
f 7 161 15
f 153 151 159
f 153 159 161
f 159 13 21
f 159 21 167
f 13 15 23
f 13 23 21
f 15 161 169
f 15 169 23
f 161 159 167
f 161 167 169
f 167 21 29
f 167 29 175
f 21 23 31
f 21 31 29
f 23 169 177
f 23 177 31
f 169 167 175
f 169 175 177
f 175 29 37
f 175 37 187
f 29 31 39
f 29 39 37
f 31 177 189
f 31 189 39
f 177 175 187
f 177 187 189
f 187 37 47
f 187 47 195
f 37 39 49
f 37 49 47
f 39 189 197
f 39 197 49
f 189 187 195
f 189 195 197
f 195 47 67
f 195 67 211
f 47 49 69
f 47 69 67
f 49 197 213
f 49 213 69
f 197 195 211
f 197 211 213
f 211 67 83
f 211 83 219
f 67 69 85
f 67 85 83
f 69 213 221
f 69 221 85
f 213 211 219
f 213 219 221
f 219 83 99
f 219 99 231
f 83 85 101
f 83 101 99
f 85 221 233
f 85 233 101
f 221 219 231
f 221 231 233
f 231 99 111
f 231 111 239
f 99 101 113
f 99 113 111
f 101 233 241
f 101 241 113
f 233 231 239
f 233 239 241
f 239 111 123
f 239 123 255
f 111 113 125
f 111 125 123
f 113 241 257
f 113 257 125
f 241 239 255
f 241 255 257
f 255 123 139
f 255 139 267
f 123 125 141
f 123 141 139
f 125 257 269
f 125 269 141
f 257 255 267
f 257 267 269
f 267 139 203
f 267 203 275
f 139 141 205
f 139 205 203
f 141 269 277
f 141 277 205
f 269 267 275
f 269 275 277
f 275 203 247
f 275 247 295
f 203 205 249
f 203 249 247
f 205 277 297
f 205 297 249
f 277 275 295
f 277 295 297
f 295 247 283
f 295 283 303
f 247 249 285
f 247 285 283
f 249 297 305
f 249 305 285
f 297 295 303
f 297 303 305
f 303 283 311
f 303 311 317
f 283 285 312
f 283 312 311
f 285 305 318
f 285 318 312
f 305 303 317
f 305 317 318
f 317 311 351
f 317 351 331
f 311 312 353
f 311 353 351
f 312 318 333
f 312 333 353
f 318 317 331
f 318 331 333
f 331 351 387
f 331 387 339
f 351 353 389
f 351 389 387
f 353 333 341
f 353 341 389
f 333 331 339
f 333 339 341
f 339 387 431
f 339 431 359
f 387 389 433
f 387 433 431
f 389 341 361
f 389 361 433
f 341 339 359
f 341 359 361
f 359 431 499
f 359 499 367
f 431 433 501
f 431 501 499
f 433 361 369
f 433 369 501
f 361 359 367
f 361 367 369
f 367 499 515
f 367 515 379
f 499 501 517
f 499 517 515
f 501 369 381
f 501 381 517
f 369 367 379
f 369 379 381
f 379 515 527
f 379 527 395
f 515 517 529
f 515 529 527
f 517 381 397
f 517 397 529
f 381 379 395
f 381 395 397
f 395 527 539
f 395 539 403
f 527 529 541
f 527 541 539
f 529 397 405
f 529 405 541
f 397 395 403
f 397 403 405
f 403 539 555
f 403 555 415
f 539 541 557
f 539 557 555
f 541 405 417
f 541 417 557
f 405 403 415
f 405 415 417
f 415 555 571
f 415 571 423
f 555 557 573
f 555 573 571
f 557 417 425
f 557 425 573
f 417 415 423
f 417 423 425
f 423 571 591
f 423 591 439
f 571 573 593
f 571 593 591
f 573 425 441
f 573 441 593
f 425 423 439
f 425 439 441
f 439 591 603
f 439 603 447
f 591 593 605
f 591 605 603
f 593 441 449
f 593 449 605
f 441 439 447
f 441 447 449
f 447 603 611
f 447 611 459
f 603 605 613
f 603 613 611
f 605 449 461
f 605 461 613
f 449 447 459
f 449 459 461
f 459 611 619
f 459 619 467
f 611 613 621
f 611 621 619
f 613 461 469
f 613 469 621
f 461 459 467
f 461 467 469
f 467 619 627
f 467 627 475
f 619 621 629
f 619 629 627
f 621 469 477
f 621 477 629
f 469 467 475
f 469 475 477
f 475 627 635
f 475 635 483
f 627 629 637
f 627 637 635
f 629 477 485
f 629 485 637
f 477 475 483
f 477 483 485
f 483 635 643
f 483 643 491
f 635 637 645
f 635 645 643
f 637 485 493
f 637 493 645
f 485 483 491
f 485 491 493
f 496 648 640
f 496 640 488
f 648 650 642
f 648 642 640
f 650 498 490
f 650 490 642
f 498 496 488
f 498 488 490
f 488 640 632
f 488 632 480
f 640 642 634
f 640 634 632
f 642 490 482
f 642 482 634
f 490 488 480
f 490 480 482
f 480 632 624
f 480 624 472
f 632 634 626
f 632 626 624
f 634 482 474
f 634 474 626
f 482 480 472
f 482 472 474
f 472 624 616
f 472 616 464
f 624 626 618
f 624 618 616
f 626 474 466
f 626 466 618
f 474 472 464
f 474 464 466
f 464 616 608
f 464 608 452
f 616 618 610
f 616 610 608
f 618 466 454
f 618 454 610
f 466 464 452
f 466 452 454
f 452 608 596
f 452 596 444
f 608 610 598
f 608 598 596
f 610 454 446
f 610 446 598
f 454 452 444
f 454 444 446
f 444 596 576
f 444 576 428
f 596 598 578
f 596 578 576
f 598 446 430
f 598 430 578
f 446 444 428
f 446 428 430
f 428 576 560
f 428 560 420
f 576 578 562
f 576 562 560
f 578 430 422
f 578 422 562
f 430 428 420
f 430 420 422
f 420 560 544
f 420 544 408
f 560 562 546
f 560 546 544
f 562 422 410
f 562 410 546
f 422 420 408
f 422 408 410
f 408 544 532
f 408 532 400
f 544 546 534
f 544 534 532
f 546 410 402
f 546 402 534
f 410 408 400
f 410 400 402
f 400 532 520
f 400 520 384
f 532 534 522
f 532 522 520
f 534 402 386
f 534 386 522
f 402 400 384
f 402 384 386
f 384 520 504
f 384 504 372
f 520 522 506
f 520 506 504
f 522 386 374
f 522 374 506
f 386 384 372
f 386 372 374
f 372 504 436
f 372 436 364
f 504 506 438
f 504 438 436
f 506 374 366
f 506 366 438
f 374 372 364
f 374 364 366
f 364 436 392
f 364 392 344
f 436 438 394
f 436 394 392
f 438 366 346
f 438 346 394
f 366 364 344
f 366 344 346
f 344 392 356
f 344 356 336
f 392 394 358
f 392 358 356
f 394 346 338
f 394 338 358
f 346 344 336
f 346 336 338
f 336 356 329
f 336 329 323
f 356 358 330
f 356 330 329
f 358 338 324
f 358 324 330
f 338 336 323
f 338 323 324
f 323 329 288
f 323 288 308
f 329 330 290
f 329 290 288
f 330 324 310
f 330 310 290
f 324 323 308
f 324 308 310
f 308 288 252
f 308 252 300
f 288 290 254
f 288 254 252
f 290 310 302
f 290 302 254
f 310 308 300
f 310 300 302
f 300 252 208
f 300 208 280
f 252 254 210
f 252 210 208
f 254 302 282
f 254 282 210
f 302 300 280
f 302 280 282
f 280 208 144
f 280 144 272
f 208 210 146
f 208 146 144
f 210 282 274
f 210 274 146
f 282 280 272
f 282 272 274
f 272 144 128
f 272 128 260
f 144 146 130
f 144 130 128
f 146 274 262
f 146 262 130
f 274 272 260
f 274 260 262
f 260 128 116
f 260 116 244
f 128 130 118
f 128 118 116
f 130 262 246
f 130 246 118
f 262 260 244
f 262 244 246
f 244 116 104
f 244 104 236
f 116 118 106
f 116 106 104
f 118 246 238
f 118 238 106
f 246 244 236
f 246 236 238
f 236 104 88
f 236 88 224
f 104 106 90
f 104 90 88
f 106 238 226
f 106 226 90
f 238 236 224
f 238 224 226
f 224 88 72
f 224 72 216
f 88 90 74
f 88 74 72
f 90 226 218
f 90 218 74
f 226 224 216
f 226 216 218
f 216 72 52
f 216 52 200
f 72 74 54
f 72 54 52
f 74 218 202
f 74 202 54
f 218 216 200
f 218 200 202
f 200 52 42
f 200 42 192
f 52 54 44
f 52 44 42
f 54 202 194
f 54 194 44
f 202 200 192
f 202 192 194
f 192 42 34
f 192 34 180
f 42 44 36
f 42 36 34
f 44 194 182
f 44 182 36
f 194 192 180
f 194 180 182
f 180 34 26
f 180 26 172
f 34 36 28
f 34 28 26
f 36 182 174
f 36 174 28
f 182 180 172
f 182 172 174
f 172 26 18
f 172 18 164
f 26 28 20
f 26 20 18
f 28 174 166
f 28 166 20
f 174 172 164
f 174 164 166
f 164 18 10
f 164 10 156
f 18 20 12
f 18 12 10
f 20 166 158
f 20 158 12
f 166 164 156
f 166 156 158
f 156 10 3
f 156 3 149
f 10 12 4
f 10 4 3
f 12 158 150
f 12 150 4
f 158 156 149
f 158 149 150
f 149 3 9
f 149 9 155
f 3 4 11
f 3 11 9
f 4 150 157
f 4 157 11
f 150 149 155
f 150 155 157
f 155 9 17
f 155 17 163
f 9 11 19
f 9 19 17
f 11 157 165
f 11 165 19
f 157 155 163
f 157 163 165
f 163 17 25
f 163 25 171
f 17 19 27
f 17 27 25
f 19 165 173
f 19 173 27
f 165 163 171
f 165 171 173
f 171 25 33
f 171 33 179
f 25 27 35
f 25 35 33
f 27 173 181
f 27 181 35
f 173 171 179
f 173 179 181
f 179 33 41
f 179 41 191
f 33 35 43
f 33 43 41
f 35 181 193
f 35 193 43
f 181 179 191
f 181 191 193
f 191 41 51
f 191 51 199
f 41 43 53
f 41 53 51
f 43 193 201
f 43 201 53
f 193 191 199
f 193 199 201
f 199 51 71
f 199 71 215
f 51 53 73
f 51 73 71
f 53 201 217
f 53 217 73
f 201 199 215
f 201 215 217
f 215 71 87
f 215 87 223
f 71 73 89
f 71 89 87
f 73 217 225
f 73 225 89
f 217 215 223
f 217 223 225
f 223 87 103
f 223 103 235
f 87 89 105
f 87 105 103
f 89 225 237
f 89 237 105
f 225 223 235
f 225 235 237
f 235 103 115
f 235 115 243
f 103 105 117
f 103 117 115
f 105 237 245
f 105 245 117
f 237 235 243
f 237 243 245
f 243 115 127
f 243 127 259
f 115 117 129
f 115 129 127
f 117 245 261
f 117 261 129
f 245 243 259
f 245 259 261
f 259 127 143
f 259 143 271
f 127 129 145
f 127 145 143
f 129 261 273
f 129 273 145
f 261 259 271
f 261 271 273
f 271 143 207
f 271 207 279
f 143 145 209
f 143 209 207
f 145 273 281
f 145 281 209
f 273 271 279
f 273 279 281
f 279 207 251
f 279 251 299
f 207 209 253
f 207 253 251
f 209 281 301
f 209 301 253
f 281 279 299
f 281 299 301
f 299 251 287
f 299 287 307
f 251 253 289
f 251 289 287
f 253 301 309
f 253 309 289
f 301 299 307
f 301 307 309
f 307 287 313
f 307 313 319
f 287 289 314
f 287 314 313
f 289 309 320
f 289 320 314
f 309 307 319
f 309 319 320
f 319 313 355
f 319 355 335
f 313 314 357
f 313 357 355
f 314 320 337
f 314 337 357
f 320 319 335
f 320 335 337
f 335 355 391
f 335 391 343
f 355 357 393
f 355 393 391
f 357 337 345
f 357 345 393
f 337 335 343
f 337 343 345
f 343 391 435
f 343 435 363
f 391 393 437
f 391 437 435
f 393 345 365
f 393 365 437
f 345 343 363
f 345 363 365
f 363 435 503
f 363 503 371
f 435 437 505
f 435 505 503
f 437 365 373
f 437 373 505
f 365 363 371
f 365 371 373
f 371 503 519
f 371 519 383
f 503 505 521
f 503 521 519
f 505 373 385
f 505 385 521
f 373 371 383
f 373 383 385
f 383 519 531
f 383 531 399
f 519 521 533
f 519 533 531
f 521 385 401
f 521 401 533
f 385 383 399
f 385 399 401
f 399 531 543
f 399 543 407
f 531 533 545
f 531 545 543
f 533 401 409
f 533 409 545
f 401 399 407
f 401 407 409
f 407 543 559
f 407 559 419
f 543 545 561
f 543 561 559
f 545 409 421
f 545 421 561
f 409 407 419
f 409 419 421
f 419 559 575
f 419 575 427
f 559 561 577
f 559 577 575
f 561 421 429
f 561 429 577
f 421 419 427
f 421 427 429
f 427 575 595
f 427 595 443
f 575 577 597
f 575 597 595
f 577 429 445
f 577 445 597
f 429 427 443
f 429 443 445
f 443 595 607
f 443 607 451
f 595 597 609
f 595 609 607
f 597 445 453
f 597 453 609
f 445 443 451
f 445 451 453
f 451 607 615
f 451 615 463
f 607 609 617
f 607 617 615
f 609 453 465
f 609 465 617
f 453 451 463
f 453 463 465
f 463 615 623
f 463 623 471
f 615 617 625
f 615 625 623
f 617 465 473
f 617 473 625
f 465 463 471
f 465 471 473
f 471 623 631
f 471 631 479
f 623 625 633
f 623 633 631
f 625 473 481
f 625 481 633
f 473 471 479
f 473 479 481
f 479 631 639
f 479 639 487
f 631 633 641
f 631 641 639
f 633 481 489
f 633 489 641
f 481 479 487
f 481 487 489
f 487 639 647
f 487 647 495
f 639 641 649
f 639 649 647
f 641 489 497
f 641 497 649
f 489 487 495
f 489 495 497
f 494 600 588
f 494 588 486
f 600 602 590
f 600 590 588
f 602 496 488
f 602 488 590
f 496 494 486
f 496 486 488
f 486 588 584
f 486 584 478
f 588 590 586
f 588 586 584
f 590 488 480
f 590 480 586
f 488 486 478
f 488 478 480
f 478 584 580
f 478 580 470
f 584 586 582
f 584 582 580
f 586 480 472
f 586 472 582
f 480 478 470
f 480 470 472
f 470 580 568
f 470 568 462
f 580 582 570
f 580 570 568
f 582 472 464
f 582 464 570
f 472 470 462
f 472 462 464
f 462 568 564
f 462 564 450
f 568 570 566
f 568 566 564
f 570 464 452
f 570 452 566
f 464 462 450
f 464 450 452
f 450 564 552
f 450 552 442
f 564 566 554
f 564 554 552
f 566 452 444
f 566 444 554
f 452 450 442
f 452 442 444
f 442 552 548
f 442 548 426
f 552 554 550
f 552 550 548
f 554 444 428
f 554 428 550
f 444 442 426
f 444 426 428
f 426 548 536
f 426 536 418
f 548 550 538
f 548 538 536
f 550 428 420
f 550 420 538
f 428 426 418
f 428 418 420
f 418 536 524
f 418 524 406
f 536 538 526
f 536 526 524
f 538 420 408
f 538 408 526
f 420 418 406
f 420 406 408
f 406 524 512
f 406 512 398
f 524 526 514
f 524 514 512
f 526 408 400
f 526 400 514
f 408 406 398
f 408 398 400
f 398 512 508
f 398 508 382
f 512 514 510
f 512 510 508
f 514 400 384
f 514 384 510
f 400 398 382
f 400 382 384
f 382 508 456
f 382 456 370
f 508 510 458
f 508 458 456
f 510 384 372
f 510 372 458
f 384 382 370
f 384 370 372
f 370 456 412
f 370 412 362
f 456 458 414
f 456 414 412
f 458 372 364
f 458 364 414
f 372 370 362
f 372 362 364
f 362 412 376
f 362 376 342
f 412 414 378
f 412 378 376
f 414 364 344
f 414 344 378
f 364 362 342
f 364 342 344
f 342 376 348
f 342 348 334
f 376 378 350
f 376 350 348
f 378 344 336
f 378 336 350
f 344 342 334
f 344 334 336
f 334 348 325
f 334 325 322
f 348 350 326
f 348 326 325
f 350 336 323
f 350 323 326
f 336 334 322
f 336 322 323
f 322 325 292
f 322 292 306
f 325 326 294
f 325 294 292
f 326 323 308
f 326 308 294
f 323 322 306
f 323 306 308
f 306 292 264
f 306 264 298
f 292 294 266
f 292 266 264
f 294 308 300
f 294 300 266
f 308 306 298
f 308 298 300
f 298 264 228
f 298 228 278
f 264 266 230
f 264 230 228
f 266 300 280
f 266 280 230
f 300 298 278
f 300 278 280
f 278 228 184
f 278 184 270
f 228 230 186
f 228 186 184
f 230 280 272
f 230 272 186
f 280 278 270
f 280 270 272
f 270 184 136
f 270 136 258
f 184 186 138
f 184 138 136
f 186 272 260
f 186 260 138
f 272 270 258
f 272 258 260
f 258 136 132
f 258 132 242
f 136 138 134
f 136 134 132
f 138 260 244
f 138 244 134
f 260 258 242
f 260 242 244
f 242 132 120
f 242 120 234
f 132 134 122
f 132 122 120
f 134 244 236
f 134 236 122
f 244 242 234
f 244 234 236
f 234 120 108
f 234 108 222
f 120 122 110
f 120 110 108
f 122 236 224
f 122 224 110
f 236 234 222
f 236 222 224
f 222 108 96
f 222 96 214
f 108 110 98
f 108 98 96
f 110 224 216
f 110 216 98
f 224 222 214
f 224 214 216
f 214 96 92
f 214 92 198
f 96 98 94
f 96 94 92
f 98 216 200
f 98 200 94
f 216 214 198
f 216 198 200
f 198 92 80
f 198 80 190
f 92 94 82
f 92 82 80
f 94 200 192
f 94 192 82
f 200 198 190
f 200 190 192
f 190 80 76
f 190 76 178
f 80 82 78
f 80 78 76
f 82 192 180
f 82 180 78
f 192 190 178
f 192 178 180
f 178 76 64
f 178 64 170
f 76 78 66
f 76 66 64
f 78 180 172
f 78 172 66
f 180 178 170
f 180 170 172
f 170 64 60
f 170 60 162
f 64 66 62
f 64 62 60
f 66 172 164
f 66 164 62
f 172 170 162
f 172 162 164
f 162 60 56
f 162 56 154
f 60 62 58
f 60 58 56
f 62 164 156
f 62 156 58
f 164 162 154
f 164 154 156
f 154 56 45
f 154 45 148
f 56 58 46
f 56 46 45
f 58 156 149
f 58 149 46
f 156 154 148
f 156 148 149
f 148 45 55
f 148 55 153
f 45 46 57
f 45 57 55
f 46 149 155
f 46 155 57
f 149 148 153
f 149 153 155
f 153 55 59
f 153 59 161
f 55 57 61
f 55 61 59
f 57 155 163
f 57 163 61
f 155 153 161
f 155 161 163
f 161 59 63
f 161 63 169
f 59 61 65
f 59 65 63
f 61 163 171
f 61 171 65
f 163 161 169
f 163 169 171
f 169 63 75
f 169 75 177
f 63 65 77
f 63 77 75
f 65 171 179
f 65 179 77
f 171 169 177
f 171 177 179
f 177 75 79
f 177 79 189
f 75 77 81
f 75 81 79
f 77 179 191
f 77 191 81
f 179 177 189
f 179 189 191
f 189 79 91
f 189 91 197
f 79 81 93
f 79 93 91
f 81 191 199
f 81 199 93
f 191 189 197
f 191 197 199
f 197 91 95
f 197 95 213
f 91 93 97
f 91 97 95
f 93 199 215
f 93 215 97
f 199 197 213
f 199 213 215
f 213 95 107
f 213 107 221
f 95 97 109
f 95 109 107
f 97 215 223
f 97 223 109
f 215 213 221
f 215 221 223
f 221 107 119
f 221 119 233
f 107 109 121
f 107 121 119
f 109 223 235
f 109 235 121
f 223 221 233
f 223 233 235
f 233 119 131
f 233 131 241
f 119 121 133
f 119 133 131
f 121 235 243
f 121 243 133
f 235 233 241
f 235 241 243
f 241 131 135
f 241 135 257
f 131 133 137
f 131 137 135
f 133 243 259
f 133 259 137
f 243 241 257
f 243 257 259
f 257 135 183
f 257 183 269
f 135 137 185
f 135 185 183
f 137 259 271
f 137 271 185
f 259 257 269
f 259 269 271
f 269 183 227
f 269 227 277
f 183 185 229
f 183 229 227
f 185 271 279
f 185 279 229
f 271 269 277
f 271 277 279
f 277 227 263
f 277 263 297
f 227 229 265
f 227 265 263
f 229 279 299
f 229 299 265
f 279 277 297
f 279 297 299
f 297 263 291
f 297 291 305
f 263 265 293
f 263 293 291
f 265 299 307
f 265 307 293
f 299 297 305
f 299 305 307
f 305 291 315
f 305 315 318
f 291 293 316
f 291 316 315
f 293 307 319
f 293 319 316
f 307 305 318
f 307 318 319
f 318 315 347
f 318 347 333
f 315 316 349
f 315 349 347
f 316 319 335
f 316 335 349
f 319 318 333
f 319 333 335
f 333 347 375
f 333 375 341
f 347 349 377
f 347 377 375
f 349 335 343
f 349 343 377
f 335 333 341
f 335 341 343
f 341 375 411
f 341 411 361
f 375 377 413
f 375 413 411
f 377 343 363
f 377 363 413
f 343 341 361
f 343 361 363
f 361 411 455
f 361 455 369
f 411 413 457
f 411 457 455
f 413 363 371
f 413 371 457
f 363 361 369
f 363 369 371
f 369 455 507
f 369 507 381
f 455 457 509
f 455 509 507
f 457 371 383
f 457 383 509
f 371 369 381
f 371 381 383
f 381 507 511
f 381 511 397
f 507 509 513
f 507 513 511
f 509 383 399
f 509 399 513
f 383 381 397
f 383 397 399
f 397 511 523
f 397 523 405
f 511 513 525
f 511 525 523
f 513 399 407
f 513 407 525
f 399 397 405
f 399 405 407
f 405 523 535
f 405 535 417
f 523 525 537
f 523 537 535
f 525 407 419
f 525 419 537
f 407 405 417
f 407 417 419
f 417 535 547
f 417 547 425
f 535 537 549
f 535 549 547
f 537 419 427
f 537 427 549
f 419 417 425
f 419 425 427
f 425 547 551
f 425 551 441
f 547 549 553
f 547 553 551
f 549 427 443
f 549 443 553
f 427 425 441
f 427 441 443
f 441 551 563
f 441 563 449
f 551 553 565
f 551 565 563
f 553 443 451
f 553 451 565
f 443 441 449
f 443 449 451
f 449 563 567
f 449 567 461
f 563 565 569
f 563 569 567
f 565 451 463
f 565 463 569
f 451 449 461
f 451 461 463
f 461 567 579
f 461 579 469
f 567 569 581
f 567 581 579
f 569 463 471
f 569 471 581
f 463 461 469
f 463 469 471
f 469 579 583
f 469 583 477
f 579 581 585
f 579 585 583
f 581 471 479
f 581 479 585
f 471 469 477
f 471 477 479
f 477 583 587
f 477 587 485
f 583 585 589
f 583 589 587
f 585 479 487
f 585 487 589
f 479 477 485
f 479 485 487
f 485 587 599
f 485 599 493
f 587 589 601
f 587 601 599
f 589 487 495
f 589 495 601
f 487 485 493
f 487 493 495
