# Generated from the ORV RViz COLLADA asset; units: metres
v 0.12055333 -0.071048171 0.031664447
v 0.12055333 0.071004926 0.031664447
v 0.12061688 -0.071704708 0.031593308
v 0.12061688 -0.070391634 0.031593308
v 0.12061688 0.07034839 0.031593308
v 0.12061688 0.071661463 0.031593308
v 0.12080322 -0.072316502 0.03138474
v 0.12080322 -0.06977984 0.03138474
v 0.12080322 0.069736595 0.03138474
v 0.12080322 0.072273258 0.03138474
v 0.12109964 -0.072841862 0.031052955
v 0.12109964 -0.06925448 0.031052955
v 0.12109964 0.069211235 0.031052955
v 0.12109964 0.072798618 0.031052955
v 0.12127072 -0.071048171 0.032467433
v 0.12127072 0.071004926 0.032467433
v 0.12133428 -0.071704708 0.032396294
v 0.12133428 -0.070391634 0.032396294
v 0.12133428 0.07034839 0.032396294
v 0.12133428 0.071661463 0.032396294
v 0.12148594 -0.073244985 0.030620565
v 0.12148594 -0.068851357 0.030620565
v 0.12148594 0.068808112 0.030620565
v 0.12148594 0.07320174 0.030620565
v 0.12152062 -0.072316502 0.032187725
v 0.12152062 -0.06977984 0.032187725
v 0.12152062 0.069736595 0.032187725
v 0.12152062 0.072273258 0.032187725
v 0.12181704 -0.072841862 0.031855941
v 0.12181704 -0.06925448 0.031855941
v 0.12181704 0.069211235 0.031855941
v 0.12181704 0.072798618 0.031855941
v 0.1219358 -0.073498399 0.030117037
v 0.1219358 -0.068597943 0.030117037
v 0.1219358 0.068554699 0.030117037
v 0.1219358 0.073455154 0.030117037
v 0.12220334 -0.073244985 0.031423551
v 0.12220334 -0.068851357 0.031423551
v 0.12220334 0.068808112 0.031423551
v 0.12220334 0.07320174 0.031423551
v 0.12241856 -0.073584833 0.029576684
v 0.12241856 -0.068511509 0.029576684
v 0.12241856 0.068468264 0.029576684
v 0.12241856 0.073541589 0.029576684
v 0.1226532 -0.073498399 0.030920023
v 0.1226532 -0.068597943 0.030920023
v 0.1226532 0.068554699 0.030920023
v 0.1226532 0.073455154 0.030920023
v 0.12290132 -0.073498399 0.029036331
v 0.12290132 -0.068597943 0.029036331
v 0.12290132 0.068554699 0.029036331
v 0.12290132 0.073455154 0.029036331
v 0.12313595 -0.073584833 0.03037967
v 0.12313595 -0.071048171 0.03037967
v 0.12313595 -0.068511509 0.03037967
v 0.12313595 0.068468264 0.03037967
v 0.12313595 0.071004926 0.03037967
v 0.12313595 0.073541589 0.03037967
v 0.12335117 -0.073244985 0.028532803
v 0.12335117 -0.068851357 0.028532803
v 0.12335117 0.068808112 0.028532803
v 0.12335117 0.07320174 0.028532803
v 0.12361871 -0.073498399 0.029839317
v 0.12361871 -0.068597943 0.029839317
v 0.12361871 0.068554699 0.029839317
v 0.12361871 0.073455154 0.029839317
v 0.12373747 -0.072841862 0.028100413
v 0.12373747 -0.06925448 0.028100413
v 0.12373747 0.069211235 0.028100413
v 0.12373747 0.072798618 0.028100413
v 0.12403389 -0.072316502 0.027768629
v 0.12403389 -0.06977984 0.027768629
v 0.12403389 0.069736595 0.027768629
v 0.12403389 0.072273258 0.027768629
v 0.12406857 -0.073244985 0.029335788
v 0.12406857 -0.068851357 0.029335788
v 0.12406857 0.068808112 0.029335788
v 0.12406857 0.07320174 0.029335788
v 0.12422023 -0.071704708 0.02756006
v 0.12422023 -0.070391634 0.02756006
v 0.12422023 0.07034839 0.02756006
v 0.12422023 0.071661463 0.02756006
v 0.12428379 -0.071048171 0.027488921
v 0.12428379 0.071004926 0.027488921
v 0.12445487 -0.072841862 0.028903399
v 0.12445487 -0.06925448 0.028903399
v 0.12445487 0.069211235 0.028903399
v 0.12445487 0.072798618 0.028903399
v 0.12475129 -0.072316502 0.028571614
v 0.12475129 -0.06977984 0.028571614
v 0.12475129 0.069736595 0.028571614
v 0.12475129 0.072273258 0.028571614
v 0.12493763 -0.071704708 0.028363046
v 0.12493763 -0.070391634 0.028363046
v 0.12493763 0.07034839 0.028363046
v 0.12493763 0.071661463 0.028363046
v 0.12500118 -0.071048171 0.028291907
v 0.12500118 0.071004926 0.028291907
v 0.13698906 -0.068121253 0.013267837
v 0.13698906 0.068078008 0.013267837
v 0.13705261 -0.068777789 0.013196698
v 0.13705261 -0.067464716 0.013196698
v 0.13705261 0.067421472 0.013196698
v 0.13705261 0.068734545 0.013196698
v 0.13723895 -0.069389584 0.01298813
v 0.13723895 -0.066852922 0.01298813
v 0.13723895 0.066809677 0.01298813
v 0.13723895 0.069346339 0.01298813
v 0.13753537 -0.069914944 0.012656345
v 0.13753537 -0.066327562 0.012656345
v 0.13753537 0.066284317 0.012656345
v 0.13753537 0.069871699 0.012656345
v 0.13770645 -0.068121253 0.014070822
v 0.13770645 0.068078008 0.014070822
v 0.13777001 -0.068777789 0.013999684
v 0.13777001 -0.067464716 0.013999684
v 0.13777001 0.067421472 0.013999684
v 0.13777001 0.068734545 0.013999684
v 0.13792167 -0.070318067 0.012223955
v 0.13792167 -0.065924439 0.012223955
v 0.13792167 0.065881194 0.012223955
v 0.13792167 0.070274822 0.012223955
v 0.13795635 -0.069389584 0.013791115
v 0.13795635 -0.066852922 0.013791115
v 0.13795635 0.066809677 0.013791115
v 0.13795635 0.069346339 0.013791115
v 0.13825277 -0.069914944 0.013459331
v 0.13825277 -0.066327562 0.013459331
v 0.13825277 0.066284317 0.013459331
v 0.13825277 0.069871699 0.013459331
v 0.13837153 -0.070571481 0.011720427
v 0.13837153 -0.065671025 0.011720427
v 0.13837153 0.06562778 0.011720427
v 0.13837153 0.070528236 0.011720427
v 0.13863907 -0.070318067 0.013026941
v 0.13863907 -0.065924439 0.013026941
v 0.13863907 0.065881194 0.013026941
v 0.13863907 0.070274822 0.013026941
v 0.13885429 -0.070657915 0.011180074
v 0.13885429 -0.06558459 0.011180074
v 0.13885429 0.065541346 0.011180074
v 0.13885429 0.070614671 0.011180074
v 0.13908893 -0.070571481 0.012523412
v 0.13908893 -0.065671025 0.012523412
v 0.13908893 0.06562778 0.012523412
v 0.13908893 0.070528236 0.012523412
v 0.13933704 -0.070571481 0.010639721
v 0.13933704 -0.065671025 0.010639721
v 0.13933704 0.06562778 0.010639721
v 0.13933704 0.070528236 0.010639721
v 0.13957168 -0.070657915 0.01198306
v 0.13957168 -0.068121253 0.01198306
v 0.13957168 -0.06558459 0.01198306
v 0.13957168 0.065541346 0.01198306
v 0.13957168 0.068078008 0.01198306
v 0.13957168 0.070614671 0.01198306
v 0.1397869 -0.070318067 0.010136193
v 0.1397869 -0.065924439 0.010136193
v 0.1397869 0.065881194 0.010136193
v 0.1397869 0.070274822 0.010136193
v 0.14005444 -0.070571481 0.011442707
v 0.14005444 -0.065671025 0.011442707
v 0.14005444 0.06562778 0.011442707
v 0.14005444 0.070528236 0.011442707
v 0.1401732 -0.069914944 0.0097038028
v 0.1401732 -0.066327562 0.0097038028
v 0.1401732 0.066284317 0.0097038028
v 0.1401732 0.069871699 0.0097038028
v 0.14046962 -0.069389584 0.0093720184
v 0.14046962 -0.066852922 0.0093720184
v 0.14046962 0.066809677 0.0093720184
v 0.14046962 0.069346339 0.0093720184
v 0.1405043 -0.070318067 0.010939178
v 0.1405043 -0.065924439 0.010939178
v 0.1405043 0.065881194 0.010939178
v 0.1405043 0.070274822 0.010939178
v 0.14065596 -0.068777789 0.00916345
v 0.14065596 -0.067464716 0.00916345
v 0.14065596 0.067421472 0.00916345
v 0.14065596 0.068734545 0.00916345
v 0.14071952 -0.068121253 0.0090923112
v 0.14071952 0.068078008 0.0090923112
v 0.1408906 -0.069914944 0.010506788
v 0.1408906 -0.066327562 0.010506788
v 0.1408906 0.066284317 0.010506788
v 0.1408906 0.069871699 0.010506788
v 0.14118702 -0.069389584 0.010175004
v 0.14118702 -0.066852922 0.010175004
v 0.14118702 0.066809677 0.010175004
v 0.14118702 0.069346339 0.010175004
v 0.14137336 -0.068777789 0.0099664357
v 0.14137336 -0.067464716 0.0099664357
v 0.14137336 0.067421472 0.0099664357
v 0.14137336 0.068734545 0.0099664357
v 0.14143691 -0.068121253 0.0098952969
v 0.14143691 0.068078008 0.0098952969
f 54 55 64
f 42 50 64
f 42 64 55
f 54 64 76
f 50 60 76
f 50 76 64
f 54 76 86
f 60 68 86
f 60 86 76
f 54 86 90
f 68 72 90
f 68 90 86
f 54 90 94
f 72 80 94
f 72 94 90
f 54 94 97
f 80 83 97
f 80 97 94
f 54 97 93
f 83 79 93
f 83 93 97
f 54 93 89
f 79 71 89
f 79 89 93
f 54 89 85
f 71 67 85
f 71 85 89
f 54 85 75
f 67 59 75
f 67 75 85
f 54 75 63
f 59 49 63
f 59 63 75
f 54 63 53
f 49 41 53
f 49 53 63
f 54 53 45
f 41 33 45
f 41 45 53
f 54 45 37
f 33 21 37
f 33 37 45
f 54 37 29
f 21 11 29
f 21 29 37
f 54 29 25
f 11 7 25
f 11 25 29
f 54 25 17
f 7 3 17
f 7 17 25
f 54 17 15
f 3 1 15
f 3 15 17
f 54 15 18
f 1 4 18
f 1 18 15
f 54 18 26
f 4 8 26
f 4 26 18
f 54 26 30
f 8 12 30
f 8 30 26
f 54 30 38
f 12 22 38
f 12 38 30
f 54 38 46
f 22 34 46
f 22 46 38
f 54 46 55
f 34 42 55
f 34 55 46
f 57 58 66
f 44 52 66
f 44 66 58
f 57 66 78
f 52 62 78
f 52 78 66
f 57 78 88
f 62 70 88
f 62 88 78
f 57 88 92
f 70 74 92
f 70 92 88
f 57 92 96
f 74 82 96
f 74 96 92
f 57 96 98
f 82 84 98
f 82 98 96
f 57 98 95
f 84 81 95
f 84 95 98
f 57 95 91
f 81 73 91
f 81 91 95
f 57 91 87
f 73 69 87
f 73 87 91
f 57 87 77
f 69 61 77
f 69 77 87
f 57 77 65
f 61 51 65
f 61 65 77
f 57 65 56
f 51 43 56
f 51 56 65
f 57 56 47
f 43 35 47
f 43 47 56
f 57 47 39
f 35 23 39
f 35 39 47
f 57 39 31
f 23 13 31
f 23 31 39
f 57 31 27
f 13 9 27
f 13 27 31
f 57 27 19
f 9 5 19
f 9 19 27
f 57 19 16
f 5 2 16
f 5 16 19
f 57 16 20
f 2 6 20
f 2 20 16
f 57 20 28
f 6 10 28
f 6 28 20
f 57 28 32
f 10 14 32
f 10 32 28
f 57 32 40
f 14 24 40
f 14 40 32
f 57 40 48
f 24 36 48
f 24 48 40
f 57 48 58
f 36 44 58
f 36 58 48
f 152 153 162
f 140 148 162
f 140 162 153
f 152 162 174
f 148 158 174
f 148 174 162
f 152 174 184
f 158 166 184
f 158 184 174
f 152 184 188
f 166 170 188
f 166 188 184
f 152 188 192
f 170 178 192
f 170 192 188
f 152 192 195
f 178 181 195
f 178 195 192
f 152 195 191
f 181 177 191
f 181 191 195
f 152 191 187
f 177 169 187
f 177 187 191
f 152 187 183
f 169 165 183
f 169 183 187
f 152 183 173
f 165 157 173
f 165 173 183
f 152 173 161
f 157 147 161
f 157 161 173
f 152 161 151
f 147 139 151
f 147 151 161
f 152 151 143
f 139 131 143
f 139 143 151
f 152 143 135
f 131 119 135
f 131 135 143
f 152 135 127
f 119 109 127
f 119 127 135
f 152 127 123
f 109 105 123
f 109 123 127
f 152 123 115
f 105 101 115
f 105 115 123
f 152 115 113
f 101 99 113
f 101 113 115
f 152 113 116
f 99 102 116
f 99 116 113
f 152 116 124
f 102 106 124
f 102 124 116
f 152 124 128
f 106 110 128
f 106 128 124
f 152 128 136
f 110 120 136
f 110 136 128
f 152 136 144
f 120 132 144
f 120 144 136
f 152 144 153
f 132 140 153
f 132 153 144
f 155 156 164
f 142 150 164
f 142 164 156
f 155 164 176
f 150 160 176
f 150 176 164
f 155 176 186
f 160 168 186
f 160 186 176
f 155 186 190
f 168 172 190
f 168 190 186
f 155 190 194
f 172 180 194
f 172 194 190
f 155 194 196
f 180 182 196
f 180 196 194
f 155 196 193
f 182 179 193
f 182 193 196
f 155 193 189
f 179 171 189
f 179 189 193
f 155 189 185
f 171 167 185
f 171 185 189
f 155 185 175
f 167 159 175
f 167 175 185
f 155 175 163
f 159 149 163
f 159 163 175
f 155 163 154
f 149 141 154
f 149 154 163
f 155 154 145
f 141 133 145
f 141 145 154
f 155 145 137
f 133 121 137
f 133 137 145
f 155 137 129
f 121 111 129
f 121 129 137
f 155 129 125
f 111 107 125
f 111 125 129
f 155 125 117
f 107 103 117
f 107 117 125
f 155 117 114
f 103 100 114
f 103 114 117
f 155 114 118
f 100 104 118
f 100 118 114
f 155 118 126
f 104 108 126
f 104 126 118
f 155 126 130
f 108 112 130
f 108 130 126
f 155 130 138
f 112 122 138
f 112 138 130
f 155 138 146
f 122 134 146
f 122 146 138
f 155 146 156
f 134 142 156
f 134 156 146
